<?xml version="1.0" standalone="no"?>
<!DOCTYPE svg PUBLIC "-//W3C//DTD SVG 20010904//EN"
 "http://www.w3.org/TR/2001/REC-SVG-20010904/DTD/svg10.dtd">
<svg version="1.0" xmlns="http://www.w3.org/2000/svg"
 width="339.000000pt" height="339.000000pt" viewBox="0 0 339.000000 339.000000"
 preserveAspectRatio="xMidYMid meet">
<metadata>
Created by potrace 1.11, written by Peter Selinger 2001-2013
</metadata>
<g transform="translate(0.000000,339.000000) scale(0.100000,-0.100000)"
fill="#000000" stroke="none">
<path d="M2135 3360 c-33 -6 -67 -13 -75 -16 -8 -3 -25 -8 -36 -10 -12 -2 -53
-17 -91 -32 -325 -132 -546 -412 -599 -757 -8 -49 -9 -280 -4 -1120 1 -225 -1
-426 -5 -445 -3 -19 -19 -53 -34 -75 -90 -132 -273 -143 -376 -22 -52 61 -57
95 -60 429 -3 331 -7 359 -66 444 -38 56 -82 92 -154 125 -53 24 -70 27 -150
26 -76 -2 -99 -6 -147 -30 -95 -47 -163 -127 -193 -229 -13 -47 -15 -106 -11
-414 2 -198 9 -388 16 -422 68 -391 376 -700 773 -777 73 -13 278 -14 347 0
409 81 718 412 775 830 7 46 7 728 1 1325 -3 276 2 314 48 375 15 19 48 47 73
62 38 22 59 27 112 27 76 0 129 -23 176 -76 58 -64 59 -67 65 -303 5 -210 7
-222 32 -277 36 -79 98 -142 176 -180 58 -29 75 -32 151 -32 72 0 96 4 143 26
80 37 149 105 184 181 l29 62 0 250 c0 231 -2 257 -24 339 -45 171 -126 315
-249 440 -119 122 -317 234 -464 261 -12 3 -34 7 -48 10 -48 11 -256 14 -315
5z"/>
<path d="M455 3330 c-3 -5 -1 -10 4 -10 6 0 11 5 11 10 0 6 -2 10 -4 10 -3 0
-8 -4 -11 -10z"/>
<path d="M490 3330 c-9 -6 -10 -10 -3 -10 6 0 15 5 18 10 8 12 4 12 -15 0z"/>
<path d="M570 3330 c0 -5 5 -10 11 -10 5 0 7 5 4 10 -3 6 -8 10 -11 10 -2 0
-4 -4 -4 -10z"/>
<path d="M373 3306 c3 -26 45 -29 58 -4 6 12 6 18 -1 18 -5 0 -10 -6 -10 -14
0 -18 -33 -15 -42 4 -6 11 -7 10 -5 -4z"/>
<path d="M497 3308 c-7 -5 0 -6 17 -4 16 3 31 7 33 10 8 8 -37 2 -50 -6z"/>
<path d="M600 3308 c0 -4 4 -8 9 -8 6 0 12 4 15 8 3 5 -1 9 -9 9 -8 0 -15 -4
-15 -9z"/>
<path d="M545 3297 c-14 -11 -15 -16 -5 -22 9 -5 11 -4 6 3 -4 7 -1 12 8 12 9
0 16 5 16 10 0 13 -3 13 -25 -3z"/>
<path d="M353 3274 c0 -17 2 -22 7 -13 5 6 6 18 3 26 -8 19 -10 16 -10 -13z"/>
<path d="M670 3290 c0 -5 5 -10 11 -10 5 0 7 5 4 10 -3 6 -8 10 -11 10 -2 0
-4 -4 -4 -10z"/>
<path d="M476 3274 c-4 -9 -4 -19 -1 -22 3 -3 5 0 5 7 0 7 4 9 10 6 6 -3 7 1
4 9 -8 20 -10 20 -18 0z"/>
<path d="M513 3264 c0 -17 2 -22 7 -13 5 6 6 18 3 26 -8 19 -10 16 -10 -13z"/>
<path d="M654 3265 c1 -11 6 -19 12 -18 5 1 16 -7 22 -18 11 -17 10 -20 -5
-17 -10 2 -23 9 -29 17 -9 11 -12 12 -19 1 -5 -8 -4 -11 2 -7 6 4 13 1 16 -7
4 -10 38 -15 55 -7 1 0 -5 12 -14 26 -9 14 -20 23 -24 20 -5 -3 -10 3 -13 12
-3 14 -4 13 -3 -2z"/>
<path d="M297 3273 c-2 -5 -4 -20 -3 -36 1 -19 -2 -26 -11 -23 -7 3 -13 1 -13
-5 0 -6 7 -9 17 -7 11 2 17 14 18 41 1 37 0 43 -8 30z"/>
<path d="M436 3265 c4 -8 8 -15 10 -15 2 0 4 7 4 15 0 8 -4 15 -10 15 -5 0 -7
-7 -4 -15z"/>
<path d="M590 3270 c0 -5 7 -7 15 -4 8 4 15 8 15 10 0 2 -7 4 -15 4 -8 0 -15
-4 -15 -10z"/>
<path d="M377 3264 c-4 -4 -4 -11 -1 -15 7 -12 41 -12 48 0 3 4 -6 6 -21 3
-18 -3 -24 -1 -19 7 8 12 3 15 -7 5z"/>
<path d="M526 3239 c-9 -11 -11 -19 -6 -19 6 0 13 6 16 13 2 7 14 14 26 14 16
2 18 -1 9 -10 -6 -6 -11 -16 -11 -21 0 -6 6 -2 12 9 15 25 13 30 -11 31 -10 1
-26 -7 -35 -17z"/>
<path d="M612 3255 c4 -4 0 -14 -10 -21 -9 -7 -15 -14 -12 -17 3 -2 13 4 23
13 15 14 16 20 5 26 -7 4 -10 4 -6 -1z"/>
<path d="M330 3230 c0 -5 5 -10 10 -10 6 0 10 5 10 10 0 6 -4 10 -10 10 -5 0
-10 -4 -10 -10z"/>
<path d="M367 3229 c7 -7 15 -10 18 -7 3 3 -2 9 -12 12 -14 6 -15 5 -6 -5z"/>
<path d="M450 3230 c0 -5 5 -10 10 -10 6 0 10 5 10 10 0 6 -4 10 -10 10 -5 0
-10 -4 -10 -10z"/>
<path d="M720 3229 c0 -5 5 -7 12 -3 8 5 9 1 4 -12 -5 -14 -4 -16 5 -7 6 6 8
16 5 22 -9 14 -26 14 -26 0z"/>
<path d="M395 3210 c-4 -6 -4 -14 -1 -17 3 -4 6 -1 6 5 0 7 5 12 11 12 5 0 8
-4 5 -8 -2 -4 0 -14 5 -22 7 -11 8 -9 6 9 -4 27 -21 38 -32 21z"/>
<path d="M484 3209 c-5 -8 -3 -9 6 -4 10 6 12 4 7 -8 -3 -10 -2 -17 3 -17 13
0 13 27 1 35 -5 3 -13 0 -17 -6z"/>
<path d="M620 3202 c7 -13 14 -21 17 -18 3 3 12 -2 20 -12 13 -15 13 -14 3 6
-7 13 -14 21 -17 18 -3 -3 -12 2 -20 12 -13 15 -13 14 -3 -6z"/>
<path d="M254 3186 c1 -14 9 -20 28 -20 14 -1 24 2 21 7 -3 5 -14 7 -24 4 -11
-3 -19 1 -22 12 -3 11 -4 10 -3 -3z"/>
<path d="M317 3203 c-4 -3 -7 -11 -7 -17 0 -6 5 -5 12 2 6 6 9 14 7 17 -3 3
-9 2 -12 -2z"/>
<path d="M350 3195 c0 -8 4 -15 10 -15 5 0 7 7 4 15 -4 8 -8 15 -10 15 -2 0
-4 -7 -4 -15z"/>
<path d="M221 3184 c0 -11 3 -14 6 -6 3 7 2 16 -1 19 -3 4 -6 -2 -5 -13z"/>
<path d="M534 3189 c-3 -5 -2 -9 3 -10 4 -1 -3 -5 -17 -10 l-25 -8 25 2 c15 2
24 8 22 16 -2 8 3 11 11 8 8 -3 20 -2 26 3 9 5 4 8 -13 8 -15 0 -29 -4 -32 -9z"/>
<path d="M700 3189 c-12 -9 -12 -10 3 -5 15 5 17 2 12 -17 -5 -20 -5 -20 6 -4
14 23 0 40 -21 26z"/>
<path d="M750 3185 c0 -8 2 -15 4 -15 2 0 6 7 10 15 3 8 1 15 -4 15 -6 0 -10
-7 -10 -15z"/>
<path d="M324 3169 c-5 -8 -3 -9 5 -4 9 5 12 0 9 -16 -2 -20 1 -24 22 -24 20
1 25 5 23 22 -2 16 2 21 12 17 8 -4 15 -2 15 4 0 6 -8 9 -17 7 -11 -1 -17 -10
-16 -22 1 -12 -5 -19 -16 -20 -14 -1 -17 4 -14 17 6 21 -12 36 -23 19z"/>
<path d="M577 3172 c-3 -4 -3 -15 -2 -24 2 -12 -3 -17 -17 -15 -15 1 -22 -5
-24 -23 -3 -18 -2 -21 5 -10 5 8 7 18 5 22 -3 4 5 7 18 5 18 -1 23 3 22 20 -1
15 4 21 17 20 21 -1 25 -12 9 -20 -6 -3 -5 -4 2 -3 22 4 15 29 -9 32 -12 2
-24 0 -26 -4z"/>
<path d="M470 3160 c-9 -6 -10 -10 -3 -10 6 0 15 5 18 10 8 12 4 12 -15 0z"/>
<path d="M681 3153 c-1 -13 -7 -22 -13 -20 -7 1 -13 -9 -14 -23 -2 -22 -2 -22
3 -2 2 12 9 20 14 17 11 -8 23 20 16 37 -3 7 -6 3 -6 -9z"/>
<path d="M215 3149 c-4 -6 -4 -13 -1 -17 11 -10 36 -11 36 0 0 6 -7 7 -16 4
-12 -4 -15 -2 -10 9 6 17 0 20 -9 4z"/>
<path d="M636 3145 c-9 -26 -7 -32 5 -12 6 10 9 21 6 23 -2 3 -7 -2 -11 -11z"/>
<path d="M730 3150 c0 -5 5 -10 10 -10 6 0 10 5 10 10 0 6 -4 10 -10 10 -5 0
-10 -4 -10 -10z"/>
<path d="M765 3150 c-3 -6 1 -7 9 -4 18 7 21 14 7 14 -6 0 -13 -4 -16 -10z"/>
<path d="M785 3137 c-14 -11 -15 -16 -5 -22 9 -5 11 -4 6 3 -4 7 -1 12 8 12 9
0 16 5 16 10 0 13 -3 13 -25 -3z"/>
<path d="M413 3123 c-9 -22 3 -36 29 -37 15 -1 24 2 21 7 -3 5 -14 7 -24 4
-13 -4 -19 0 -19 13 0 13 6 17 19 13 10 -3 21 -1 24 4 3 4 -6 8 -20 8 -14 0
-28 -5 -30 -12z"/>
<path d="M187 3112 c1 -8 3 -16 3 -18 0 -2 4 -4 8 -4 5 0 9 7 9 15 0 8 -4 12
-8 9 -4 -2 -9 -1 -12 3 -2 5 -2 2 0 -5z"/>
<path d="M259 3118 c-1 -7 -1 -16 0 -20 2 -12 -17 -10 -22 2 -3 6 -4 5 -3 -2
4 -22 29 -14 32 10 2 12 2 22 -1 22 -3 0 -6 -6 -6 -12z"/>
<path d="M720 3122 c0 -6 -8 -9 -17 -6 -15 5 -16 4 -3 -5 16 -11 40 3 27 16
-4 3 -7 1 -7 -5z"/>
<path d="M753 3104 c0 -17 2 -22 7 -13 5 6 6 18 3 26 -8 19 -10 16 -10 -13z"/>
<path d="M315 3110 c27 -12 43 -12 25 0 -8 5 -22 9 -30 9 -10 0 -8 -3 5 -9z"/>
<path d="M380 3100 c-6 -11 -8 -20 -6 -20 3 0 10 9 16 20 6 11 8 20 6 20 -3 0
-10 -9 -16 -20z"/>
<path d="M470 3110 c0 -6 7 -10 15 -10 8 0 15 2 15 4 0 2 -7 6 -15 10 -8 3
-15 1 -15 -4z"/>
<path d="M590 3110 c0 -5 7 -7 15 -4 8 4 15 8 15 10 0 2 -7 4 -15 4 -8 0 -15
-4 -15 -10z"/>
<path d="M810 3116 c0 -2 7 -7 16 -10 8 -3 12 -2 9 4 -6 10 -25 14 -25 6z"/>
<path d="M550 3090 c0 -5 7 -7 16 -3 14 5 14 3 3 -15 -7 -11 -18 -20 -23 -19
-6 1 -11 -9 -11 -23 1 -20 5 -25 22 -23 16 2 21 -2 17 -12 -4 -8 -2 -15 4 -15
6 0 9 8 7 18 -1 10 -10 16 -22 15 -12 -1 -19 5 -20 17 -1 13 4 18 17 15 11 -2
23 1 26 7 4 7 2 8 -4 4 -7 -4 -12 -3 -12 3 0 5 5 13 10 16 6 4 8 11 5 16 -8
12 -35 12 -35 -1z"/>
<path d="M670 3091 c0 -6 6 -8 13 -5 8 3 13 -3 13 -16 0 -23 -27 -23 -38 0 -6
11 -7 10 -5 -5 1 -14 10 -20 27 -20 19 0 24 5 24 25 0 16 -6 26 -17 28 -9 2
-17 -1 -17 -7z"/>
<path d="M773 3084 c-8 -22 2 -37 28 -41 18 -2 20 -1 9 6 -8 5 -18 7 -22 5 -4
-3 -8 3 -8 13 0 11 8 19 19 20 14 1 18 -3 14 -13 -3 -8 -1 -14 5 -14 6 0 9 8
8 18 -3 20 -45 26 -53 6z"/>
<path d="M315 3080 c-3 -5 -1 -10 4 -10 6 0 11 5 11 10 0 6 -2 10 -4 10 -3 0
-8 -4 -11 -10z"/>
<path d="M353 3070 c1 -14 7 -24 12 -22 6 2 13 -7 17 -20 7 -22 7 -22 5 2 -1
14 -6 24 -12 22 -5 -2 -13 7 -17 20 -7 22 -7 22 -5 -2z"/>
<path d="M210 3076 c0 -2 7 -7 16 -10 8 -3 12 -2 9 4 -6 10 -25 14 -25 6z"/>
<path d="M258 3068 c-9 -5 -6 -7 9 -5 12 2 25 6 28 8 8 9 -23 6 -37 -3z"/>
<path d="M390 3070 c0 -5 5 -10 10 -10 6 0 10 5 10 10 0 6 -4 10 -10 10 -5 0
-10 -4 -10 -10z"/>
<path d="M440 3067 c0 -9 -5 -16 -12 -14 -6 1 -13 -6 -14 -16 -1 -12 0 -13 3
-2 2 8 9 13 14 9 11 -6 25 24 15 33 -3 4 -6 -1 -6 -10z"/>
<path d="M477 3066 c-4 -10 -1 -13 9 -9 15 6 19 23 5 23 -5 0 -11 -7 -14 -14z"/>
<path d="M520 3065 c-7 -9 -11 -17 -9 -20 3 -2 10 5 17 15 14 24 10 26 -8 5z"/>
<path d="M600 3070 c0 -5 5 -10 10 -10 6 0 10 5 10 10 0 6 -4 10 -10 10 -5 0
-10 -4 -10 -10z"/>
<path d="M720 3069 c0 -5 5 -7 12 -3 8 5 9 1 4 -12 -5 -14 -4 -16 5 -7 6 6 8
16 5 22 -9 14 -26 14 -26 0z"/>
<path d="M170 3047 c12 -13 13 -40 1 -32 -5 3 -12 1 -15 -4 -4 -5 2 -8 11 -7
11 2 18 12 17 25 0 14 5 21 17 21 12 0 16 -6 12 -19 -6 -25 8 -32 32 -15 10 8
14 14 9 14 -6 0 -16 -6 -23 -12 -10 -11 -12 -8 -9 12 3 22 -1 25 -30 26 -23 1
-30 -2 -22 -9z"/>
<path d="M299 3058 c-6 -21 -5 -37 2 -32 5 3 7 9 4 14 -3 4 1 11 7 13 10 4 10
6 1 6 -7 1 -13 0 -14 -1z"/>
<path d="M633 3043 c0 -12 3 -20 6 -18 2 3 10 -3 18 -13 13 -16 13 -15 4 3
-22 43 -30 51 -28 28z"/>
<path d="M835 3051 c-6 -11 13 -26 22 -17 4 3 1 6 -6 6 -7 0 -9 5 -6 10 3 6 4
10 1 10 -3 0 -7 -4 -11 -9z"/>
<path d="M316 3025 c-9 -26 -7 -32 5 -12 6 10 9 21 6 23 -2 3 -7 -2 -11 -11z"/>
<path d="M459 3031 c8 -5 21 -7 29 -3 10 3 13 1 8 -6 -4 -6 3 -16 16 -22 22
-11 22 -11 3 5 -11 9 -18 19 -15 23 3 3 -8 8 -25 9 -20 1 -25 -1 -16 -6z"/>
<path d="M590 3030 c0 -5 7 -7 15 -4 8 4 15 8 15 10 0 2 -7 4 -15 4 -8 0 -15
-4 -15 -10z"/>
<path d="M700 3029 c-12 -9 -12 -10 3 -5 15 5 17 2 12 -17 -5 -20 -5 -20 6 -4
14 23 0 40 -21 26z"/>
<path d="M750 3025 c0 -8 2 -15 4 -15 2 0 6 7 10 15 3 8 1 15 -4 15 -6 0 -10
-7 -10 -15z"/>
<path d="M790 3019 c0 -5 5 -7 10 -4 6 3 10 8 10 11 0 2 -4 4 -10 4 -5 0 -10
-5 -10 -11z"/>
<path d="M335 3010 c-3 -5 -3 -10 2 -10 4 0 1 -5 -7 -11 -13 -9 -13 -10 0 -6
8 2 14 10 12 17 -2 8 3 10 13 7 8 -4 15 -2 15 3 0 13 -27 13 -35 0z"/>
<path d="M430 3011 c0 -6 7 -8 15 -4 10 3 15 1 13 -8 -2 -7 5 -15 15 -17 9 -2
17 1 17 7 0 6 -7 8 -15 4 -10 -3 -15 -1 -13 8 2 7 -5 15 -14 17 -10 2 -18 -1
-18 -7z"/>
<path d="M850 3010 c0 -5 5 -10 11 -10 5 0 7 5 4 10 -3 6 -8 10 -11 10 -2 0
-4 -4 -4 -10z"/>
<path d="M294 2991 c2 -14 9 -27 17 -29 11 -3 12 -2 1 6 -8 5 -13 12 -12 16 1
4 -1 12 -4 19 -2 6 -3 1 -2 -12z"/>
<path d="M415 2995 c4 -16 0 -21 -15 -21 -13 0 -19 5 -15 14 3 7 0 10 -6 7
-16 -11 -5 -28 19 -30 28 -2 36 10 22 32 -10 16 -10 16 -5 -2z"/>
<path d="M636 2997 c3 -10 9 -15 12 -12 3 3 0 11 -7 18 -10 9 -11 8 -5 -6z"/>
<path d="M681 2993 c-1 -13 -7 -22 -13 -20 -7 1 -13 -9 -14 -23 -2 -22 -2 -22
3 -2 2 12 9 20 14 17 11 -8 23 20 16 37 -3 7 -6 3 -6 -9z"/>
<path d="M191 2983 c0 -11 3 -13 6 -5 2 6 10 9 15 6 7 -4 8 -2 4 4 -11 18 -26
14 -25 -5z"/>
<path d="M250 2990 c8 -5 20 -10 25 -10 6 0 3 5 -5 10 -8 5 -19 10 -25 10 -5
0 -3 -5 5 -10z"/>
<path d="M608 2993 c6 -2 12 -9 12 -14 0 -6 -5 -7 -12 -3 -7 5 -8 3 -3 -5 5
-9 11 -9 17 -3 12 12 2 32 -15 31 -9 0 -9 -2 1 -6z"/>
<path d="M730 2990 c0 -5 5 -10 10 -10 6 0 10 5 10 10 0 6 -4 10 -10 10 -5 0
-10 -4 -10 -10z"/>
<path d="M765 2990 c-3 -6 1 -7 9 -4 18 7 21 14 7 14 -6 0 -13 -4 -16 -10z"/>
<path d="M785 2977 c-15 -12 -16 -15 -4 -22 8 -5 10 -4 6 0 -4 5 3 15 15 22
13 7 18 12 12 13 -5 0 -18 -6 -29 -13z"/>
<path d="M234 2954 c7 -38 14 -40 12 -5 0 17 -4 31 -9 31 -4 0 -5 -12 -3 -26z"/>
<path d="M353 2954 c0 -17 2 -22 7 -13 5 6 6 18 3 26 -8 19 -10 16 -10 -13z"/>
<path d="M499 2973 c-1 -5 -1 -11 0 -15 0 -5 -6 -8 -14 -8 -8 0 -15 -4 -15
-10 0 -5 7 -6 17 -3 12 5 14 3 8 -7 -5 -8 -4 -11 3 -7 5 4 9 15 8 25 -2 10 5
20 18 24 21 6 20 6 -1 7 -13 1 -24 -2 -24 -6z"/>
<path d="M830 2970 c0 -5 5 -10 10 -10 6 0 10 5 10 10 0 6 -4 10 -10 10 -5 0
-10 -4 -10 -10z"/>
<path d="M720 2962 c0 -6 -8 -9 -17 -6 -15 5 -16 4 -3 -5 16 -11 40 3 27 16
-4 3 -7 1 -7 -5z"/>
<path d="M753 2944 c0 -17 2 -22 7 -13 5 6 6 18 3 26 -8 19 -10 16 -10 -13z"/>
<path d="M270 2950 c-13 -8 -12 -10 3 -10 9 0 17 5 17 10 0 12 -1 12 -20 0z"/>
<path d="M436 2945 c4 -8 8 -15 10 -15 2 0 4 7 4 15 0 8 -4 15 -10 15 -5 0 -7
-7 -4 -15z"/>
<path d="M532 2943 c2 -10 9 -17 14 -16 6 1 16 -8 23 -19 11 -18 11 -20 -3
-15 -9 4 -16 2 -16 -3 0 -11 23 -14 33 -4 10 10 -24 55 -36 47 -6 -4 -8 0 -4
10 3 10 2 17 -4 17 -6 0 -9 -8 -7 -17z"/>
<path d="M581 2950 c-9 -5 -4 -7 13 -7 29 0 32 2 13 10 -8 3 -20 2 -26 -3z"/>
<path d="M157 2939 c7 -7 15 -10 18 -7 3 3 -2 9 -12 12 -14 6 -15 5 -6 -5z"/>
<path d="M304 2935 c-18 -14 -18 -14 4 -8 12 3 22 9 22 14 0 12 -3 11 -26 -6z"/>
<path d="M377 2944 c-4 -4 -4 -11 -1 -15 7 -12 41 -12 48 0 3 4 -6 6 -21 3
-18 -3 -24 -1 -19 7 8 12 3 15 -7 5z"/>
<path d="M196 2929 c3 -5 9 -7 14 -4 4 3 11 0 13 -5 3 -6 4 -5 3 1 -1 7 -10
13 -19 15 -9 1 -15 -2 -11 -7z"/>
<path d="M670 2931 c0 -6 6 -8 13 -5 8 3 13 -3 13 -16 0 -13 -5 -19 -13 -16
-7 3 -13 1 -13 -5 0 -6 8 -9 17 -7 11 2 17 12 17 28 0 16 -6 26 -17 28 -9 2
-17 -1 -17 -7z"/>
<path d="M774 2926 c-9 -22 3 -49 18 -40 8 5 9 2 4 -12 -5 -14 -4 -16 5 -7 13
13 3 37 -12 28 -5 -4 -9 4 -9 16 0 21 1 22 20 4 11 -10 22 -16 24 -14 2 2 -7
12 -20 22 -21 16 -25 16 -30 3z"/>
<path d="M830 2921 c14 -11 30 -21 35 -21 11 0 -7 14 -40 31 -13 7 -12 3 5
-10z"/>
<path d="M594 2918 c3 -15 26 -23 26 -8 0 6 -4 9 -9 6 -5 -4 -12 -1 -14 4 -3
6 -4 5 -3 -2z"/>
<path d="M165 2910 c-3 -6 1 -7 9 -4 18 7 21 14 7 14 -6 0 -13 -4 -16 -10z"/>
<path d="M250 2909 c-12 -8 -10 -9 7 -4 19 5 22 3 17 -12 -5 -14 -4 -15 4 -3
19 25 0 38 -28 19z"/>
<path d="M316 2908 c3 -4 11 -5 19 -1 21 7 19 12 -4 10 -11 0 -18 -5 -15 -9z"/>
<path d="M352 2904 c-7 -7 -12 -17 -11 -20 0 -4 -5 -11 -13 -16 -11 -8 -11 -9
0 -6 8 2 13 7 12 12 -1 4 7 14 17 21 10 7 16 16 13 18 -3 3 -11 -1 -18 -9z"/>
<path d="M418 2909 c-6 -4 4 -6 21 -5 17 0 31 4 31 8 0 8 -37 6 -52 -3z"/>
<path d="M513 2898 c-2 -18 0 -20 7 -8 12 18 13 30 2 30 -4 0 -9 -10 -9 -22z"/>
<path d="M651 2904 c0 -11 3 -14 6 -6 3 7 2 16 -1 19 -3 4 -6 -2 -5 -13z"/>
<path d="M720 2910 c0 -5 5 -10 10 -10 6 0 10 5 10 10 0 6 -4 10 -10 10 -5 0
-10 -4 -10 -10z"/>
<path d="M200 2900 c0 -5 -5 -9 -12 -7 -6 1 -13 -7 -15 -18 -3 -18 -2 -18 5
-2 4 10 12 18 17 17 5 -1 11 3 13 9 2 6 1 11 -2 11 -3 0 -6 -4 -6 -10z"/>
<path d="M296 2892 c-14 -23 11 -62 39 -61 6 0 1 5 -10 12 -11 7 -21 20 -23
31 -2 12 1 16 9 10 8 -4 10 -3 5 4 -8 14 -13 15 -20 4z"/>
<path d="M379 2898 c-7 -33 -7 -48 0 -53 5 -3 13 0 17 6 4 7 3 9 -4 5 -7 -4
-10 1 -9 14 1 21 12 27 20 10 3 -6 4 -5 3 2 -2 10 -25 25 -27 16z"/>
<path d="M430 2875 c0 -8 4 -15 10 -15 5 0 7 7 4 15 -4 8 -8 15 -10 15 -2 0
-4 -7 -4 -15z"/>
<path d="M470 2880 c0 -6 7 -10 15 -10 8 0 15 2 15 4 0 2 -7 6 -15 10 -8 3
-15 1 -15 -4z"/>
<path d="M534 2870 c2 -18 9 -24 24 -23 15 2 20 -2 16 -12 -4 -8 -2 -15 4 -15
6 0 9 8 7 18 -1 11 -10 16 -24 15 -12 -2 -20 1 -17 5 2 4 0 14 -5 22 -7 11 -8
8 -5 -10z"/>
<path d="M830 2875 c0 -8 4 -15 8 -15 5 0 9 7 9 15 0 8 -4 15 -9 15 -4 0 -8
-7 -8 -15z"/>
<path d="M219 2871 c8 -5 21 -7 29 -3 10 3 13 1 8 -6 -4 -7 -1 -15 8 -18 9 -3
14 -9 12 -13 -3 -4 5 -8 17 -8 19 -2 18 0 -7 16 -15 10 -26 22 -24 27 2 5 -10
10 -27 11 -20 1 -25 -1 -16 -6z"/>
<path d="M590 2872 c0 -5 7 -9 15 -9 8 0 15 4 15 9 0 4 -7 8 -15 8 -8 0 -15
-4 -15 -8z"/>
<path d="M653 2865 c2 -11 9 -19 15 -17 7 1 12 -7 12 -19 0 -11 -5 -17 -10
-14 -6 3 -13 -1 -16 -9 -3 -9 -9 -14 -13 -11 -4 2 -8 -3 -8 -12 0 -13 4 -11
18 6 10 12 22 22 26 21 4 0 8 9 8 20 0 11 -4 20 -10 19 -5 0 -13 8 -17 18 -7
16 -8 16 -5 -2z"/>
<path d="M700 2869 c-12 -9 -12 -10 4 -5 14 5 17 3 12 -11 -6 -15 -5 -16 5 -5
18 17 -1 35 -21 21z"/>
<path d="M750 2865 c0 -8 2 -15 4 -15 2 0 6 7 10 15 3 8 1 15 -4 15 -6 0 -10
-7 -10 -15z"/>
<path d="M510 2861 c0 -7 -5 -9 -12 -5 -7 5 -8 3 -3 -5 5 -9 10 -10 18 -2 6 6
8 14 4 18 -4 3 -7 1 -7 -6z"/>
<path d="M190 2850 c0 -5 7 -6 17 -3 12 5 14 3 8 -7 -5 -9 -4 -11 4 -6 6 4 9
12 6 17 -8 12 -35 12 -35 -1z"/>
<path d="M353 2835 c1 -17 7 -29 12 -27 5 2 13 -5 17 -15 7 -16 8 -16 5 2 -2
11 -9 19 -16 17 -8 -2 -11 3 -8 11 3 8 1 20 -4 28 -5 9 -7 4 -6 -16z"/>
<path d="M417 2844 c4 -11 3 -15 -5 -10 -6 3 -14 1 -18 -5 -4 -7 -3 -9 4 -5 5
3 12 1 14 -6 2 -6 12 -12 21 -14 9 -1 15 2 11 7 -3 5 -10 6 -16 3 -6 -4 -8 1
-4 14 4 11 2 23 -3 27 -7 4 -8 -1 -4 -11z"/>
<path d="M457 2853 c-10 -10 -8 -33 3 -33 5 0 7 8 4 18 -5 14 -3 14 10 -2 9
-11 16 -15 16 -9 0 14 -25 34 -33 26z"/>
<path d="M630 2855 c0 -5 5 -17 10 -25 5 -8 10 -10 10 -5 0 6 -5 17 -10 25 -5
8 -10 11 -10 5z"/>
<path d="M777 2847 c3 -5 14 -6 25 -4 15 4 18 1 16 -16 -2 -14 3 -23 15 -25 9
-2 17 1 17 7 0 6 -6 8 -13 5 -9 -3 -13 3 -13 17 1 17 -5 22 -26 23 -14 1 -24
-2 -21 -7z"/>
<path d="M854 2849 c-3 -6 -2 -15 3 -20 5 -5 9 -1 9 11 0 23 -2 24 -12 9z"/>
<path d="M170 2841 c0 -10 19 -25 25 -20 1 2 -3 10 -11 17 -8 7 -14 8 -14 3z"/>
<path d="M237 2833 c-12 -12 -7 -21 16 -26 20 -5 20 -5 5 7 -10 7 -15 16 -11
19 3 4 4 7 1 7 -2 0 -8 -3 -11 -7z"/>
<path d="M610 2833 c5 -2 10 -9 10 -14 0 -6 -4 -8 -8 -5 -4 2 -14 0 -22 -5
-11 -7 -8 -8 10 -6 26 4 35 28 12 33 -7 1 -8 0 -2 -3z"/>
<path d="M730 2830 c0 -5 5 -10 10 -10 6 0 10 5 10 10 0 6 -4 10 -10 10 -5 0
-10 -4 -10 -10z"/>
<path d="M715 2813 c5 -19 3 -22 -12 -17 -15 5 -15 4 -3 -5 21 -14 35 3 21 26
-11 16 -11 16 -6 -4z"/>
<path d="M499 2813 c-1 -4 0 -16 1 -27 1 -10 -3 -15 -8 -12 -16 9 -26 -14 -13
-27 9 -9 11 -8 5 6 -4 12 -2 17 7 15 9 -2 14 5 13 20 0 15 5 22 17 22 12 0 17
-6 14 -20 -2 -11 1 -23 7 -26 7 -4 8 -2 4 4 -7 12 4 16 34 13 13 -2 13 0 1 8
-8 5 -20 7 -28 4 -8 -3 -13 0 -11 8 2 8 -7 15 -19 17 -13 2 -24 0 -24 -5z"/>
<path d="M277 2797 c-3 -8 -2 -20 3 -26 5 -9 8 -4 8 13 0 29 -3 32 -11 13z"/>
<path d="M311 2803 c-1 -18 13 -23 29 -11 12 8 12 9 -2 5 -9 -3 -19 -1 -22 6
-3 9 -5 9 -5 0z"/>
<path d="M750 2795 c0 -8 4 -15 10 -15 5 0 7 7 4 15 -4 8 -8 15 -10 15 -2 0
-4 -7 -4 -15z"/>
<path d="M790 2800 c0 -5 5 -10 11 -10 5 0 7 5 4 10 -3 6 -8 10 -11 10 -2 0
-4 -4 -4 -10z"/>
<path d="M180 2795 c0 -8 29 -12 39 -5 9 5 4 8 -13 8 -14 0 -26 -2 -26 -3z"/>
<path d="M836 2777 c3 -10 9 -15 12 -12 3 3 0 11 -7 18 -10 9 -11 8 -5 -6z"/>
<path d="M175 2769 c-4 -6 -5 -12 -2 -15 2 -3 7 2 10 11 7 17 1 20 -8 4z"/>
<path d="M217 2774 c-8 -9 3 -34 15 -34 6 0 5 7 -3 16 -11 14 -10 15 7 12 19
-3 34 -16 34 -31 0 -5 -5 -5 -12 -1 -6 4 -8 3 -5 -4 4 -5 15 -9 25 -8 10 2 20
-5 24 -18 6 -19 7 -18 5 4 -1 14 -6 23 -10 20 -5 -3 -14 6 -22 19 -12 23 -45
37 -58 25z"/>
<path d="M335 2771 c-3 -5 0 -13 6 -17 8 -5 9 -3 4 6 -6 10 -4 12 8 7 10 -3
17 -2 17 3 0 13 -27 13 -35 1z"/>
<path d="M653 2763 c-3 -8 -3 -17 1 -20 3 -4 -6 -15 -21 -25 -16 -10 -24 -18
-20 -18 21 0 55 32 50 48 -3 12 2 18 17 19 18 2 19 -1 10 -13 -9 -10 -9 -14
-1 -14 6 0 11 5 11 10 0 6 0 13 0 18 0 13 -42 10 -47 -5z"/>
<path d="M734 2772 c3 -5 1 -12 -4 -14 -7 -2 -6 -10 3 -22 11 -15 16 -16 22
-6 6 9 4 11 -5 5 -10 -6 -12 -3 -8 13 4 12 1 25 -4 29 -6 3 -8 1 -4 -5z"/>
<path d="M775 2771 c-9 -8 -5 -31 5 -31 5 0 6 7 3 17 -4 9 -2 14 3 10 6 -3 16
-2 24 3 11 7 9 9 -8 7 -13 -1 -25 -3 -27 -6z"/>
<path d="M441 2763 c-1 -6 -4 -20 -7 -30 -5 -17 -5 -17 6 0 6 10 9 23 6 30 -3
9 -5 9 -5 0z"/>
<path d="M561 2765 c-1 -20 18 -39 41 -41 13 -2 17 0 11 2 -7 3 -15 4 -19 2
-3 -2 -12 8 -19 22 -8 14 -14 21 -14 15z"/>
<path d="M190 2755 c0 -5 5 -17 10 -25 5 -8 10 -10 10 -5 0 6 -5 17 -10 25 -5
8 -10 11 -10 5z"/>
<path d="M305 2750 c3 -5 11 -10 16 -10 6 0 7 5 4 10 -3 6 -11 10 -16 10 -6 0
-7 -4 -4 -10z"/>
<path d="M404 2744 c-18 -14 -18 -15 4 -4 12 6 22 13 22 15 0 8 -5 6 -26 -11z"/>
<path d="M515 2750 c3 -5 11 -10 16 -10 6 0 7 5 4 10 -3 6 -11 10 -16 10 -6 0
-7 -4 -4 -10z"/>
<path d="M620 2750 c-9 -6 -10 -10 -3 -10 6 0 15 5 18 10 8 12 4 12 -15 0z"/>
<path d="M817 2743 c4 -9 2 -14 -3 -10 -6 3 -16 1 -24 -4 -11 -7 -8 -8 10 -6
24 4 43 37 21 37 -6 0 -7 -7 -4 -17z"/>
<path d="M854 2749 c-3 -6 -2 -15 3 -20 5 -5 9 -1 9 11 0 23 -2 24 -12 9z"/>
<path d="M360 2740 c0 -5 -5 -9 -12 -7 -6 1 -13 -7 -15 -18 -3 -18 -2 -18 5
-2 4 10 12 18 17 17 5 -1 11 3 13 9 2 6 1 11 -2 11 -3 0 -6 -4 -6 -10z"/>
<path d="M455 2729 c-2 -3 -2 -14 -1 -25 2 -13 10 -18 25 -17 12 2 20 -1 17
-5 -2 -4 0 -14 5 -22 7 -11 8 -8 5 10 -2 18 -9 24 -23 23 -12 -1 -19 5 -20 16
-1 14 4 17 17 14 10 -3 20 -1 23 4 3 4 -6 8 -20 8 -14 0 -26 -3 -28 -6z"/>
<path d="M554 2706 c4 -33 2 -36 -18 -31 -18 5 -19 5 -3 -5 9 -6 21 -9 26 -6
9 6 7 63 -2 73 -4 3 -5 -11 -3 -31z"/>
<path d="M710 2731 c0 -6 4 -13 10 -16 6 -3 7 1 4 9 -7 18 -14 21 -14 7z"/>
<path d="M180 2720 c0 -5 0 -13 1 -16 0 -4 -5 -11 -13 -16 -11 -8 -10 -9 1 -6
13 4 28 48 16 48 -3 0 -5 -4 -5 -10z"/>
<path d="M220 2716 c0 -2 7 -6 15 -10 8 -3 15 -1 15 4 0 6 -7 10 -15 10 -8 0
-15 -2 -15 -4z"/>
<path d="M379 2711 c8 -5 21 -7 29 -3 10 3 13 1 8 -6 -4 -7 -1 -15 8 -18 9 -3
14 -9 12 -13 -3 -4 5 -8 17 -8 19 -2 18 0 -7 16 -15 10 -26 22 -24 27 2 5 -10
10 -27 11 -20 1 -25 -1 -16 -6z"/>
<path d="M510 2710 c0 -5 7 -7 15 -4 8 4 15 8 15 10 0 2 -7 4 -15 4 -8 0 -15
-4 -15 -10z"/>
<path d="M670 2708 c0 -4 7 -8 15 -8 8 0 15 4 15 8 0 5 -7 9 -15 9 -8 0 -15
-4 -15 -9z"/>
<path d="M751 2710 c-9 -5 -4 -7 13 -7 29 0 32 2 13 10 -8 3 -20 2 -26 -3z"/>
<path d="M836 2705 c4 -8 8 -15 10 -15 2 0 4 7 4 15 0 8 -4 15 -10 15 -5 0 -7
-7 -4 -15z"/>
<path d="M201 2703 c-1 -17 16 -25 25 -12 4 7 3 9 -4 5 -5 -3 -13 0 -15 6 -4
9 -6 10 -6 1z"/>
<path d="M796 2695 c-9 -26 -7 -32 5 -12 6 10 9 21 6 23 -2 3 -7 -2 -11 -11z"/>
<path d="M256 2692 c-2 -4 2 -16 10 -27 8 -10 14 -14 14 -9 0 6 -6 16 -12 23
-11 11 -10 13 5 8 9 -4 17 -2 17 3 0 12 -27 13 -34 2z"/>
<path d="M350 2690 c0 -5 7 -6 17 -3 12 5 14 3 8 -7 -5 -9 -4 -11 4 -6 6 4 9
12 6 17 -8 12 -35 12 -35 -1z"/>
<path d="M635 2689 c-4 -6 -4 -13 -1 -16 3 -4 6 -1 6 5 0 7 5 12 11 12 5 0 7
-5 3 -12 -4 -7 -3 -8 5 -4 12 8 6 26 -9 26 -5 0 -12 -5 -15 -11z"/>
<path d="M710 2690 c0 -5 5 -10 10 -10 6 0 10 5 10 10 0 6 -4 10 -10 10 -5 0
-10 -4 -10 -10z"/>
<path d="M330 2681 c0 -10 19 -25 25 -20 1 2 -3 10 -11 17 -8 7 -14 8 -14 3z"/>
<path d="M596 2675 c-3 -8 -1 -15 4 -15 6 0 10 7 10 15 0 8 -2 15 -4 15 -2 0
-6 -7 -10 -15z"/>
<path d="M761 2682 c-1 -8 -6 -10 -13 -6 -10 5 -10 4 -1 -6 15 -16 28 -8 20
12 -4 11 -6 11 -6 0z"/>
<path d="M180 2670 c-12 -7 -10 -9 7 -7 12 0 19 5 17 9 -6 10 -6 10 -24 -2z"/>
<path d="M225 2669 c-6 -8 -4 -10 5 -4 9 5 10 1 6 -16 -6 -21 -6 -22 5 -6 7
13 8 22 1 29 -6 6 -12 6 -17 -3z"/>
<path d="M397 2673 c-12 -11 -8 -23 9 -23 9 0 12 -5 8 -12 -5 -7 -3 -8 6 -3
10 6 10 11 -3 20 -9 7 -14 15 -10 18 3 4 4 7 1 7 -2 0 -8 -3 -11 -7z"/>
<path d="M676 2672 c-2 -4 0 -14 6 -22 8 -12 9 -11 4 3 -5 15 -2 17 17 12 17
-5 19 -4 7 4 -18 13 -27 14 -34 3z"/>
<path d="M810 2668 c0 -4 4 -8 9 -8 6 0 12 4 15 8 3 5 -1 9 -9 9 -8 0 -15 -4
-15 -9z"/>
<path d="M850 2670 c0 -5 5 -10 10 -10 6 0 10 5 10 10 0 6 -4 10 -10 10 -5 0
-10 -4 -10 -10z"/>
<path d="M310 2650 c0 -5 5 -10 10 -10 6 0 10 5 10 10 0 6 -4 10 -10 10 -5 0
-10 -4 -10 -10z"/>
<path d="M477 2653 c-4 -3 -7 -11 -7 -17 0 -6 5 -5 12 2 6 6 9 14 7 17 -3 3
-9 2 -12 -2z"/>
<path d="M555 2644 c-10 -8 -14 -14 -9 -14 6 0 16 6 23 13 10 10 12 7 9 -13
-2 -20 1 -25 20 -25 12 0 23 5 24 10 0 6 8 15 17 22 9 6 13 15 8 19 -4 4 -7 2
-7 -4 0 -7 -5 -12 -11 -12 -5 0 -7 5 -3 12 4 6 3 8 -4 4 -6 -3 -9 -15 -7 -26
3 -14 -2 -20 -15 -20 -13 0 -17 5 -13 19 6 25 -8 32 -32 15z"/>
<path d="M734 2652 c5 -8 -1 -12 -16 -13 l-23 -1 23 -6 c13 -4 23 -11 22 -17
0 -5 10 -11 22 -12 22 -2 22 -2 2 5 -13 4 -20 14 -18 24 1 10 -3 21 -8 25 -7
3 -8 1 -4 -5z"/>
<path d="M776 2653 c-10 -10 -7 -33 4 -33 5 0 6 8 3 18 -6 15 -5 15 10 3 9 -7
17 -9 17 -3 0 12 -26 23 -34 15z"/>
<path d="M190 2635 c0 -8 4 -15 10 -15 5 0 7 7 4 15 -4 8 -8 15 -10 15 -2 0
-4 -7 -4 -15z"/>
<path d="M437 2637 c-3 -8 -2 -20 3 -26 5 -9 8 -4 8 13 0 29 -3 32 -11 13z"/>
<path d="M660 2640 c0 -5 0 -13 1 -16 0 -4 -12 -15 -28 -25 -15 -10 -23 -19
-18 -19 19 1 49 30 52 50 1 11 1 20 -2 20 -3 0 -5 -4 -5 -10z"/>
<path d="M836 2635 c-3 -8 -1 -15 4 -15 6 0 10 7 10 15 0 8 -2 15 -4 15 -2 0
-6 -7 -10 -15z"/>
<path d="M250 2635 c0 -8 29 -12 39 -5 9 5 4 8 -13 8 -14 0 -26 -2 -26 -3z"/>
<path d="M340 2636 c0 -2 7 -6 15 -10 8 -3 15 -1 15 4 0 6 -7 10 -15 10 -8 0
-15 -2 -15 -4z"/>
<path d="M495 2630 c-3 -5 -3 -10 2 -10 4 -1 -3 -7 -16 -14 -20 -11 -21 -14
-7 -19 10 -4 15 -3 11 2 -3 5 0 11 7 13 6 2 12 12 14 21 3 19 -2 22 -11 7z"/>
<path d="M681 2623 c-1 -17 16 -25 25 -12 4 7 3 9 -4 5 -5 -3 -13 0 -15 6 -4
9 -6 10 -6 1z"/>
<path d="M174 2612 c3 -5 0 -13 -6 -15 -9 -4 -10 -6 -1 -6 17 -1 25 16 12 25
-7 4 -9 3 -5 -4z"/>
<path d="M215 2611 c-10 -10 -4 -21 18 -31 20 -10 20 -10 5 3 -18 14 -25 33
-10 23 4 -2 14 -1 22 4 11 7 9 9 -8 7 -13 -1 -25 -3 -27 -6z"/>
<path d="M285 2610 c-5 -8 -4 -11 2 -7 6 4 13 0 17 -8 8 -22 24 -18 36 8 11
21 10 21 -4 3 -16 -19 -16 -19 -29 -1 -11 14 -16 15 -22 5z"/>
<path d="M376 2612 c-2 -4 2 -16 10 -27 8 -10 14 -14 14 -9 0 6 -6 16 -12 23
-11 10 -9 12 7 9 11 -1 24 -7 28 -13 5 -6 7 -4 5 4 -4 15 -44 25 -52 13z"/>
<path d="M800 2605 c-9 -10 -9 -18 0 -32 11 -17 11 -17 6 0 -3 11 -3 24 1 30
4 7 10 2 14 -13 6 -23 7 -23 8 -3 1 28 -13 37 -29 18z"/>
<path d="M850 2600 c-6 -11 -8 -20 -6 -20 3 0 10 9 16 20 6 11 8 20 6 20 -3 0
-10 -9 -16 -20z"/>
<path d="M264 2585 c8 -9 18 -14 21 -13 4 2 11 -5 16 -14 13 -24 26 -23 39 5
11 21 11 22 -5 2 -15 -19 -17 -19 -26 -2 -6 9 -14 15 -19 12 -4 -3 -10 2 -14
10 -3 8 -10 15 -16 15 -7 0 -5 -7 4 -15z"/>
<path d="M356 2587 c3 -10 9 -15 12 -12 3 3 0 11 -7 18 -10 9 -11 8 -5 -6z"/>
<path d="M504 2588 c-3 -4 5 -5 17 -3 30 6 36 14 9 12 -12 -1 -24 -5 -26 -9z"/>
<path d="M567 2589 c7 -7 15 -10 18 -7 3 3 -2 9 -12 12 -14 6 -15 5 -6 -5z"/>
<path d="M700 2590 c-12 -7 -10 -9 8 -7 12 0 22 5 22 9 0 11 -12 10 -30 -2z"/>
<path d="M196 2577 c3 -10 9 -15 12 -12 3 3 0 11 -7 18 -10 9 -11 8 -5 -6z"/>
<path d="M435 2579 c-4 -6 -5 -12 -2 -15 2 -3 7 2 10 11 7 17 1 20 -8 4z"/>
<path d="M164 2569 c-5 -8 -3 -9 6 -4 10 6 12 4 7 -8 -3 -10 -2 -17 3 -17 13
0 13 27 1 35 -5 3 -13 0 -17 -6z"/>
<path d="M457 2573 c-10 -10 -8 -33 3 -33 5 0 6 7 3 17 -5 12 -3 14 7 8 9 -5
11 -4 6 3 -8 14 -10 14 -19 5z"/>
<path d="M539 2578 c-8 -36 -8 -51 0 -38 5 8 7 18 5 22 -3 4 -1 8 5 8 5 0 12
-5 14 -10 3 -6 4 -5 3 2 -2 10 -25 25 -27 16z"/>
<path d="M635 2570 c-4 -6 -4 -14 -1 -17 3 -4 6 -1 6 5 0 7 5 12 11 12 5 0 8
-4 5 -8 -2 -4 0 -14 5 -22 7 -11 8 -9 6 9 -4 27 -21 38 -32 21z"/>
<path d="M739 2578 c-5 -21 -3 -55 4 -51 5 3 7 14 4 24 -4 13 0 19 13 19 13 0
17 -6 13 -19 -3 -10 -1 -21 4 -24 5 -3 8 7 7 21 0 20 -7 28 -22 30 -12 2 -22
2 -23 0z"/>
<path d="M850 2559 c-7 -11 -9 -23 -7 -26 3 -2 8 5 12 16 3 12 11 18 17 15 7
-4 8 -2 4 4 -10 16 -14 15 -26 -9z"/>
<path d="M593 2555 c0 -8 4 -15 9 -15 4 0 8 7 8 15 0 8 -4 15 -8 15 -5 0 -9
-7 -9 -15z"/>
<path d="M214 2549 c-3 -5 -2 -9 3 -9 4 0 -5 -9 -22 -20 -25 -16 -26 -19 -8
-17 12 0 20 4 17 8 -2 4 3 10 12 13 9 3 12 11 8 18 -5 7 -2 9 8 6 8 -4 21 -3
27 2 9 5 4 8 -13 8 -15 0 -29 -4 -32 -9z"/>
<path d="M379 2551 c8 -5 20 -7 28 -4 8 3 13 0 11 -8 -2 -8 7 -14 22 -16 24
-2 24 -2 2 5 -13 4 -22 11 -20 17 2 5 -10 11 -27 12 -20 1 -25 -1 -16 -6z"/>
<path d="M815 2550 c-3 -5 -3 -10 2 -10 4 0 1 -5 -7 -11 -12 -8 -12 -10 -1 -7
8 2 15 12 17 21 3 19 -2 22 -11 7z"/>
<path d="M708 2543 c7 -3 16 -2 19 1 4 3 -2 6 -13 5 -11 0 -14 -3 -6 -6z"/>
<path d="M255 2531 c-3 -5 0 -13 6 -17 8 -5 9 -3 4 6 -6 10 -4 12 8 7 10 -3
17 -2 17 3 0 13 -27 13 -35 1z"/>
<path d="M334 2528 c-7 -11 5 -28 19 -27 9 0 9 2 0 6 -20 7 -15 19 7 20 13 1
18 -2 14 -9 -4 -7 -2 -8 5 -4 6 4 9 11 6 16 -6 10 -45 9 -51 -2z"/>
<path d="M550 2528 c0 -6 7 -8 15 -4 10 4 14 -1 12 -17 -2 -17 3 -21 23 -22
20 0 24 4 22 22 -2 17 1 21 12 17 9 -3 16 -2 16 4 0 6 -8 9 -17 7 -11 -1 -18
-11 -17 -23 0 -14 -5 -20 -17 -19 -11 1 -17 8 -16 20 1 12 -5 21 -15 22 -10 2
-18 -1 -18 -7z"/>
<path d="M292 2514 c-7 -8 -8 -14 -3 -14 10 0 25 19 20 25 -2 1 -10 -3 -17
-11z"/>
<path d="M477 2519 c7 -7 15 -10 18 -7 3 3 -2 9 -12 12 -14 6 -15 5 -6 -5z"/>
<path d="M232 2515 c4 -4 0 -13 -9 -20 -13 -9 -13 -14 -3 -20 9 -5 11 -4 6 3
-4 7 -1 12 8 12 19 0 21 16 4 26 -7 4 -10 4 -6 -1z"/>
<path d="M399 2513 c-1 -5 -1 -12 0 -17 1 -5 -5 -6 -14 -2 -10 3 -13 2 -10 -5
4 -5 16 -7 27 -3 13 4 18 2 14 -4 -3 -6 -2 -13 3 -16 5 -4 8 2 7 11 -2 9 -8
19 -14 21 -7 2 -10 8 -6 13 3 5 3 9 0 9 -3 0 -7 -3 -7 -7z"/>
<path d="M655 2510 c-3 -5 -3 -10 2 -10 4 0 -5 -9 -22 -20 -16 -11 -25 -20
-20 -20 16 1 49 29 51 45 3 17 -2 19 -11 5z"/>
<path d="M690 2510 c-8 -5 -10 -10 -5 -10 6 0 17 5 25 10 8 5 11 10 5 10 -5 0
-17 -5 -25 -10z"/>
<path d="M756 2505 c4 -8 8 -15 10 -15 2 0 4 7 4 15 0 8 -4 15 -10 15 -5 0 -7
-7 -4 -15z"/>
<path d="M820 2510 c-9 -6 -10 -10 -3 -10 6 0 15 5 18 10 8 12 4 12 -15 0z"/>
<path d="M850 2510 c0 -5 5 -10 10 -10 6 0 10 5 10 10 0 6 -4 10 -10 10 -5 0
-10 -4 -10 -10z"/>
<path d="M790 2505 c0 -5 5 -17 10 -25 5 -8 10 -10 10 -5 0 6 -5 17 -10 25 -5
8 -10 11 -10 5z"/>
<path d="M310 2490 c0 -5 5 -10 10 -10 6 0 10 5 10 10 0 6 -4 10 -10 10 -5 0
-10 -4 -10 -10z"/>
<path d="M497 2487 c3 -5 14 -7 24 -4 14 4 19 0 19 -14 0 -12 -5 -16 -15 -13
-8 3 -19 3 -24 0 -14 -9 -3 -33 17 -41 12 -5 12 -1 -4 16 -19 21 -19 21 6 18
21 -3 25 0 25 20 0 19 -5 24 -27 25 -14 1 -24 -2 -21 -7z"/>
<path d="M710 2490 c0 -5 5 -10 10 -10 6 0 10 5 10 10 0 6 -4 10 -10 10 -5 0
-10 -4 -10 -10z"/>
<path d="M190 2475 c0 -8 4 -15 10 -15 5 0 7 7 4 15 -4 8 -8 15 -10 15 -2 0
-4 -7 -4 -15z"/>
<path d="M836 2475 c-3 -8 -1 -15 4 -15 6 0 10 7 10 15 0 8 -2 15 -4 15 -2 0
-6 -7 -10 -15z"/>
<path d="M270 2470 c0 -5 7 -7 15 -4 8 4 15 8 15 10 0 2 -7 4 -15 4 -8 0 -15
-4 -15 -10z"/>
<path d="M340 2476 c0 -2 7 -6 15 -10 8 -3 15 -1 15 4 0 6 -7 10 -15 10 -8 0
-15 -2 -15 -4z"/>
<path d="M470 2470 c-13 -8 -12 -10 3 -10 9 0 17 5 17 10 0 12 -1 12 -20 0z"/>
<path d="M670 2470 c0 -6 7 -10 15 -10 8 0 15 2 15 4 0 2 -7 6 -15 10 -8 3
-15 1 -15 -4z"/>
<path d="M316 2457 c3 -10 9 -15 12 -12 3 3 0 11 -7 18 -10 9 -11 8 -5 -6z"/>
<path d="M575 2461 c-3 -5 0 -13 6 -17 7 -4 9 -3 5 4 -3 5 0 13 6 15 9 4 10 6
1 6 -6 1 -14 -3 -18 -8z"/>
<path d="M715 2459 c-4 -6 -5 -12 -2 -15 2 -3 7 2 10 11 7 17 1 20 -8 4z"/>
<path d="M176 2447 c3 -10 9 -15 12 -12 3 3 0 11 -7 18 -10 9 -11 8 -5 -6z"/>
<path d="M213 2444 c-2 -7 -1 -19 3 -25 5 -9 2 -10 -12 -5 -14 5 -16 4 -7 -5
15 -15 32 -3 26 19 -3 13 2 18 17 19 18 2 19 -1 10 -13 -9 -10 -9 -14 -1 -14
6 0 11 5 11 10 0 6 0 13 0 18 0 13 -41 10 -47 -4z"/>
<path d="M294 2452 c4 -7 2 -12 -4 -12 -7 0 -8 -6 -2 -17 13 -23 51 -24 63 -1
6 12 6 18 -1 18 -5 0 -10 -6 -10 -13 0 -7 -9 -13 -21 -13 -14 0 -19 5 -16 18
3 10 0 21 -5 25 -7 3 -8 1 -4 -5z"/>
<path d="M377 2454 c-8 -8 3 -34 15 -34 6 0 4 8 -3 17 -12 15 -12 16 4 10 9
-3 17 -2 17 3 0 11 -23 14 -33 4z"/>
<path d="M635 2449 c-4 -6 -4 -13 -1 -16 3 -4 6 -1 6 5 0 7 5 12 11 12 5 0 7
-5 3 -12 -4 -7 -3 -8 5 -4 12 8 6 26 -9 26 -5 0 -12 -5 -15 -11z"/>
<path d="M733 2447 c-3 -5 -2 -11 1 -14 3 -4 6 -1 6 6 0 7 4 10 8 7 4 -2 14
-1 22 4 11 7 9 9 -8 7 -13 -1 -26 -5 -29 -10z"/>
<path d="M796 2449 c3 -5 9 -7 14 -4 4 3 11 0 13 -5 3 -6 4 -5 3 1 -1 7 -10
13 -19 15 -9 1 -15 -2 -11 -7z"/>
<path d="M417 2431 c-3 -11 -2 -22 1 -25 9 -10 32 -7 32 4 0 5 -6 7 -14 4 -11
-4 -13 0 -9 15 3 12 3 21 0 21 -2 0 -7 -9 -10 -19z"/>
<path d="M596 2435 c-3 -8 -1 -15 4 -15 6 0 10 7 10 15 0 8 -2 15 -4 15 -2 0
-6 -7 -10 -15z"/>
<path d="M460 2425 c0 -8 2 -15 4 -15 2 0 6 7 10 15 3 8 1 15 -4 15 -6 0 -10
-7 -10 -15z"/>
<path d="M552 2423 c2 -10 10 -17 17 -15 9 2 11 -3 8 -13 -4 -8 -2 -15 4 -15
6 0 9 8 7 18 -2 9 -10 16 -17 14 -9 -2 -11 3 -8 13 4 8 2 15 -4 15 -6 0 -9 -8
-7 -17z"/>
<path d="M676 2432 c-2 -4 0 -14 6 -22 8 -12 9 -11 4 3 -5 15 -2 17 17 12 17
-5 19 -4 7 4 -18 13 -27 14 -34 3z"/>
<path d="M780 2430 c8 -5 20 -10 25 -10 6 0 3 5 -5 10 -8 5 -19 10 -25 10 -5
0 -3 -5 5 -10z"/>
<path d="M752 2422 c2 -8 8 -13 13 -12 6 1 13 -9 17 -22 l7 -23 -2 23 c-1 12
-6 22 -11 22 -5 -1 -13 4 -18 12 -8 11 -9 11 -6 0z"/>
<path d="M273 2394 c0 -17 2 -22 7 -13 5 6 6 18 3 26 -8 19 -10 16 -10 -13z"/>
<path d="M470 2395 c-7 -13 -18 -23 -24 -22 -6 1 -11 -8 -11 -20 0 -13 4 -23
9 -22 5 0 17 -12 27 -27 16 -25 18 -26 16 -7 0 12 -4 20 -8 17 -4 -2 -10 3
-13 12 -3 8 -10 12 -16 9 -5 -3 -10 3 -10 15 0 12 5 18 10 15 6 -3 13 1 16 9
3 9 9 14 13 12 4 -3 8 4 8 15 2 25 -1 24 -17 -6z"/>
<path d="M630 2399 c-14 -10 -20 -19 -15 -20 6 0 -1 -5 -15 -10 l-25 -8 25 2
c14 1 24 7 23 13 -1 5 7 15 17 22 16 10 18 8 17 -8 -1 -11 -7 -22 -14 -24 -16
-6 -17 -26 -2 -26 5 0 8 4 5 9 -4 5 -1 11 6 13 13 5 21 45 10 52 -4 2 -19 -4
-32 -15z"/>
<path d="M814 2409 c-3 -6 -2 -15 4 -21 6 -6 12 -6 17 3 6 8 4 10 -5 4 -10 -6
-12 -4 -7 8 7 19 2 23 -9 6z"/>
<path d="M236 2389 c2 -4 -2 -10 -8 -12 -8 -4 -7 -6 3 -6 9 -1 19 5 22 12 3 8
-1 14 -9 14 -7 0 -11 -4 -8 -8z"/>
<path d="M356 2385 c4 -8 8 -15 10 -15 2 0 4 7 4 15 0 8 -4 15 -10 15 -5 0 -7
-7 -4 -15z"/>
<path d="M394 2389 c-3 -6 -1 -16 5 -22 9 -9 11 -8 5 6 -5 13 -2 16 10 11 9
-3 16 -4 16 -1 0 11 -30 16 -36 6z"/>
<path d="M500 2395 c0 -8 29 -12 39 -5 9 5 4 8 -13 8 -14 0 -26 -2 -26 -3z"/>
<path d="M700 2396 c0 -2 7 -6 15 -10 8 -3 15 -1 15 4 0 6 -7 10 -15 10 -8 0
-15 -2 -15 -4z"/>
<path d="M295 2381 c-12 -20 35 -25 52 -6 4 4 3 5 -4 2 -6 -4 -14 -1 -16 5 -4
10 -6 10 -6 1 -1 -7 -6 -13 -12 -13 -5 0 -7 5 -4 10 3 6 4 10 1 10 -3 0 -7 -4
-11 -9z"/>
<path d="M496 2372 c-7 -11 -2 -40 9 -49 4 -4 5 -3 2 4 -4 6 -1 14 5 16 10 4
10 6 1 6 -7 1 -13 6 -13 12 0 5 5 7 12 3 7 -4 8 -3 4 4 -8 14 -13 15 -20 4z"/>
<path d="M684 2364 c-18 -14 -18 -15 4 -4 12 6 22 13 22 15 0 8 -5 6 -26 -11z"/>
<path d="M735 2371 c-3 -5 0 -13 6 -17 8 -5 9 -3 4 6 -6 10 -4 12 8 7 10 -3
17 -2 17 3 0 13 -27 13 -35 1z"/>
<path d="M215 2350 c3 -5 8 -10 11 -10 2 0 4 5 4 10 0 6 -5 10 -11 10 -5 0 -7
-4 -4 -10z"/>
<path d="M246 2352 c-3 -5 1 -9 9 -9 8 0 15 4 15 9 0 4 -4 8 -9 8 -6 0 -12 -4
-15 -8z"/>
<path d="M370 2350 c0 -5 5 -10 10 -10 6 0 10 5 10 10 0 6 -4 10 -10 10 -5 0
-10 -4 -10 -10z"/>
<path d="M534 2345 c3 -23 13 -28 33 -15 16 10 16 10 -4 5 -18 -5 -22 -3 -17
9 3 9 2 16 -4 16 -6 0 -9 -7 -8 -15z"/>
<path d="M710 2351 c0 -5 5 -13 10 -16 6 -3 10 -2 10 4 0 5 -4 13 -10 16 -5 3
-10 2 -10 -4z"/>
<path d="M764 2344 c-18 -14 -18 -15 4 -4 12 6 22 13 22 15 0 8 -5 6 -26 -11z"/>
<path d="M396 2333 c-9 -22 5 -35 24 -22 12 9 12 10 -3 5 -15 -5 -17 -2 -12
14 8 24 0 27 -9 3z"/>
<path d="M602 2337 c10 -8 15 -16 13 -19 -3 -3 5 -12 19 -21 13 -9 26 -13 30
-10 10 10 7 33 -4 33 -5 0 -7 -7 -3 -16 5 -14 3 -14 -15 -3 -11 7 -19 16 -16
20 2 5 -6 13 -18 19 -21 10 -21 10 -6 -3z"/>
<path d="M299 2337 c0 -1 -2 -13 -5 -27 -3 -18 -2 -21 5 -10 5 8 7 18 5 22 -3
4 -1 8 5 8 5 0 12 -6 14 -12 4 -10 6 -10 6 0 1 8 6 10 14 6 6 -4 9 -3 4 1 -7
8 -46 18 -48 12z"/>
<path d="M678 2332 c13 -4 23 -11 22 -17 -1 -5 4 -11 12 -13 11 -3 11 -2 0 6
-8 5 -12 13 -10 18 1 5 -8 10 -22 11 -24 2 -24 2 -2 -5z"/>
<path d="M356 2315 c-3 -8 -1 -15 4 -15 6 0 10 7 10 15 0 8 -2 15 -4 15 -2 0
-6 -7 -10 -15z"/>
<path d="M510 2310 c-13 -8 -12 -10 3 -10 9 0 17 5 17 10 0 12 -1 12 -20 0z"/>
<path d="M576 2305 c4 -10 0 -13 -15 -10 -11 2 -24 -1 -27 -7 -4 -7 -2 -8 4
-4 12 7 16 -4 13 -34 -2 -13 0 -13 8 -1 5 8 7 20 4 28 -3 8 0 13 8 11 7 -2 15
5 17 15 2 9 -1 17 -7 17 -6 0 -8 -7 -5 -15z"/>
<path d="M730 2310 c0 -5 5 -10 10 -10 6 0 10 5 10 10 0 6 -4 10 -10 10 -5 0
-10 -4 -10 -10z"/>
<path d="M310 2288 c0 -6 7 -7 16 -4 12 5 15 2 10 -9 -3 -9 -2 -14 3 -11 5 3
12 -1 15 -10 3 -9 11 -12 18 -8 8 5 9 2 4 -12 -6 -15 -5 -17 5 -6 10 9 10 15
1 24 -7 7 -12 8 -12 3 -1 -6 -7 1 -14 14 -14 25 -46 38 -46 19z"/>
<path d="M376 2291 c-3 -5 1 -14 9 -21 10 -9 15 -9 15 -1 0 6 -5 11 -11 11 -5
0 -7 5 -4 10 3 6 4 10 1 10 -3 0 -7 -4 -10 -9z"/>
<path d="M417 2293 c-11 -23 0 -46 23 -50 18 -2 21 -1 10 6 -8 5 -17 8 -21 5
-4 -2 -7 5 -6 16 1 12 6 19 14 16 7 -3 13 -1 13 4 0 12 -27 13 -33 3z"/>
<path d="M599 2288 c-1 -7 -1 -19 0 -27 2 -7 -2 -10 -7 -7 -9 6 -42 -35 -42
-51 0 -4 9 5 19 20 10 16 22 28 27 28 5 -1 10 10 11 24 2 25 -6 37 -8 13z"/>
<path d="M456 2275 c-3 -8 -1 -15 4 -15 6 0 10 7 10 15 0 8 -2 15 -4 15 -2 0
-6 -7 -10 -15z"/>
<path d="M495 2270 c-3 -5 -3 -10 1 -10 4 0 -1 -7 -12 -15 -18 -14 -18 -16 -2
-28 10 -8 14 -18 10 -22 -4 -5 -1 -5 7 0 11 7 11 11 -5 22 -18 13 -18 15 -1
24 9 6 15 15 11 21 -4 6 2 8 17 3 19 -5 21 -4 9 4 -19 13 -27 14 -35 1z"/>
<path d="M630 2273 c5 -2 8 -9 4 -14 -3 -5 0 -9 6 -9 15 0 7 23 -8 26 -7 1 -8
0 -2 -3z"/>
<path d="M673 2266 c0 -8 6 -12 14 -9 7 3 10 9 7 14 -8 14 -21 11 -21 -5z"/>
<path d="M510 2232 c0 -5 7 -9 15 -9 8 0 15 4 15 9 0 4 -7 8 -15 8 -8 0 -15
-4 -15 -8z"/>
<path d="M610 2236 c0 -2 7 -7 16 -10 8 -3 12 -2 9 4 -6 10 -25 14 -25 6z"/>
<path d="M650 2229 c0 -5 5 -7 10 -4 6 3 10 8 10 11 0 2 -4 4 -10 4 -5 0 -10
-5 -10 -11z"/>
<path d="M415 2221 c-3 -5 0 -13 6 -17 8 -4 9 -3 5 4 -9 15 -1 15 27 1 21 -10
21 -10 3 5 -23 18 -32 20 -41 7z"/>
<path d="M590 2210 c0 -5 7 -7 15 -4 8 4 15 8 15 10 0 2 -7 4 -15 4 -8 0 -15
-4 -15 -10z"/>
<path d="M2813 1466 c1 -11 11 -20 24 -22 29 -5 37 10 15 27 -16 13 -16 12 -3
-4 14 -17 13 -18 -5 -15 -10 1 -22 10 -26 18 -6 11 -7 10 -5 -4z"/>
<path d="M2901 1467 c-1 -11 -6 -15 -13 -11 -7 5 -8 3 -3 -5 10 -16 29 2 22
21 -4 8 -6 7 -6 -5z"/>
<path d="M2928 1466 c5 -11 17 -21 26 -22 9 -1 13 2 10 8 -3 5 -8 7 -12 4 -3
-3 -11 2 -19 12 -13 16 -14 16 -5 -2z"/>
<path d="M2793 1443 c0 -12 3 -20 6 -18 2 3 10 -3 18 -13 13 -16 13 -15 4 3
-22 43 -30 51 -28 28z"/>
<path d="M2990 1450 c-12 -7 -10 -9 7 -7 12 0 19 5 17 9 -6 10 -6 10 -24 -2z"/>
<path d="M3030 1451 c0 -6 4 -13 10 -16 6 -3 7 1 4 9 -7 18 -14 21 -14 7z"/>
<path d="M2750 1430 c0 -5 7 -7 15 -4 8 4 15 8 15 10 0 2 -7 4 -15 4 -8 0 -15
-4 -15 -10z"/>
<path d="M2860 1429 c-12 -9 -12 -10 3 -5 15 5 17 2 12 -17 -5 -20 -5 -20 6
-4 14 23 0 40 -21 26z"/>
<path d="M2910 1425 c0 -8 2 -15 4 -15 2 0 6 7 10 15 3 8 1 15 -4 15 -6 0 -10
-7 -10 -15z"/>
<path d="M2710 1420 c0 -5 6 -10 13 -10 7 0 13 -8 14 -19 1 -13 -3 -17 -17
-14 -21 6 -36 -12 -19 -23 8 -5 9 -3 4 5 -5 9 0 12 16 9 19 -2 24 2 25 20 1
13 -7 27 -17 33 -13 6 -19 6 -19 -1z"/>
<path d="M2950 1422 c0 -6 9 -12 20 -15 11 -3 20 -3 20 -1 0 2 -9 8 -20 14
-11 6 -20 7 -20 2z"/>
<path d="M2998 1423 c7 -3 16 -2 19 1 4 3 -2 6 -13 5 -11 0 -14 -3 -6 -6z"/>
<path d="M3068 1423 c7 -3 16 -2 19 1 4 3 -2 6 -13 5 -11 0 -14 -3 -6 -6z"/>
<path d="M2774 1412 c4 -7 1 -12 -6 -12 -8 0 -5 -5 5 -11 14 -8 22 -8 30 1 9
8 7 9 -7 4 -13 -5 -17 -4 -12 4 3 6 1 14 -5 18 -8 4 -9 3 -5 -4z"/>
<path d="M3030 1410 c0 -5 5 -10 10 -10 6 0 10 5 10 10 0 6 -4 10 -10 10 -5 0
-10 -4 -10 -10z"/>
<path d="M2836 1395 c-3 -8 -1 -15 4 -15 6 0 10 7 10 15 0 8 -2 15 -4 15 -2 0
-6 -7 -10 -15z"/>
<path d="M3110 1401 c0 -6 4 -13 10 -16 6 -3 7 1 4 9 -7 18 -14 21 -14 7z"/>
<path d="M2657 1388 c-7 -5 0 -6 17 -4 16 3 31 7 33 10 8 8 -37 2 -50 -6z"/>
<path d="M2930 1395 c0 -7 30 -13 34 -7 3 4 -4 9 -15 9 -10 1 -19 0 -19 -2z"/>
<path d="M3010 1393 c17 -8 11 -19 -10 -20 -13 -1 -18 2 -14 9 4 7 2 8 -5 4
-17 -11 -3 -26 22 -22 24 3 31 28 9 32 -7 1 -8 0 -2 -3z"/>
<path d="M3055 1390 c-3 -6 1 -7 9 -4 18 7 21 14 7 14 -6 0 -13 -4 -16 -10z"/>
<path d="M3095 1380 c6 -10 4 -12 -8 -7 -10 3 -17 2 -17 -3 0 -13 27 -13 35
-1 3 5 0 13 -6 17 -8 5 -9 3 -4 -6z"/>
<path d="M2757 1367 c-3 -8 -2 -20 3 -26 5 -9 8 -4 8 13 0 29 -3 32 -11 13z"/>
<path d="M2804 1369 c-5 -8 -3 -9 6 -4 10 6 12 4 7 -8 -3 -10 -2 -17 3 -17 13
0 13 27 1 35 -5 3 -13 0 -17 -6z"/>
<path d="M2918 1372 c13 -4 23 -11 23 -17 0 -5 12 -11 27 -12 19 -2 23 0 13 6
-8 5 -20 7 -28 4 -8 -3 -13 0 -11 8 2 8 -7 14 -22 16 -24 2 -24 2 -2 -5z"/>
<path d="M3139 1373 c-1 -5 -1 -12 0 -17 1 -5 -5 -6 -14 -3 -8 4 -15 2 -15 -4
0 -18 33 -5 36 14 1 9 0 17 -2 17 -2 0 -5 -3 -5 -7z"/>
<path d="M2637 1363 c-11 -11 -8 -20 7 -20 8 0 12 6 9 14 -6 15 -7 15 -16 6z"/>
<path d="M2673 1344 c0 -17 2 -22 7 -13 5 6 6 18 3 26 -8 19 -10 16 -10 -13z"/>
<path d="M3054 1345 c1 -11 7 -19 14 -17 6 1 12 -5 12 -13 0 -8 5 -15 10 -15
7 0 7 7 0 20 -6 11 -15 18 -20 15 -5 -3 -10 3 -13 12 -3 14 -4 13 -3 -2z"/>
<path d="M2790 1340 c6 -11 13 -20 16 -20 2 0 0 9 -6 20 -6 11 -13 20 -16 20
-2 0 0 -9 6 -20z"/>
<path d="M2855 1350 c-3 -5 -3 -10 2 -11 4 -1 -3 -5 -17 -10 l-25 -8 25 2 c14
1 23 6 22 11 -2 5 2 13 10 17 9 6 9 9 1 9 -6 0 -15 -4 -18 -10z"/>
<path d="M2897 1343 c5 -12 3 -14 -7 -8 -9 5 -11 4 -6 -4 4 -6 12 -9 17 -6 12
8 12 35 -1 35 -5 0 -6 -7 -3 -17z"/>
<path d="M3020 1340 c-6 -11 -8 -20 -6 -20 3 0 10 9 16 20 6 11 8 20 6 20 -3
0 -10 -9 -16 -20z"/>
<path d="M2735 1341 c5 -9 0 -12 -16 -9 -17 2 -25 -3 -27 -16 -6 -28 12 -40
29 -19 13 16 12 17 -3 4 -16 -12 -18 -11 -18 7 0 15 5 19 19 15 22 -6 37 12
20 23 -8 5 -9 3 -4 -5z"/>
<path d="M3170 1341 c0 -6 4 -13 10 -16 6 -3 7 1 4 9 -7 18 -14 21 -14 7z"/>
<path d="M2605 1330 c-4 -6 -1 -18 7 -27 11 -14 11 -16 -3 -11 -9 3 -22 3 -28
-2 -9 -5 -4 -7 13 -7 28 0 43 12 26 22 -5 3 -10 11 -10 16 0 6 5 7 12 3 7 -4
8 -3 4 4 -9 15 -13 15 -21 2z"/>
<path d="M2917 1325 c-6 -15 10 -32 20 -21 4 3 1 6 -5 6 -6 0 -9 7 -6 15 4 8
4 15 1 15 -3 0 -7 -7 -10 -15z"/>
<path d="M3150 1331 c0 -10 29 -36 34 -30 1 2 -6 12 -16 22 -10 9 -18 13 -18
8z"/>
<path d="M2961 1325 c-1 -19 17 -39 38 -42 23 -3 37 12 20 23 -8 5 -9 3 -5 -5
6 -8 2 -11 -10 -9 -11 2 -24 12 -31 23 -7 11 -12 16 -12 10z"/>
<path d="M2640 1310 c0 -5 5 -10 10 -10 6 0 10 5 10 10 0 6 -4 10 -10 10 -5 0
-10 -4 -10 -10z"/>
<path d="M2780 1310 c8 -5 20 -10 25 -10 6 0 3 5 -5 10 -8 5 -19 10 -25 10 -5
0 -3 -5 5 -10z"/>
<path d="M2873 1313 c4 -6 1 -13 -7 -16 -7 -3 -13 -16 -12 -29 1 -17 6 -22 21
-20 14 2 21 -3 22 -16 1 -11 -6 -18 -18 -19 -12 -1 -17 3 -13 9 4 7 2 8 -5 4
-17 -11 -3 -26 22 -22 31 4 31 51 0 50 -15 0 -21 5 -20 18 1 10 7 18 14 18 16
0 17 16 1 26 -6 4 -8 3 -5 -3z"/>
<path d="M3040 1300 c9 -17 30 -20 30 -4 0 3 -4 2 -10 -1 -5 -3 -10 1 -10 9 0
9 -5 16 -10 16 -7 0 -7 -7 0 -20z"/>
<path d="M3129 1302 c5 -10 20 -18 33 -19 17 -2 19 0 8 7 -8 5 -18 6 -22 4 -4
-3 -8 2 -8 10 0 9 -5 16 -10 16 -7 0 -7 -6 -1 -18z"/>
<path d="M2758 1292 c13 -4 22 -11 20 -17 -2 -5 8 -11 22 -12 24 -2 24 -2 2 5
-13 4 -22 12 -20 17 2 6 -8 11 -22 12 -24 2 -24 2 -2 -5z"/>
<path d="M2814 1289 c-4 -7 -3 -9 4 -5 5 3 13 0 15 -6 4 -9 6 -10 6 -1 1 17
-16 25 -25 12z"/>
<path d="M2953 1283 c0 -12 4 -20 8 -17 4 2 10 -3 13 -12 3 -9 11 -12 18 -8 7
5 9 2 6 -8 -4 -8 -2 -21 3 -29 6 -10 8 -5 6 14 -1 15 -6 27 -11 26 -5 0 -17
12 -27 27 -16 25 -18 26 -16 7z"/>
<path d="M3113 1281 c0 -11 5 -18 9 -15 4 3 5 11 1 19 -7 21 -12 19 -10 -4z"/>
<path d="M2620 1269 c-12 -9 -12 -10 3 -5 15 5 17 2 12 -17 -5 -20 -5 -20 6
-4 14 23 0 40 -21 26z"/>
<path d="M2670 1265 c0 -8 2 -15 4 -15 2 0 6 7 10 15 3 8 1 15 -4 15 -6 0 -10
-7 -10 -15z"/>
<path d="M2737 1263 c6 -16 5 -17 -12 -3 -15 12 -17 12 -10 1 6 -11 4 -13 -9
-8 -10 4 -15 3 -11 -3 9 -15 50 -5 53 13 2 10 -1 17 -7 17 -6 0 -7 -8 -4 -17z"/>
<path d="M2890 1275 c0 -8 29 -12 39 -5 9 5 4 8 -13 8 -14 0 -26 -2 -26 -3z"/>
<path d="M3020 1270 c-9 -6 -10 -10 -3 -10 6 0 15 5 18 10 8 12 4 12 -15 0z"/>
<path d="M3070 1270 c0 -5 7 -7 15 -4 8 4 15 8 15 10 0 2 -7 4 -15 4 -8 0 -15
-4 -15 -10z"/>
<path d="M3180 1270 c-8 -5 -10 -10 -5 -10 6 0 17 5 25 10 8 5 11 10 5 10 -5
0 -17 -5 -25 -10z"/>
<path d="M2573 1260 c2 -8 10 -14 16 -12 6 1 11 -7 11 -19 0 -11 -4 -18 -9
-15 -9 6 -41 -35 -41 -51 0 -4 9 5 19 20 10 16 22 28 27 28 5 -1 9 8 9 19 0
11 -4 20 -9 19 -5 0 -13 5 -18 13 -8 10 -9 10 -5 -2z"/>
<path d="M3135 1261 c-3 -5 0 -13 6 -17 7 -4 9 -3 5 4 -3 5 0 13 6 15 9 4 10
6 1 6 -6 1 -14 -3 -18 -8z"/>
<path d="M2834 1247 c5 -15 2 -17 -17 -12 -20 5 -20 5 -4 -6 23 -14 40 0 26
21 -9 12 -10 12 -5 -3z"/>
<path d="M2925 1250 c-5 -9 -4 -11 3 -6 7 4 12 1 12 -8 0 -19 16 -21 26 -3 4
6 4 9 -1 5 -4 -4 -13 0 -20 9 -9 13 -14 13 -20 3z"/>
<path d="M3030 1238 c-10 -21 -10 -21 3 -5 14 17 33 24 23 9 -2 -4 0 -14 5
-22 7 -11 8 -9 6 9 -5 33 -23 38 -37 9z"/>
<path d="M3115 1240 c5 -9 1 -10 -16 -6 -21 6 -22 6 -6 -5 13 -7 22 -8 29 -1
6 6 6 12 -3 17 -8 6 -10 4 -4 -5z"/>
<path d="M3156 1235 c-3 -8 -1 -15 4 -15 6 0 10 7 10 15 0 8 -2 15 -4 15 -2 0
-6 -7 -10 -15z"/>
<path d="M3190 1240 c0 -5 5 -10 11 -10 5 0 7 5 4 10 -3 6 -8 10 -11 10 -2 0
-4 -4 -4 -10z"/>
<path d="M2650 1230 c0 -5 5 -10 10 -10 6 0 10 5 10 10 0 6 -4 10 -10 10 -5 0
-10 -4 -10 -10z"/>
<path d="M2753 1226 c0 -8 6 -12 14 -9 7 3 10 9 7 14 -8 14 -21 11 -21 -5z"/>
<path d="M2720 1221 c0 -7 -4 -10 -9 -6 -5 3 -13 0 -17 -6 -4 -8 -3 -9 4 -5 7
4 12 1 12 -6 0 -8 5 -6 11 5 6 10 8 21 5 24 -3 4 -6 1 -6 -6z"/>
<path d="M2636 1207 c5 -14 2 -16 -12 -11 -16 5 -16 4 -4 -5 20 -14 39 4 21
22 -10 10 -11 9 -5 -6z"/>
<path d="M2790 1210 c0 -5 5 -10 10 -10 6 0 10 5 10 10 0 6 -4 10 -10 10 -5 0
-10 -4 -10 -10z"/>
<path d="M2964 1209 c-5 -8 -3 -9 6 -4 10 6 12 4 7 -8 -3 -10 -2 -17 3 -17 13
0 13 27 1 35 -5 3 -13 0 -17 -6z"/>
<path d="M3032 1204 c-7 -7 -12 -17 -11 -21 0 -4 -8 -11 -18 -15 -17 -7 -17
-8 0 -5 10 1 18 6 17 10 -1 5 7 15 17 22 10 7 16 16 13 18 -3 3 -11 -1 -18 -9z"/>
<path d="M3077 1207 c-3 -8 -2 -20 3 -26 5 -9 8 -4 8 13 0 29 -3 32 -11 13z"/>
<path d="M3115 1204 c-10 -8 -14 -14 -9 -14 6 0 16 6 23 13 11 10 13 9 8 -5
-4 -10 -2 -18 3 -18 12 0 13 27 2 34 -4 2 -16 -2 -27 -10z"/>
<path d="M3177 1213 c-2 -5 -3 -15 -2 -23 0 -8 -9 -18 -20 -22 -17 -6 -16 -7
5 -5 14 1 23 6 22 11 -2 5 2 13 10 17 10 7 10 9 0 9 -7 0 -10 5 -7 10 3 6 4
10 1 10 -3 0 -7 -3 -9 -7z"/>
<path d="M3210 1213 c5 -2 8 -8 6 -12 -3 -4 0 -13 5 -21 7 -11 8 -9 6 9 -2 14
-9 26 -16 27 -6 1 -7 0 -1 -3z"/>
<path d="M2670 1195 c0 -8 4 -15 10 -15 5 0 7 7 4 15 -4 8 -8 15 -10 15 -2 0
-4 -7 -4 -15z"/>
<path d="M2730 1195 c0 -8 29 -12 39 -5 9 5 4 8 -13 8 -14 0 -26 -2 -26 -3z"/>
<path d="M2820 1192 c0 -5 7 -9 15 -9 8 0 15 4 15 9 0 4 -7 8 -15 8 -8 0 -15
-4 -15 -8z"/>
<path d="M2916 1185 c4 -8 8 -15 10 -15 2 0 4 7 4 15 0 8 -4 15 -10 15 -5 0
-7 -7 -4 -15z"/>
<path d="M2796 1177 c3 -10 9 -15 12 -12 3 3 0 11 -7 18 -10 9 -11 8 -5 -6z"/>
<path d="M2871 1181 c-17 -11 -24 -41 -9 -41 6 0 7 7 4 16 -4 12 -1 14 13 9
11 -3 22 -1 26 4 4 7 -1 8 -11 4 -12 -4 -15 -3 -10 5 9 14 6 15 -13 3z"/>
<path d="M2950 1181 c0 -10 19 -25 25 -20 1 2 -3 10 -11 17 -8 7 -14 8 -14 3z"/>
<path d="M3053 1185 c4 -5 -5 -17 -20 -27 -16 -10 -23 -18 -18 -18 6 0 21 9
34 19 19 14 21 20 10 26 -8 5 -11 4 -6 0z"/>
<path d="M2590 1170 c0 -5 7 -7 16 -3 14 5 14 3 3 -15 -7 -11 -18 -20 -23 -19
-6 1 -11 -7 -12 -18 -1 -15 0 -16 3 -2 3 9 8 15 13 12 10 -6 41 40 33 49 -10
10 -33 7 -33 -4z"/>
<path d="M2685 1153 c-21 -32 -19 -43 3 -13 9 14 26 27 36 28 18 3 19 2 5 -15
-13 -16 -13 -17 3 -4 10 7 15 17 13 21 -10 16 -46 6 -60 -17z"/>
<path d="M2765 1169 c-5 -8 -4 -10 3 -5 7 4 12 3 12 -3 0 -5 -6 -12 -12 -14
-10 -4 -10 -6 -1 -6 17 -1 27 19 15 31 -6 6 -12 6 -17 -3z"/>
<path d="M3188 1158 c-10 -10 -14 -18 -9 -18 10 0 36 29 30 34 -2 1 -12 -6
-21 -16z"/>
<path d="M2562 1150 c-18 -29 -15 -38 4 -12 9 13 14 25 12 27 -2 2 -9 -5 -16
-15z"/>
<path d="M2640 1150 c0 -5 5 -10 10 -10 6 0 10 5 10 10 0 6 -4 10 -10 10 -5 0
-10 -4 -10 -10z"/>
<path d="M2815 1149 c-9 -14 0 -22 28 -26 17 -2 19 -1 7 6 -8 5 -18 7 -22 5
-4 -3 -8 -1 -8 5 0 5 6 12 13 14 9 4 9 6 0 6 -6 1 -15 -4 -18 -10z"/>
<path d="M2897 1148 c-7 -5 0 -6 17 -4 16 3 31 7 33 10 8 8 -37 2 -50 -6z"/>
<path d="M3058 1149 c-6 -4 4 -6 21 -5 17 0 31 4 31 8 0 8 -37 6 -52 -3z"/>
<path d="M3215 1150 c-3 -5 -3 -10 2 -11 4 0 -1 -5 -12 -10 -19 -8 -19 -9 -1
-6 11 1 20 10 22 20 3 19 -2 22 -11 7z"/>
<path d="M2695 1129 c-2 -3 -2 -14 -1 -25 2 -13 10 -18 25 -17 12 2 20 -1 17
-5 -2 -4 0 -14 5 -22 7 -11 8 -8 5 10 -2 18 -9 24 -23 23 -12 -1 -19 5 -20 16
-1 14 4 17 17 14 10 -3 20 -1 23 4 3 4 -6 8 -20 8 -14 0 -26 -3 -28 -6z"/>
<path d="M2790 1131 c0 -6 4 -13 10 -16 6 -3 7 1 4 9 -7 18 -14 21 -14 7z"/>
<path d="M2937 1133 c-3 -5 8 -8 23 -8 15 0 26 3 23 8 -2 4 -13 7 -23 7 -10 0
-21 -3 -23 -7z"/>
<path d="M3115 1130 c-4 -6 -4 -14 -1 -17 3 -4 6 -1 6 5 0 7 5 12 11 12 5 0 8
-4 4 -9 -3 -5 -1 -12 4 -15 5 -4 8 2 7 11 -3 21 -22 28 -31 13z"/>
<path d="M2875 1120 c3 -5 8 -10 11 -10 2 0 4 5 4 10 0 6 -5 10 -11 10 -5 0
-7 -4 -4 -10z"/>
<path d="M2913 1104 c0 -17 2 -22 7 -13 5 6 6 18 3 26 -8 19 -10 16 -10 -13z"/>
<path d="M2997 1117 c-3 -8 -2 -20 3 -26 5 -9 8 -4 8 13 0 29 -3 32 -11 13z"/>
<path d="M3030 1120 c0 -5 5 -10 10 -10 6 0 10 5 10 10 0 6 -4 10 -10 10 -5 0
-10 -4 -10 -10z"/>
<path d="M3070 1115 c0 -8 4 -15 10 -15 5 0 7 7 4 15 -4 8 -8 15 -10 15 -2 0
-4 -7 -4 -15z"/>
<path d="M2610 1115 c0 -8 29 -12 39 -5 9 5 4 8 -13 8 -14 0 -26 -2 -26 -3z"/>
<path d="M2750 1110 c0 -5 7 -7 15 -4 8 4 15 8 15 10 0 2 -7 4 -15 4 -8 0 -15
-4 -15 -10z"/>
<path d="M3220 1110 c-12 -7 -10 -9 7 -7 12 0 19 5 17 9 -6 10 -6 10 -24 -2z"/>
<path d="M2590 1090 c0 -5 7 -6 17 -3 12 5 14 3 8 -7 -5 -9 -4 -11 4 -6 6 4 9
12 6 17 -8 12 -35 12 -35 -1z"/>
<path d="M2662 1087 c10 -8 16 -16 13 -18 -2 -3 6 -6 18 -6 23 -2 15 6 -28 28
-18 9 -19 9 -3 -4z"/>
<path d="M2794 1084 c5 -12 1 -14 -17 -9 -20 5 -20 5 -4 -5 10 -7 21 -9 25 -6
10 11 11 36 0 36 -6 0 -7 -7 -4 -16z"/>
<path d="M2934 1088 c-3 -4 0 -16 6 -25 10 -16 10 -16 5 2 -4 16 0 21 15 21
15 0 19 -5 15 -21 -6 -19 -5 -19 5 -2 7 10 9 21 6 25 -10 9 -46 10 -52 0z"/>
<path d="M3056 1072 c1 -22 6 -27 25 -27 19 1 23 6 22 22 -2 16 2 21 12 17 8
-4 15 -2 15 4 0 6 -8 9 -17 7 -11 -1 -17 -10 -16 -22 1 -12 -5 -19 -16 -20
-14 -1 -17 4 -14 17 3 10 1 20 -4 23 -5 3 -8 -7 -7 -21z"/>
<path d="M2836 1075 c-3 -8 -1 -15 4 -15 6 0 10 7 10 15 0 8 -2 15 -4 15 -2 0
-6 -7 -10 -15z"/>
<path d="M2870 1080 c0 -5 7 -10 15 -10 8 0 14 -5 13 -12 -2 -6 5 -14 15 -16
9 -2 17 1 17 7 0 6 -7 7 -17 4 -10 -4 -14 -2 -9 5 3 6 -3 16 -14 22 -13 7 -20
7 -20 0z"/>
<path d="M2577 1069 c7 -7 15 -10 18 -7 3 3 -2 9 -12 12 -14 6 -15 5 -6 -5z"/>
<path d="M2637 1073 c-12 -12 -7 -21 16 -26 20 -5 20 -5 5 7 -10 7 -15 16 -11
19 3 4 4 7 1 7 -2 0 -8 -3 -11 -7z"/>
<path d="M3019 1073 c-1 -5 -1 -12 0 -17 1 -5 -5 -6 -14 -3 -8 4 -15 2 -15 -4
0 -6 8 -9 17 -7 9 2 15 7 14 13 -1 5 6 12 16 16 17 7 17 8 1 8 -10 1 -19 -2
-19 -6z"/>
<path d="M3179 1073 c-1 -5 -1 -12 0 -16 1 -5 -9 -7 -21 -5 -19 2 -23 -2 -23
-22 0 -16 5 -24 14 -22 8 2 11 -3 8 -11 -3 -8 -1 -20 4 -28 8 -12 10 -12 8 1
-3 30 1 41 13 34 6 -4 8 -3 4 4 -3 6 -15 9 -26 7 -14 -3 -20 2 -20 14 0 12 7
17 23 17 13 -1 21 4 19 12 -2 10 4 12 20 7 18 -5 20 -4 8 4 -18 13 -30 14 -31
4z"/>
<path d="M2550 1050 c0 -5 5 -10 10 -10 6 0 10 5 10 10 0 6 -4 10 -10 10 -5 0
-10 -4 -10 -10z"/>
<path d="M2717 1053 c-4 -3 -7 -11 -7 -17 0 -6 5 -5 12 2 6 6 9 14 7 17 -3 3
-9 2 -12 -2z"/>
<path d="M2795 1044 c-10 -8 -14 -14 -9 -14 6 0 16 6 23 13 10 10 12 7 9 -13
-2 -21 1 -25 21 -25 19 0 24 5 25 27 1 14 -2 24 -7 21 -5 -3 -7 -14 -4 -24 4
-13 0 -19 -13 -19 -13 0 -17 6 -13 19 6 25 -8 32 -32 15z"/>
<path d="M3230 1049 c0 -5 5 -7 10 -4 6 3 10 8 10 11 0 2 -4 4 -10 4 -5 0 -10
-5 -10 -11z"/>
<path d="M2676 1035 c-3 -8 -1 -15 4 -15 6 0 10 7 10 15 0 8 -2 15 -4 15 -2 0
-6 -7 -10 -15z"/>
<path d="M2580 1035 c0 -8 29 -12 39 -5 9 5 4 8 -13 8 -14 0 -26 -2 -26 -3z"/>
<path d="M2735 1030 c-3 -5 -3 -10 2 -10 4 -1 -3 -7 -16 -14 -20 -11 -21 -14
-7 -19 10 -4 15 -3 11 2 -3 5 0 11 7 13 6 2 12 12 14 21 3 19 -2 22 -11 7z"/>
<path d="M2880 1030 c8 -5 20 -10 25 -10 6 0 3 5 -5 10 -8 5 -19 10 -25 10 -5
0 -3 -5 5 -10z"/>
<path d="M2940 1027 c0 -9 -5 -16 -12 -14 -6 1 -13 -11 -14 -28 -2 -20 0 -25
5 -16 5 8 7 21 3 29 -3 10 -1 13 6 8 13 -8 29 20 18 31 -3 4 -6 -1 -6 -10z"/>
<path d="M2975 1020 c0 -8 7 -14 13 -12 7 1 12 -5 12 -13 0 -8 5 -15 10 -15 7
0 7 7 0 20 -6 11 -15 18 -20 15 -5 -3 -10 0 -13 7 -2 7 -3 6 -2 -2z"/>
<path d="M3022 1032 c-8 -6 -2 -9 18 -9 20 0 26 3 18 9 -7 4 -15 8 -18 8 -3 0
-11 -4 -18 -8z"/>
<path d="M3104 1025 c-4 -8 -10 -13 -15 -10 -4 3 -13 -4 -19 -15 -7 -13 -7
-20 0 -20 5 0 10 7 10 16 0 8 4 13 9 9 6 -3 15 4 21 15 6 11 8 20 5 20 -3 0
-8 -7 -11 -15z"/>
<path d="M3190 1031 c0 -6 7 -8 15 -4 10 3 15 1 13 -8 -2 -7 6 -14 17 -16 18
-3 18 -2 2 5 -10 4 -18 12 -17 17 0 6 -6 11 -14 13 -9 2 -16 -1 -16 -7z"/>
<path d="M2574 1005 c-4 -8 -9 -13 -13 -11 -4 3 -8 -5 -8 -17 -2 -19 0 -18 16
6 10 15 21 24 26 20 4 -5 5 -2 1 5 -9 16 -15 15 -22 -3z"/>
<path d="M2616 1012 c-2 -4 2 -16 10 -27 8 -10 14 -14 14 -9 0 6 -5 15 -11 21
-9 9 -7 12 10 10 13 -1 20 -6 16 -15 -3 -7 0 -10 6 -7 5 4 8 12 6 18 -4 12
-44 20 -51 9z"/>
<path d="M2756 988 c3 -4 11 -5 19 -1 21 7 19 12 -4 10 -11 0 -18 -5 -15 -9z"/>
<path d="M2807 989 c7 -7 15 -10 18 -7 3 3 -2 9 -12 12 -14 6 -15 5 -6 -5z"/>
<path d="M2861 990 c-9 -5 -4 -7 13 -7 29 0 32 2 13 10 -8 3 -20 2 -26 -3z"/>
<path d="M2955 990 c3 -5 8 -10 11 -10 2 0 4 5 4 10 0 6 -5 10 -11 10 -5 0 -7
-4 -4 -10z"/>
<path d="M3101 987 c-6 -8 -8 -17 -4 -20 10 -10 33 -8 33 3 0 5 -8 7 -17 4
-15 -5 -15 -3 1 10 11 9 15 16 9 16 -6 0 -16 -6 -22 -13z"/>
<path d="M3190 990 c-13 -8 -12 -10 3 -10 9 0 17 5 17 10 0 12 -1 12 -20 0z"/>
<path d="M2600 979 c0 -5 -4 -8 -9 -4 -6 3 -15 -5 -21 -17 -10 -21 -10 -22 4
-5 8 10 18 18 22 17 5 -1 10 3 12 9 2 6 1 11 -2 11 -3 0 -6 -5 -6 -11z"/>
<path d="M2675 979 c-4 -6 -5 -12 -2 -15 2 -3 7 2 10 11 7 17 1 20 -8 4z"/>
<path d="M2697 973 c-10 -10 -8 -33 3 -33 5 0 6 7 3 17 -5 12 -3 14 7 8 9 -5
11 -4 6 3 -8 14 -10 14 -19 5z"/>
<path d="M2734 969 c-4 -7 -3 -9 4 -5 5 3 13 0 15 -6 4 -9 6 -10 6 -1 1 17
-16 25 -25 12z"/>
<path d="M2779 978 c-8 -36 -8 -51 0 -38 5 8 7 18 5 22 -3 4 -1 8 5 8 5 0 12
-5 14 -10 3 -6 4 -5 3 2 -2 10 -25 25 -27 16z"/>
<path d="M2935 969 c-2 -3 -2 -14 -1 -25 2 -13 10 -18 24 -17 15 2 20 -2 16
-12 -4 -8 -2 -15 4 -15 6 0 9 8 7 18 -1 10 -10 16 -22 15 -12 -1 -19 5 -20 16
-1 14 4 17 17 14 10 -3 20 -1 23 4 3 4 -6 8 -20 8 -14 0 -26 -3 -28 -6z"/>
<path d="M3030 970 c0 -5 5 -10 10 -10 6 0 10 5 10 10 0 6 -4 10 -10 10 -5 0
-10 -4 -10 -10z"/>
<path d="M3220 976 c0 -2 7 -7 16 -10 8 -3 12 -2 9 4 -6 10 -25 14 -25 6z"/>
<path d="M2830 955 c0 -8 4 -15 8 -15 5 0 9 7 9 15 0 8 -4 15 -9 15 -4 0 -8
-7 -8 -15z"/>
<path d="M2870 960 c0 -5 7 -10 16 -10 8 0 13 -4 9 -9 -3 -6 5 -15 17 -21 21
-10 21 -10 6 3 -10 8 -15 17 -12 20 3 3 -4 10 -15 17 -14 7 -21 7 -21 0z"/>
<path d="M3139 958 c-1 -7 -1 -16 0 -20 0 -4 -9 -7 -20 -5 -14 1 -23 -4 -24
-15 -2 -10 1 -18 7 -18 6 0 8 7 4 15 -4 10 1 14 16 12 14 -1 22 5 24 21 2 12
2 22 -1 22 -3 0 -6 -6 -6 -12z"/>
<path d="M2619 951 c8 -5 20 -7 28 -4 8 3 13 0 11 -8 -2 -7 6 -14 17 -16 18
-3 18 -2 2 5 -10 4 -17 12 -15 17 2 5 -10 11 -27 12 -20 1 -25 -1 -16 -6z"/>
<path d="M2990 950 c0 -5 7 -7 15 -4 8 4 15 8 15 10 0 2 -7 4 -15 4 -8 0 -15
-4 -15 -10z"/>
<path d="M3060 948 c0 -4 7 -8 15 -8 8 0 15 4 15 8 0 5 -7 9 -15 9 -8 0 -15
-4 -15 -9z"/>
<path d="M3217 943 c5 -12 3 -14 -7 -8 -9 5 -11 4 -6 -4 4 -6 12 -9 17 -6 12
8 12 35 -1 35 -5 0 -6 -7 -3 -17z"/>
<path d="M3033 935 c0 -8 4 -15 9 -15 4 0 8 4 8 9 0 6 -4 12 -8 15 -5 3 -9 -1
-9 -9z"/>
<path d="M2574 928 c-7 -11 5 -28 19 -27 9 0 9 2 0 6 -20 7 -15 19 7 20 13 1
18 -2 14 -9 -4 -7 -2 -8 5 -4 6 4 9 11 6 16 -6 10 -45 9 -51 -2z"/>
<path d="M2751 930 c3 -30 -1 -41 -13 -34 -6 4 -8 3 -5 -4 4 -5 15 -9 25 -8
10 2 20 -5 24 -18 6 -18 7 -18 5 4 -2 15 -8 24 -16 22 -8 -2 -11 3 -8 11 3 8
1 20 -4 28 -8 12 -10 12 -8 -1z"/>
<path d="M2790 928 c0 -6 7 -8 15 -4 10 4 14 -1 12 -16 -1 -15 5 -22 23 -24
18 -3 21 -2 10 5 -8 5 -18 7 -22 5 -4 -3 -7 5 -5 17 1 14 -4 23 -15 24 -10 2
-18 -1 -18 -7z"/>
<path d="M2857 933 c-10 -10 -8 -33 3 -33 5 0 7 8 4 18 -5 14 -3 14 10 -2 9
-11 16 -15 16 -9 0 14 -25 34 -33 26z"/>
<path d="M2710 920 c8 -5 20 -10 25 -10 6 0 3 5 -5 10 -8 5 -19 10 -25 10 -5
0 -3 -5 5 -10z"/>
<path d="M2634 905 c-4 -8 -11 -12 -17 -8 -5 3 -7 1 -4 -5 4 -5 17 -8 29 -4
16 4 19 2 13 -8 -6 -9 -4 -11 5 -5 10 6 10 11 -3 20 -9 7 -14 15 -10 18 3 4 3
7 -1 7 -3 0 -9 -7 -12 -15z"/>
<path d="M3010 913 c5 -2 10 -9 10 -14 0 -6 -4 -8 -9 -4 -5 3 -12 1 -15 -4 -4
-5 2 -8 11 -7 21 3 24 28 5 32 -7 1 -8 0 -2 -3z"/>
<path d="M3055 909 c-9 -14 0 -22 28 -26 17 -2 19 -1 7 6 -8 5 -18 7 -22 5 -4
-3 -8 -1 -8 5 0 5 6 12 13 14 9 4 9 6 0 6 -6 1 -15 -4 -18 -10z"/>
<path d="M3190 911 c0 -5 5 -13 10 -16 6 -3 10 -2 10 4 0 5 -4 13 -10 16 -5 3
-10 2 -10 -4z"/>
<path d="M3233 905 c0 -8 4 -12 9 -9 5 3 6 10 3 15 -9 13 -12 11 -12 -6z"/>
<path d="M2550 890 c0 -5 5 -10 10 -10 6 0 10 5 10 10 0 6 -4 10 -10 10 -5 0
-10 -4 -10 -10z"/>
<path d="M2899 893 c-1 -4 -1 -12 0 -17 1 -5 -4 -6 -12 -3 -8 3 -20 1 -28 -4
-12 -8 -12 -10 1 -8 30 3 41 -1 34 -13 -4 -6 -3 -8 4 -4 6 3 9 15 7 26 -3 14
2 20 14 20 12 0 17 -7 17 -22 -1 -13 4 -22 12 -20 6 1 12 -5 12 -13 0 -8 5
-15 10 -15 7 0 7 7 0 20 -6 11 -16 18 -21 14 -7 -4 -9 3 -7 17 2 19 -2 25 -19
27 -13 2 -24 0 -24 -5z"/>
<path d="M3139 893 c-1 -5 -1 -12 0 -17 1 -5 -4 -6 -12 -3 -8 3 -20 1 -28 -4
-12 -8 -12 -10 1 -8 30 3 41 -1 34 -13 -4 -6 -3 -8 4 -5 5 4 9 15 8 25 -2 10
5 20 18 24 21 6 20 6 -1 7 -13 1 -24 -2 -24 -6z"/>
<path d="M2677 877 c-3 -8 -2 -20 3 -26 5 -9 8 -4 8 13 0 29 -3 32 -11 13z"/>
<path d="M2714 882 c3 -5 0 -13 -6 -15 -8 -3 -6 -6 5 -6 19 -1 23 14 5 25 -6
4 -8 3 -4 -4z"/>
<path d="M2580 876 c0 -2 7 -6 15 -10 8 -3 15 -1 15 4 0 6 -7 10 -15 10 -8 0
-15 -2 -15 -4z"/>
<path d="M3172 864 c2 -8 7 -14 12 -14 5 1 13 -4 18 -12 8 -10 9 -10 5 2 -2 8
-10 14 -17 12 -8 -2 -10 3 -7 13 4 8 2 15 -4 15 -6 0 -9 -7 -7 -16z"/>
<path d="M3210 870 c0 -5 5 -10 10 -10 6 0 10 5 10 10 0 6 -4 10 -10 10 -5 0
-10 -4 -10 -10z"/>
<path d="M3055 861 c-3 -5 0 -13 6 -17 7 -4 9 -3 5 4 -3 5 0 13 6 15 9 4 10 6
1 6 -6 1 -14 -3 -18 -8z"/>
<path d="M2619 853 c-1 -5 -1 -12 0 -16 1 -5 -9 -6 -21 -2 -20 5 -21 4 -5 -5
20 -13 41 -4 31 12 -5 7 -1 9 9 5 10 -3 17 -2 17 3 0 12 -29 14 -31 3z"/>
<path d="M2739 853 c-1 -5 0 -16 1 -27 1 -12 -2 -16 -11 -11 -8 5 -10 4 -5 -4
11 -17 28 -1 23 21 -4 14 -2 18 9 14 8 -3 14 -1 14 4 0 12 -29 14 -31 3z"/>
<path d="M3030 854 c0 -4 8 -16 17 -27 17 -18 17 -19 -2 -16 -11 2 -23 11 -27
19 -6 11 -7 10 -5 -4 1 -11 11 -20 24 -22 30 -5 35 7 12 35 -10 13 -19 20 -19
15z"/>
<path d="M2556 841 c-3 -4 1 -16 8 -26 10 -14 15 -15 21 -5 5 9 4 11 -3 6 -11
-6 -16 6 -13 27 1 10 -7 9 -13 -2z"/>
<path d="M2656 834 c-3 -9 -4 -19 -1 -24 6 -10 45 -7 44 4 0 5 5 13 13 18 10
8 10 9 -2 5 -8 -2 -14 -9 -13 -15 2 -6 -6 -10 -17 -9 -14 1 -18 6 -14 19 7 22
-2 24 -10 2z"/>
<path d="M2865 831 c-3 -12 -10 -19 -14 -17 -4 3 -13 1 -21 -4 -11 -7 -9 -9 8
-7 22 1 50 33 39 44 -3 2 -8 -5 -12 -16z"/>
<path d="M3105 830 c-4 -11 -11 -17 -17 -14 -7 5 -8 2 -3 -6 6 -10 11 -9 22 5
13 19 17 35 9 35 -3 0 -8 -9 -11 -20z"/>
<path d="M3226 833 c-6 -14 -5 -15 5 -6 7 7 10 15 7 18 -3 3 -9 -2 -12 -12z"/>
<path d="M2800 830 c8 -5 20 -10 25 -10 6 0 3 5 -5 10 -8 5 -19 10 -25 10 -5
0 -3 -5 5 -10z"/>
<path d="M2926 824 c16 -13 16 -15 2 -10 -10 3 -18 1 -18 -4 0 -11 23 -13 33
-3 8 8 -12 33 -26 33 -6 0 -2 -7 9 -16z"/>
<path d="M3145 830 c-3 -5 -2 -10 4 -10 5 0 13 5 16 10 3 6 2 10 -4 10 -5 0
-13 -4 -16 -10z"/>
<path d="M2774 819 c1 -7 10 -13 19 -15 9 -1 15 2 11 7 -3 5 -9 7 -14 4 -4 -3
-11 0 -13 5 -3 6 -4 5 -3 -1z"/>
<path d="M3177 824 c-4 -4 -4 -11 -1 -15 7 -12 34 -11 34 1 0 5 -7 6 -17 3
-11 -4 -14 -3 -9 5 8 13 3 16 -7 6z"/>
<path d="M2633 801 c0 -11 5 -18 9 -15 4 3 5 11 1 19 -7 21 -12 19 -10 -4z"/>
<path d="M3116 803 c-6 -14 -5 -15 5 -6 7 7 10 15 7 18 -3 3 -9 -2 -12 -12z"/>
<path d="M3219 798 c-1 -7 -1 -17 0 -21 1 -5 -7 -6 -18 -2 -22 7 -38 -10 -20
-21 8 -4 9 -3 5 4 -5 8 0 11 15 9 16 -1 23 4 25 21 2 12 2 22 -1 22 -3 0 -6
-6 -6 -12z"/>
<path d="M2590 790 c0 -5 7 -7 15 -4 8 4 15 8 15 10 0 2 -7 4 -15 4 -8 0 -15
-4 -15 -10z"/>
<path d="M2700 789 c-12 -9 -12 -10 3 -5 15 5 17 2 12 -17 -5 -20 -5 -20 6 -4
14 23 0 40 -21 26z"/>
<path d="M2750 785 c0 -8 4 -15 8 -15 5 0 9 7 9 15 0 8 -4 15 -9 15 -4 0 -8
-7 -8 -15z"/>
<path d="M2887 781 c9 -11 20 -18 25 -15 4 3 8 -4 8 -16 0 -12 -4 -19 -9 -15
-6 3 -15 -5 -21 -17 -10 -21 -10 -22 4 -5 8 10 18 18 23 18 4 -1 8 8 8 19 0
11 -4 20 -9 19 -5 0 -13 6 -18 15 -5 9 -13 16 -18 16 -6 0 -2 -9 7 -19z"/>
<path d="M2940 789 c-12 -9 -12 -10 4 -5 14 5 17 3 12 -11 -6 -15 -5 -16 5 -5
18 17 -1 35 -21 21z"/>
<path d="M2990 785 c0 -8 2 -15 4 -15 2 0 6 7 10 15 3 8 1 15 -4 15 -6 0 -10
-7 -10 -15z"/>
<path d="M3061 790 c-9 -5 -4 -7 13 -7 29 0 32 2 13 10 -8 3 -20 2 -26 -3z"/>
<path d="M3150 790 c-13 -8 -12 -10 3 -10 9 0 17 5 17 10 0 12 -1 12 -20 0z"/>
<path d="M2655 781 c-3 -5 0 -13 6 -17 7 -4 9 -3 5 4 -3 5 0 13 6 15 9 4 10 6
1 6 -6 1 -14 -3 -18 -8z"/>
<path d="M2790 785 c0 -5 5 -17 10 -25 5 -8 10 -10 10 -5 0 6 -5 17 -10 25 -5
8 -10 11 -10 5z"/>
<path d="M3030 782 c0 -7 -5 -10 -12 -6 -7 4 -8 3 -4 -5 4 -6 12 -9 17 -6 5 4
9 1 9 -6 0 -7 3 -10 6 -6 3 3 1 14 -5 24 -6 11 -11 13 -11 5z"/>
<path d="M2558 773 c12 -2 20 -8 18 -12 -3 -4 0 -13 5 -21 7 -11 8 -8 6 10 -3
18 -10 25 -28 27 -23 1 -23 1 -1 -4z"/>
<path d="M2614 772 c4 -7 1 -12 -6 -12 -8 0 -5 -5 5 -11 14 -8 22 -8 30 1 9 8
7 9 -7 4 -13 -5 -17 -4 -12 4 3 6 1 14 -5 18 -8 4 -9 3 -5 -4z"/>
<path d="M3110 770 c0 -5 5 -10 10 -10 6 0 10 5 10 10 0 6 -4 10 -10 10 -5 0
-10 -4 -10 -10z"/>
<path d="M2676 755 c-3 -8 -1 -15 4 -15 6 0 10 7 10 15 0 8 -2 15 -4 15 -2 0
-6 -7 -10 -15z"/>
<path d="M2831 754 c0 -11 3 -14 6 -6 3 7 2 16 -1 19 -3 4 -6 -2 -5 -13z"/>
<path d="M3073 754 c0 -16 13 -19 21 -5 3 5 0 11 -7 14 -8 3 -14 -1 -14 -9z"/>
<path d="M2730 756 c0 -2 7 -7 16 -10 8 -3 12 -2 9 4 -6 10 -25 14 -25 6z"/>
<path d="M2770 750 c0 -5 5 -10 10 -10 6 0 10 5 10 10 0 6 -4 10 -10 10 -5 0
-10 -4 -10 -10z"/>
<path d="M2870 750 c0 -5 5 -10 10 -10 6 0 10 5 10 10 0 6 -4 10 -10 10 -5 0
-10 -4 -10 -10z"/>
<path d="M2970 750 c0 -5 5 -10 10 -10 6 0 10 5 10 10 0 6 -4 10 -10 10 -5 0
-10 -4 -10 -10z"/>
<path d="M3130 749 c-12 -8 -10 -9 7 -4 19 5 22 3 17 -12 -5 -14 -4 -15 4 -3
19 25 0 38 -28 19z"/>
<path d="M3220 750 c-8 -5 -10 -10 -5 -10 6 0 17 5 25 10 8 5 11 10 5 10 -5 0
-17 -5 -25 -10z"/>
<path d="M2955 733 c5 -19 3 -22 -12 -17 -15 5 -15 4 -3 -5 21 -14 35 3 21 26
-11 16 -11 16 -6 -4z"/>
<path d="M2554 731 c4 -5 1 -12 -4 -14 -6 -3 -5 -4 2 -3 15 3 23 26 8 26 -6 0
-9 -4 -6 -9z"/>
<path d="M2597 727 c-3 -8 -2 -20 3 -26 5 -9 8 -4 8 13 0 29 -3 32 -11 13z"/>
<path d="M2644 729 c-5 -8 -3 -9 6 -4 10 6 12 4 7 -8 -3 -10 -2 -17 3 -17 13
0 13 27 1 35 -5 3 -13 0 -17 -6z"/>
<path d="M2730 733 c5 -2 8 -9 5 -13 -3 -5 -1 -11 4 -14 5 -4 8 2 7 11 -2 9
-8 18 -15 19 -6 1 -7 0 -1 -3z"/>
<path d="M2817 727 c3 -5 14 -7 24 -4 13 4 19 0 19 -12 0 -12 -7 -17 -22 -17
-17 1 -22 -5 -22 -24 0 -19 5 -25 22 -26 12 -1 27 6 32 15 5 9 12 15 17 13 4
-2 9 2 11 10 2 9 0 8 -7 -2 -6 -8 -11 -10 -11 -5 0 6 -6 3 -13 -5 -19 -23 -43
-23 -43 0 0 15 6 20 21 18 15 -2 20 3 20 21 0 19 -5 24 -27 25 -14 1 -24 -2
-21 -7z"/>
<path d="M3013 727 c-3 -6 -1 -7 5 -3 7 4 12 2 12 -5 0 -8 5 -7 17 2 15 12 16
12 10 -3 -3 -10 -2 -18 4 -18 6 0 9 8 7 17 -3 18 -45 26 -55 10z"/>
<path d="M3179 737 c-1 -1 -3 -12 -4 -25 -2 -16 5 -27 21 -34 13 -6 21 -14 19
-19 -9 -13 16 -22 28 -10 9 9 7 10 -7 5 -13 -5 -17 -4 -12 4 4 7 -2 16 -16 23
-13 6 -25 19 -25 30 -2 17 1 18 13 9 8 -8 14 -8 14 -2 0 8 -28 26 -31 19z"/>
<path d="M2990 715 c0 -8 4 -15 10 -15 5 0 7 7 4 15 -4 8 -8 15 -10 15 -2 0
-4 -7 -4 -15z"/>
<path d="M3230 719 c0 -5 5 -7 10 -4 6 3 10 8 10 11 0 2 -4 4 -10 4 -5 0 -10
-5 -10 -11z"/>
<path d="M2626 707 c3 -10 9 -15 12 -12 3 3 0 11 -7 18 -10 9 -11 8 -5 -6z"/>
<path d="M2695 710 c-3 -5 -3 -10 2 -11 4 -1 -3 -5 -17 -10 l-25 -8 25 2 c14
1 23 6 22 11 -2 5 2 13 10 17 9 6 9 9 1 9 -6 0 -15 -4 -18 -10z"/>
<path d="M2790 710 c-13 -8 -12 -10 3 -10 9 0 17 5 17 10 0 12 -1 12 -20 0z"/>
<path d="M3095 710 c-3 -5 -3 -10 2 -11 4 -1 -3 -5 -17 -10 l-25 -8 25 2 c14
1 24 7 22 12 -2 6 7 13 20 17 23 6 23 6 1 7 -12 1 -25 -3 -28 -9z"/>
<path d="M2573 703 c4 -3 -1 -12 -11 -20 -15 -13 -15 -13 6 -3 19 9 23 30 5
30 -4 0 -3 -3 0 -7z"/>
<path d="M2716 683 c-6 -14 -5 -15 5 -6 7 7 10 15 7 18 -3 3 -9 -2 -12 -12z"/>
<path d="M2910 691 c0 -6 6 -8 13 -5 8 3 13 -3 13 -16 0 -13 -5 -19 -13 -16
-7 3 -13 1 -13 -5 0 -6 8 -9 17 -7 11 2 17 12 17 28 0 16 -6 26 -17 28 -9 2
-17 -1 -17 -7z"/>
<path d="M2974 692 c4 -7 2 -12 -3 -12 -6 0 -11 -4 -11 -10 0 -15 17 -12 23 5
4 8 1 17 -5 21 -7 4 -8 3 -4 -4z"/>
<path d="M3014 685 c-3 -8 -4 -20 -1 -27 3 -7 6 -3 6 9 1 16 6 21 16 17 8 -4
15 -4 15 -1 0 13 -31 15 -36 2z"/>
<path d="M3130 698 c0 -2 9 -11 20 -21 11 -9 20 -13 20 -7 0 5 -9 14 -20 20
-11 6 -20 9 -20 8z"/>
<path d="M3230 689 c0 -5 5 -7 10 -4 6 3 10 8 10 11 0 2 -4 4 -10 4 -5 0 -10
-5 -10 -11z"/>
<path d="M2741 673 c-1 -16 -6 -20 -23 -17 -21 4 -21 4 -3 -5 24 -11 39 0 32
25 -4 16 -5 16 -6 -3z"/>
<path d="M2590 670 c0 -5 7 -13 16 -18 9 -5 15 -13 15 -18 -1 -5 8 -9 19 -9
11 0 20 4 19 10 0 5 8 13 18 17 16 7 16 8 -2 5 -11 -2 -19 -9 -17 -15 1 -7 -7
-12 -19 -12 -11 0 -18 4 -15 8 3 5 -4 16 -15 25 -10 9 -19 13 -19 7z"/>
<path d="M2620 670 c18 -12 30 -13 30 -2 0 4 -10 9 -22 9 -18 2 -20 0 -8 -7z"/>
<path d="M2774 669 c-3 -6 -1 -16 5 -22 9 -9 10 -7 5 7 -5 13 -4 17 4 12 7 -4
12 -2 12 3 0 14 -17 14 -26 0z"/>
<path d="M3110 672 c0 -4 10 -9 22 -9 18 -2 20 0 8 7 -18 12 -30 13 -30 2z"/>
<path d="M3035 659 c-4 -6 -5 -12 -2 -15 2 -3 7 2 10 11 7 17 1 20 -8 4z"/>
<path d="M2555 652 c26 -9 34 -44 8 -36 -15 5 -15 4 -3 -4 19 -14 30 -6 26 21
-2 15 -11 23 -27 24 -21 2 -21 1 -4 -5z"/>
<path d="M2993 634 c0 -17 2 -22 7 -13 5 6 6 18 3 26 -8 19 -10 16 -10 -13z"/>
<path d="M3059 658 c-5 -21 -3 -55 4 -51 5 3 7 14 4 24 -4 13 0 19 13 19 13 0
17 -6 13 -19 -6 -25 8 -32 32 -15 10 8 14 14 9 14 -6 0 -16 -6 -23 -12 -10
-11 -12 -8 -9 12 2 20 -2 26 -19 28 -13 2 -23 2 -24 0z"/>
<path d="M3179 658 c-6 -21 -5 -37 2 -32 5 3 7 9 4 14 -3 4 1 11 7 13 10 4 10
6 1 6 -7 1 -13 0 -14 -1z"/>
<path d="M2893 630 c1 -14 7 -24 12 -22 6 2 13 -7 17 -20 7 -22 7 -22 5 2 -1
14 -6 24 -12 22 -5 -2 -13 7 -17 20 -7 22 -7 22 -5 -2z"/>
<path d="M2690 627 c0 -8 3 -16 6 -20 8 -8 34 3 34 15 0 6 -8 4 -17 -3 -15
-12 -16 -12 -10 4 3 9 2 17 -3 17 -6 0 -10 -6 -10 -13z"/>
<path d="M2756 625 c4 -8 8 -15 10 -15 2 0 4 7 4 15 0 8 -4 15 -10 15 -5 0 -7
-7 -4 -15z"/>
<path d="M2795 630 c-3 -6 -1 -18 5 -27 9 -16 10 -15 5 4 -5 18 -3 22 9 17 9
-3 16 -4 16 -1 0 10 -30 16 -35 7z"/>
<path d="M2860 620 c-6 -11 -8 -20 -6 -20 3 0 10 9 16 20 6 11 8 20 6 20 -3 0
-10 -9 -16 -20z"/>
<path d="M2950 629 c0 -15 18 -19 23 -6 3 8 -1 14 -9 14 -8 0 -14 -4 -14 -8z"/>
<path d="M3207 629 c7 -7 15 -10 18 -7 3 3 -2 9 -12 12 -14 6 -15 5 -6 -5z"/>
<path d="M3015 621 c-6 -11 13 -26 22 -17 4 3 1 6 -6 6 -7 0 -9 5 -6 10 3 6 4
10 1 10 -3 0 -7 -4 -11 -9z"/>
<path d="M2597 605 c-8 -20 9 -28 30 -15 16 9 15 10 -4 5 -18 -5 -22 -3 -17 9
3 9 4 16 1 16 -3 0 -7 -7 -10 -15z"/>
<path d="M2674 606 c5 -14 3 -17 -11 -12 -15 6 -16 5 -5 -5 17 -18 35 1 21 21
-9 12 -10 12 -5 -4z"/>
<path d="M3190 611 c0 -5 5 -13 10 -16 6 -3 10 -2 10 4 0 5 -4 13 -10 16 -5 3
-10 2 -10 -4z"/>
<path d="M2833 590 c1 -14 7 -24 12 -22 6 2 13 -7 17 -20 7 -22 7 -22 5 2 -1
14 -6 24 -12 22 -5 -2 -13 7 -17 20 -7 22 -7 22 -5 -2z"/>
<path d="M3174 590 c2 -18 9 -25 25 -24 14 0 20 -4 17 -13 -3 -7 -1 -13 5 -13
6 0 9 8 7 18 -2 11 -11 16 -27 14 -13 -2 -21 0 -18 5 3 5 1 15 -4 23 -7 11 -8
8 -5 -10z"/>
<path d="M3234 596 c1 -8 5 -18 8 -22 4 -3 5 1 4 10 -1 8 -5 18 -8 22 -4 3 -5
-1 -4 -10z"/>
<path d="M2557 581 c14 -17 33 -20 33 -5 0 3 -4 3 -9 0 -5 -3 -11 1 -15 9 -3
8 -10 15 -16 15 -5 0 -2 -9 7 -19z"/>
<path d="M2730 596 c0 -2 7 -7 16 -10 8 -3 12 -2 9 4 -6 10 -25 14 -25 6z"/>
<path d="M2770 590 c0 -5 5 -10 10 -10 6 0 10 5 10 10 0 6 -4 10 -10 10 -5 0
-10 -4 -10 -10z"/>
<path d="M2870 590 c0 -5 5 -10 10 -10 6 0 10 5 10 10 0 6 -4 10 -10 10 -5 0
-10 -4 -10 -10z"/>
<path d="M2970 590 c0 -5 5 -10 10 -10 6 0 10 5 10 10 0 6 -4 10 -10 10 -5 0
-10 -4 -10 -10z"/>
<path d="M3007 589 c7 -7 15 -10 18 -7 3 3 -2 9 -12 12 -14 6 -15 5 -6 -5z"/>
<path d="M3070 585 c0 -8 2 -15 4 -15 2 0 6 7 10 15 3 8 1 15 -4 15 -6 0 -10
-7 -10 -15z"/>
<path d="M3119 598 c-6 -22 -5 -38 3 -38 6 0 7 7 4 16 -5 12 -1 14 17 9 17 -5
19 -4 7 4 -14 10 -29 14 -31 9z"/>
<path d="M2710 580 c0 -5 7 -10 16 -10 9 0 12 -5 8 -12 -4 -7 -3 -8 4 -4 16
10 15 14 -8 26 -14 7 -20 7 -20 0z"/>
<path d="M2955 573 c5 -19 3 -22 -12 -17 -15 5 -15 4 -3 -5 21 -14 35 3 21 26
-11 16 -11 16 -6 -4z"/>
<path d="M3036 575 c-9 -26 -7 -32 5 -12 6 10 9 21 6 23 -2 3 -7 -2 -11 -11z"/>
<path d="M2630 570 c0 -5 5 -10 10 -10 6 0 10 5 10 10 0 6 -4 10 -10 10 -5 0
-10 -4 -10 -10z"/>
<path d="M2895 571 c-6 -11 13 -26 22 -17 4 3 1 6 -6 6 -7 0 -9 5 -6 10 3 6 4
10 1 10 -3 0 -7 -4 -11 -9z"/>
<path d="M2757 557 c-3 -8 -2 -20 3 -26 5 -9 8 -4 8 13 0 29 -3 32 -11 13z"/>
<path d="M2791 563 c-1 -18 13 -23 29 -11 12 8 12 9 -2 5 -9 -3 -19 -1 -22 6
-3 9 -5 9 -5 0z"/>
<path d="M2990 555 c0 -8 4 -15 8 -15 5 0 9 7 9 15 0 8 -4 15 -9 15 -4 0 -8
-7 -8 -15z"/>
<path d="M2590 550 c0 -5 7 -7 15 -4 8 4 15 8 15 10 0 2 -7 4 -15 4 -8 0 -15
-4 -15 -10z"/>
<path d="M2660 556 c0 -2 7 -6 15 -10 8 -3 15 -1 15 4 0 6 -7 10 -15 10 -8 0
-15 -2 -15 -4z"/>
<path d="M3150 550 c-13 -8 -12 -10 3 -10 9 0 17 5 17 10 0 12 -1 12 -20 0z"/>
<path d="M3116 537 c3 -10 9 -15 12 -12 3 3 0 11 -7 18 -10 9 -11 8 -5 -6z"/>
<path d="M2558 533 c12 -2 20 -8 18 -12 -3 -4 0 -13 5 -21 7 -11 8 -8 6 10 -3
18 -10 25 -28 27 -23 1 -23 1 -1 -4z"/>
<path d="M2656 532 c-10 -16 1 -47 17 -50 10 -2 17 1 17 7 0 6 -8 7 -17 4 -16
-6 -17 -5 -3 12 12 15 12 17 1 10 -11 -6 -13 -4 -8 8 7 18 2 23 -7 9z"/>
<path d="M2696 533 c-7 -8 13 -33 27 -33 6 0 2 7 -9 15 -19 15 -19 16 1 13 11
-2 24 -7 28 -13 5 -6 7 -4 5 4 -4 15 -41 25 -52 14z"/>
<path d="M2819 533 c-1 -5 -1 -12 0 -16 1 -5 -9 -6 -21 -3 -13 3 -17 3 -10 0
6 -3 9 -10 6 -16 -4 -6 3 -5 15 2 12 6 18 16 15 22 -5 7 -1 9 9 5 10 -3 17 -2
17 3 0 12 -29 14 -31 3z"/>
<path d="M2889 519 c-7 -13 -6 -19 1 -19 6 0 8 -5 4 -12 -4 -6 -3 -8 4 -5 5 4
8 15 5 25 -3 12 2 18 15 19 13 1 18 -5 18 -19 -1 -15 6 -22 24 -24 18 -3 21
-2 10 5 -8 5 -18 7 -23 4 -5 -3 -7 5 -5 18 2 19 -2 24 -20 25 -13 1 -27 -7
-33 -17z"/>
<path d="M2964 529 c-5 -8 -3 -9 6 -4 10 6 12 4 7 -8 -3 -10 -2 -17 3 -17 13
0 13 27 1 35 -5 3 -13 0 -17 -6z"/>
<path d="M3015 529 c-3 -4 -2 -15 2 -25 5 -13 3 -15 -7 -9 -9 5 -11 4 -6 -4
12 -18 28 -2 20 21 -4 13 -2 18 4 14 6 -3 13 -3 16 2 3 5 -2 9 -10 9 -8 0 -17
-4 -19 -8z"/>
<path d="M3067 534 c7 -3 15 -5 19 -4 4 1 11 -4 16 -12 8 -11 9 -10 6 1 -2 8
-15 15 -29 17 -13 1 -18 0 -12 -2z"/>
<path d="M3175 530 c-4 -6 1 -7 11 -3 13 5 15 3 9 -7 -5 -9 -4 -11 4 -6 6 4 9
12 6 17 -8 12 -22 12 -30 -1z"/>
<path d="M3230 523 c5 -2 8 -9 5 -13 -3 -5 -1 -11 4 -14 5 -4 8 2 7 11 -2 9
-8 18 -15 19 -6 1 -7 0 -1 -3z"/>
<path d="M2610 510 c8 -5 20 -10 25 -10 6 0 3 5 -5 10 -8 5 -19 10 -25 10 -5
0 -3 -5 5 -10z"/>
<path d="M3045 510 c-3 -6 1 -7 9 -4 18 7 21 14 7 14 -6 0 -13 -4 -16 -10z"/>
<path d="M3130 509 c-12 -8 -10 -9 7 -4 19 5 22 3 17 -12 -5 -14 -4 -15 4 -3
19 25 0 38 -28 19z"/>
<path d="M2760 500 c0 -5 -5 -9 -12 -7 -6 1 -13 -7 -15 -18 -3 -18 -2 -18 5
-2 4 10 12 18 17 17 5 -1 11 3 13 9 2 6 1 11 -2 11 -3 0 -6 -4 -6 -10z"/>
<path d="M2835 499 c-4 -6 -5 -12 -2 -15 2 -3 7 2 10 11 7 17 1 20 -8 4z"/>
<path d="M3080 500 c0 -5 -5 -9 -12 -7 -6 1 -13 -7 -15 -18 -3 -18 -2 -18 5
-2 4 10 12 18 17 17 5 -1 11 3 13 9 2 6 1 11 -2 11 -3 0 -6 -4 -6 -10z"/>
<path d="M2554 491 c4 -5 1 -12 -4 -14 -6 -3 -5 -4 2 -3 15 3 23 26 8 26 -6 0
-9 -4 -6 -9z"/>
<path d="M2597 487 c-3 -8 -2 -20 3 -26 5 -9 8 -4 8 13 0 29 -3 32 -11 13z"/>
<path d="M2856 492 c-3 -5 -4 -17 -2 -28 3 -21 28 -26 32 -6 1 7 0 8 -3 2 -8
-17 -19 -11 -20 10 -1 13 2 18 9 14 7 -4 8 -2 4 4 -8 14 -13 15 -20 4z"/>
<path d="M3175 491 c-11 -19 4 -46 26 -46 19 0 24 6 24 25 0 19 -6 25 -23 26
-12 1 -24 -2 -27 -5z m42 -20 c1 -9 -6 -17 -16 -18 -9 -1 -17 6 -18 16 -1 9 6
17 16 18 9 1 17 -6 18 -16z"/>
<path d="M2701 473 c-1 -16 -6 -21 -21 -18 -11 2 -23 -1 -26 -7 -4 -6 -2 -8 4
-4 6 3 12 -3 15 -16 l4 -23 2 23 c0 13 6 20 11 17 12 -7 24 19 17 37 -3 7 -6
3 -6 -9z"/>
<path d="M2628 473 c6 -2 9 -10 6 -15 -4 -7 -2 -8 4 -4 18 11 14 26 -5 25 -11
0 -13 -3 -5 -6z"/>
<path d="M2779 471 c8 -5 21 -7 29 -3 10 3 13 1 8 -6 -4 -7 -1 -15 8 -18 9 -3
14 -9 12 -13 -3 -4 5 -8 17 -8 19 -2 18 0 -7 16 -15 10 -26 22 -24 27 2 5 -10
10 -27 11 -20 1 -25 -1 -16 -6z"/>
<path d="M2910 465 c0 -8 2 -15 4 -15 2 0 6 7 10 15 3 8 1 15 -4 15 -6 0 -10
-7 -10 -15z"/>
<path d="M2981 470 c-9 -5 -4 -7 13 -7 29 0 32 2 13 10 -8 3 -20 2 -26 -3z"/>
<path d="M3099 471 c8 -5 21 -7 29 -3 10 3 13 1 8 -6 -4 -7 -1 -15 8 -18 9 -3
14 -9 12 -13 -3 -4 5 -8 17 -8 19 -2 18 0 -7 16 -15 10 -26 22 -24 27 2 5 -10
10 -27 11 -20 1 -25 -1 -16 -6z"/>
<path d="M2573 463 c4 -3 -1 -12 -11 -20 -15 -13 -15 -13 6 -3 19 9 23 30 5
30 -4 0 -3 -3 0 -7z"/>
<path d="M2956 451 c4 -17 3 -21 -6 -16 -9 6 -11 4 -5 -4 5 -9 11 -9 17 -3 7
7 6 16 -1 29 -11 16 -11 15 -5 -6z"/>
<path d="M2750 450 c0 -5 7 -6 17 -3 12 5 14 3 8 -7 -5 -9 -4 -11 4 -6 6 4 9
12 6 17 -8 12 -35 12 -35 -1z"/>
<path d="M3070 450 c0 -5 7 -6 17 -3 12 5 14 3 8 -7 -5 -9 -4 -11 4 -6 6 4 9
12 6 17 -8 12 -35 12 -35 -1z"/>
<path d="M2730 441 c0 -10 19 -25 25 -20 1 2 -3 10 -11 17 -8 7 -14 8 -14 3z"/>
<path d="M2983 431 c-7 -11 -9 -22 -6 -25 10 -10 33 -7 33 4 0 5 -8 6 -17 3
-16 -6 -16 -5 -4 10 8 10 12 19 10 22 -3 2 -10 -4 -16 -14z"/>
<path d="M3050 441 c0 -10 19 -25 25 -20 1 2 -3 10 -11 17 -8 7 -14 8 -14 3z"/>
<path d="M2580 430 c-9 -6 -10 -10 -3 -10 6 0 15 5 18 10 8 12 4 12 -15 0z"/>
<path d="M2610 430 c0 -5 5 -10 10 -10 6 0 10 5 10 10 0 6 -4 10 -10 10 -5 0
-10 -4 -10 -10z"/>
<path d="M2710 435 c0 -5 5 -17 10 -25 5 -8 10 -10 10 -5 0 6 -5 17 -10 25 -5
8 -10 11 -10 5z"/>
<path d="M2797 433 c-12 -11 -8 -23 9 -23 9 0 12 -5 8 -12 -5 -7 -3 -8 6 -3
10 6 10 11 -3 20 -9 7 -14 15 -10 18 3 4 4 7 1 7 -2 0 -8 -3 -11 -7z"/>
<path d="M2890 435 c0 -7 30 -13 34 -7 3 4 -4 9 -15 9 -10 1 -19 0 -19 -2z"/>
<path d="M3117 433 c-12 -12 -7 -21 16 -26 20 -5 20 -5 5 7 -10 7 -15 16 -11
19 3 4 4 7 1 7 -2 0 -8 -3 -11 -7z"/>
<path d="M2636 413 c-9 -22 5 -35 24 -22 12 9 12 10 -3 5 -15 -5 -17 -2 -12
14 8 24 0 27 -9 3z"/>
<path d="M3036 417 c3 -10 9 -15 12 -12 3 3 0 11 -7 18 -10 9 -11 8 -5 -6z"/>
<path d="M3215 420 c3 -5 -1 -10 -9 -10 -9 0 -16 -5 -16 -10 0 -7 7 -7 20 0
17 9 20 30 4 30 -3 0 -2 -4 1 -10z"/>
<path d="M2556 407 c3 -10 9 -15 12 -12 3 3 0 11 -7 18 -10 9 -11 8 -5 -6z"/>
<path d="M2694 412 c3 -5 0 -13 -6 -15 -9 -4 -10 -6 -1 -6 17 -1 25 16 12 25
-7 4 -9 3 -5 -4z"/>
<path d="M2875 410 c-4 -6 -4 -14 -1 -17 3 -4 6 -1 6 5 0 7 5 12 11 12 5 0 8
-4 5 -8 -2 -4 0 -14 5 -22 7 -11 8 -9 6 9 -4 27 -21 38 -32 21z"/>
<path d="M2925 409 c-4 -6 -4 -13 -1 -16 3 -4 6 -1 6 6 0 7 5 9 12 5 7 -4 8
-3 4 4 -9 15 -13 15 -21 1z"/>
<path d="M2593 395 c0 -8 4 -15 9 -15 4 0 8 7 8 15 0 8 -4 15 -8 15 -5 0 -9
-7 -9 -15z"/>
<path d="M2837 397 c-3 -8 -2 -20 3 -26 5 -9 8 -4 8 13 0 29 -3 32 -11 13z"/>
<path d="M3021 393 c-1 -16 -6 -21 -21 -18 -11 2 -23 -1 -26 -7 -4 -6 -3 -8 4
-4 5 3 13 0 15 -6 4 -10 6 -10 6 0 1 7 6 10 11 7 12 -7 24 19 17 37 -3 7 -6 3
-6 -9z"/>
<path d="M3157 397 c-3 -8 -2 -20 3 -26 5 -9 8 -4 8 13 0 29 -3 32 -11 13z"/>
<path d="M2740 396 c0 -2 7 -6 15 -10 8 -3 15 -1 15 4 0 6 -7 10 -15 10 -8 0
-15 -2 -15 -4z"/>
<path d="M2950 390 c-13 -8 -12 -10 3 -10 9 0 17 5 17 10 0 12 -1 12 -20 0z"/>
<path d="M3060 395 c0 -8 29 -12 39 -5 9 5 4 8 -13 8 -14 0 -26 -2 -26 -3z"/>
<path d="M3221 391 c-10 -7 -7 -9 12 -8 14 1 23 5 20 10 -6 9 -15 9 -32 -2z"/>
<path d="M2550 368 c0 -6 7 -7 16 -4 12 4 15 2 10 -9 -3 -8 -1 -15 5 -15 6 0
9 7 7 17 -3 17 -38 28 -38 11z"/>
<path d="M2616 371 c-4 -5 -3 -17 1 -27 4 -10 2 -15 -3 -11 -6 3 -16 1 -24 -4
-11 -7 -8 -8 10 -5 19 3 24 9 23 25 -2 15 1 20 9 15 7 -4 8 -3 4 4 -9 14 -13
15 -20 3z"/>
<path d="M2670 371 c8 -5 17 -8 21 -5 4 2 7 -5 6 -16 -1 -15 -7 -20 -22 -18
-15 2 -20 -3 -20 -21 0 -19 5 -24 27 -25 14 -1 24 2 21 7 -3 5 -14 7 -24 4
-13 -4 -19 0 -19 12 0 12 7 17 22 17 34 -1 32 46 -2 51 -18 2 -21 1 -10 -6z"/>
<path d="M2730 359 c-7 -11 -10 -23 -7 -25 2 -2 9 7 15 21 14 30 7 33 -8 4z"/>
<path d="M2775 371 c-3 -5 0 -13 6 -17 7 -4 9 -3 5 4 -4 7 2 10 14 9 13 -1 19
-6 15 -15 -3 -7 0 -10 6 -7 5 4 8 12 6 18 -4 13 -44 20 -52 8z"/>
<path d="M2870 362 c-8 -9 -14 -21 -12 -26 2 -4 -4 -6 -13 -3 -8 4 -15 2 -15
-4 0 -6 7 -9 16 -7 8 2 15 7 14 11 -1 5 7 15 17 22 10 7 16 16 13 18 -3 3 -12
-2 -20 -11z"/>
<path d="M2917 365 c-8 -20 9 -28 30 -15 16 9 15 10 -4 5 -18 -5 -22 -3 -17 9
3 9 4 16 1 16 -3 0 -7 -7 -10 -15z"/>
<path d="M3054 365 c-3 -8 -3 -18 0 -24 4 -5 -4 -12 -16 -14 -22 -5 -22 -5 1
-4 19 2 25 8 26 30 1 30 -3 34 -11 12z"/>
<path d="M3099 372 c-1 -4 -1 -11 0 -16 1 -5 -6 -5 -16 -2 -14 6 -15 4 -6 -5
12 -12 37 -3 28 11 -3 5 4 8 15 7 15 -1 19 -6 15 -22 -6 -19 -5 -19 5 -2 7 10
9 21 6 25 -10 9 -46 13 -47 4z"/>
<path d="M3187 359 c-9 -6 -14 -15 -11 -21 5 -7 1 -9 -9 -5 -10 3 -17 2 -17
-4 0 -6 8 -9 18 -7 9 2 16 10 15 16 -2 7 4 12 12 12 8 0 15 5 15 10 0 12 0 12
-23 -1z"/>
<path d="M3231 354 c0 -11 3 -14 6 -6 3 7 2 16 -1 19 -3 4 -6 -2 -5 -13z"/>
<path d="M2645 350 c-3 -6 1 -7 9 -4 18 7 21 14 7 14 -6 0 -13 -4 -16 -10z"/>
<path d="M2751 344 c0 -11 3 -14 6 -6 3 7 2 16 -1 19 -3 4 -6 -2 -5 -13z"/>
<path d="M3020 350 c-9 -6 -10 -10 -3 -10 6 0 15 5 18 10 8 12 4 12 -15 0z"/>
<path d="M2893 345 c4 -5 -5 -17 -20 -27 -16 -10 -23 -18 -18 -18 6 0 21 9 34
19 19 14 21 20 10 26 -8 5 -11 4 -6 0z"/>
<path d="M2971 343 c-1 -17 16 -25 25 -12 4 7 3 9 -4 5 -5 -3 -13 0 -15 6 -4
9 -6 10 -6 1z"/>
<path d="M2950 331 c0 -6 4 -13 10 -16 6 -3 7 1 4 9 -7 18 -14 21 -14 7z"/>
<path d="M3216 327 c3 -10 9 -15 12 -12 3 3 0 11 -7 18 -10 9 -11 8 -5 -6z"/>
<path d="M2813 310 c2 -15 8 -24 16 -22 8 2 11 -3 8 -11 -3 -8 -1 -20 4 -28 6
-10 8 -6 6 13 -1 15 -6 27 -12 27 -5 0 -13 10 -17 23 -7 22 -7 22 -5 -2z"/>
<path d="M2567 309 c7 -7 15 -10 18 -7 3 3 -2 9 -12 12 -14 6 -15 5 -6 -5z"/>
<path d="M2710 311 c0 -10 19 -25 25 -20 1 2 -3 10 -11 17 -8 7 -14 8 -14 3z"/>
<path d="M2910 312 c0 -5 7 -9 15 -9 8 0 15 4 15 9 0 4 -7 8 -15 8 -8 0 -15
-4 -15 -8z"/>
<path d="M2991 310 c-9 -5 -4 -7 13 -7 29 0 32 2 13 10 -8 3 -20 2 -26 -3z"/>
<path d="M3070 310 c0 -6 7 -10 15 -10 8 0 15 2 15 4 0 2 -7 6 -15 10 -8 3
-15 1 -15 -4z"/>
<path d="M3133 307 c1 -10 6 -17 11 -17 5 1 13 -4 18 -12 8 -11 9 -11 6 0 -2
8 -8 13 -13 12 -5 -1 -13 7 -17 17 -7 17 -8 17 -5 0z"/>
<path d="M3180 310 c-8 -5 -10 -10 -5 -10 6 0 17 5 25 10 8 5 11 10 5 10 -5 0
-17 -5 -25 -10z"/>
<path d="M2756 289 c3 -5 10 -6 16 -3 6 4 8 -1 4 -14 -4 -11 -2 -23 3 -27 7
-4 8 1 4 11 -4 11 -3 15 5 10 6 -3 14 -1 18 5 4 7 3 9 -4 5 -5 -3 -12 -1 -14
6 -2 6 -12 12 -21 14 -9 1 -15 -2 -11 -7z"/>
<path d="M2888 293 c6 -2 9 -10 6 -15 -4 -7 -2 -8 5 -4 13 9 5 26 -12 25 -9 0
-8 -2 1 -6z"/>
<path d="M2950 290 c0 -5 5 -10 10 -10 6 0 10 5 10 10 0 6 -4 10 -10 10 -5 0
-10 -4 -10 -10z"/>
<path d="M3040 290 c-8 -5 -11 -13 -6 -17 5 -4 11 -2 13 5 3 6 10 9 15 6 7 -4
8 -2 4 4 -9 14 -7 14 -26 2z"/>
<path d="M3113 287 c6 -15 3 -17 -12 -12 -24 7 -33 -6 -19 -25 8 -12 9 -12 4
2 -4 14 1 16 25 13 27 -3 29 -2 18 13 -21 27 -23 28 -16 9z"/>
<path d="M3215 290 c3 -5 8 -10 11 -10 2 0 4 5 4 10 0 6 -5 10 -11 10 -5 0 -7
-4 -4 -10z"/>
<path d="M3001 282 c-1 -8 -6 -10 -13 -6 -10 5 -10 4 -1 -6 15 -16 28 -8 20
12 -4 11 -6 11 -6 0z"/>
<path d="M2737 263 c5 -15 3 -16 -8 -5 -7 6 -17 12 -23 12 -5 0 -1 -6 9 -14
11 -8 23 -12 27 -10 11 7 10 34 -2 34 -5 0 -7 -8 -3 -17z"/>
<path d="M2916 272 c-2 -4 0 -14 6 -22 8 -12 9 -11 4 3 -5 15 -2 17 17 12 17
-5 19 -4 7 4 -18 13 -27 14 -34 3z"/>
<path d="M3190 270 c-12 -7 -10 -9 7 -7 12 0 19 5 17 9 -6 10 -6 10 -24 -2z"/>
<path d="M2614 259 c3 -15 36 -21 36 -7 0 6 -6 8 -14 5 -8 -3 -17 -2 -20 4 -2
5 -3 4 -2 -2z"/>
<path d="M2870 261 c13 -10 13 -12 0 -22 -13 -9 -13 -10 0 -6 8 2 15 10 15 17
0 7 -7 15 -15 17 -13 4 -13 3 0 -6z"/>
<path d="M2590 253 c0 -6 8 -17 18 -24 16 -13 16 -13 2 6 -8 11 -16 22 -17 24
-2 2 -3 0 -3 -6z"/>
<path d="M2804 249 c-4 -7 -3 -9 4 -5 7 4 10 -1 9 -14 -1 -21 -12 -27 -20 -10
-3 6 -4 5 -3 -2 4 -22 29 -15 32 9 4 25 -11 39 -22 22z"/>
<path d="M2974 252 c5 -8 -1 -12 -16 -13 l-23 -1 23 -6 c13 -4 23 -11 23 -17
-1 -5 9 -10 22 -10 16 0 21 5 19 20 -2 15 3 21 18 21 25 0 23 -24 -5 -49 -20
-18 -19 -18 6 -2 35 21 34 60 -1 59 -19 0 -25 -5 -24 -22 0 -15 -5 -22 -17
-22 -12 0 -17 6 -14 20 2 11 -1 23 -7 26 -7 4 -8 2 -4 -4z"/>
<path d="M3150 250 c0 -5 5 -10 10 -10 6 0 10 5 10 10 0 6 -4 10 -10 10 -5 0
-10 -4 -10 -10z"/>
<path d="M2659 238 c-1 -7 -1 -16 0 -20 2 -12 -17 -10 -22 2 -3 6 -4 5 -3 -2
4 -22 29 -14 32 10 2 12 2 22 -1 22 -3 0 -6 -6 -6 -12z"/>
<path d="M2900 240 c0 -21 -2 -25 -16 -33 -16 -9 -19 -27 -3 -27 5 0 8 4 5 9
-4 5 -1 11 6 13 11 4 23 48 13 48 -3 0 -5 -4 -5 -10z"/>
<path d="M3187 238 c-12 -10 -14 -17 -6 -28 9 -13 10 -13 6 0 -2 8 3 20 12 27
9 7 13 13 10 13 -3 0 -13 -6 -22 -12z"/>
<path d="M2712 226 c7 -8 15 -12 17 -11 5 6 -10 25 -20 25 -5 0 -4 -6 3 -14z"/>
<path d="M2756 225 c4 -8 8 -15 10 -15 2 0 4 7 4 15 0 8 -4 15 -10 15 -5 0 -7
-7 -4 -15z"/>
<path d="M3095 231 c-3 -6 -3 -11 2 -11 4 0 -5 -9 -22 -20 -16 -11 -26 -20
-22 -20 16 0 57 32 51 41 -3 5 4 9 15 9 12 0 20 -5 19 -12 -2 -6 6 -13 17 -15
18 -3 18 -2 2 5 -10 4 -17 12 -15 17 4 14 -39 19 -47 6z"/>
<path d="M2844 205 c-19 -15 -19 -15 1 -30 11 -9 19 -19 18 -23 -2 -4 6 -7 17
-7 11 0 21 5 22 10 1 6 11 17 22 26 16 13 16 16 3 16 -9 0 -14 -4 -12 -8 3 -4
-2 -10 -11 -13 -8 -3 -12 -10 -9 -16 3 -5 -3 -10 -15 -10 -12 0 -19 4 -15 9 3
6 -3 14 -12 20 -17 9 -17 11 2 25 11 8 17 16 14 16 -3 0 -14 -7 -25 -15z"/>
<path d="M2615 190 c3 -5 8 -10 11 -10 2 0 4 5 4 10 0 6 -5 10 -11 10 -5 0 -7
-4 -4 -10z"/>
<path d="M2730 196 c0 -2 7 -7 16 -10 8 -3 12 -2 9 4 -6 10 -25 14 -25 6z"/>
<path d="M2770 190 c0 -5 5 -10 10 -10 6 0 10 5 10 10 0 6 -4 10 -10 10 -5 0
-10 -4 -10 -10z"/>
<path d="M2960 190 c8 -5 20 -10 25 -10 6 0 3 5 -5 10 -8 5 -19 10 -25 10 -5
0 -3 -5 5 -10z"/>
<path d="M3102 192 c-8 -6 -2 -9 18 -9 20 0 26 3 18 9 -7 4 -15 8 -18 8 -3 0
-11 -4 -18 -8z"/>
<path d="M2656 171 c-3 -5 2 -15 12 -22 15 -13 16 -12 4 3 -11 14 -10 17 10
21 22 4 22 4 1 6 -12 0 -24 -3 -27 -8z"/>
<path d="M2725 169 c-4 -6 -4 -13 -1 -16 3 -4 6 -1 6 6 0 7 5 9 12 5 7 -4 8
-3 4 4 -9 15 -13 15 -21 1z"/>
<path d="M2795 169 c-11 -16 -1 -19 13 -3 7 8 8 14 3 14 -5 0 -13 -5 -16 -11z"/>
<path d="M2939 178 c-7 -33 -7 -48 0 -53 5 -3 13 0 17 6 4 7 3 9 -4 5 -7 -4
-10 1 -9 14 1 21 12 27 20 10 3 -6 4 -5 3 2 -2 10 -25 25 -27 16z"/>
<path d="M2756 155 c-3 -8 -1 -15 4 -15 6 0 10 7 10 15 0 8 -2 15 -4 15 -2 0
-6 -7 -10 -15z"/>
<path d="M2990 155 c0 -8 4 -15 10 -15 5 0 7 7 4 15 -4 8 -8 15 -10 15 -2 0
-4 -7 -4 -15z"/>
<path d="M3030 160 c0 -5 5 -10 10 -10 6 0 10 5 10 10 0 6 -4 10 -10 10 -5 0
-10 -4 -10 -10z"/>
<path d="M3070 155 c0 -8 4 -15 8 -15 5 0 9 7 9 15 0 8 -4 15 -9 15 -4 0 -8
-7 -8 -15z"/>
<path d="M3110 161 c0 -5 7 -11 14 -14 10 -4 13 -1 9 9 -6 15 -23 19 -23 5z"/>
<path d="M2690 145 c0 -8 2 -15 4 -15 2 0 6 7 10 15 3 8 1 15 -4 15 -6 0 -10
-7 -10 -15z"/>
<path d="M2817 143 c5 -12 3 -14 -7 -8 -9 5 -11 4 -6 -4 4 -6 12 -9 17 -6 12
8 12 35 -1 35 -5 0 -6 -7 -3 -17z"/>
<path d="M2710 128 c0 -6 7 -7 16 -4 12 5 15 2 10 -9 -3 -9 -2 -13 4 -10 6 3
10 1 10 -6 0 -7 3 -10 6 -6 9 9 -12 40 -30 43 -9 1 -16 -2 -16 -8z"/>
<path d="M2839 128 c-1 -7 -1 -19 0 -27 2 -7 -2 -10 -8 -7 -15 10 -25 -14 -12
-27 9 -9 11 -8 5 6 -4 12 -2 17 7 15 8 -2 14 8 15 25 2 15 1 27 -2 27 -2 0 -5
-6 -5 -12z"/>
<path d="M2913 115 c1 -17 7 -29 12 -27 5 2 13 -5 17 -15 7 -16 8 -16 5 2 -2
11 -9 19 -16 17 -8 -2 -11 3 -8 11 3 8 1 20 -4 28 -5 9 -7 4 -6 -16z"/>
<path d="M2972 135 c4 -4 0 -14 -10 -21 -9 -7 -12 -14 -6 -14 6 0 17 6 23 14
9 11 9 16 -1 22 -7 4 -10 4 -6 -1z"/>
<path d="M3015 132 c-9 -9 -5 -32 5 -32 5 0 7 6 4 14 -6 16 26 17 39 1 5 -6 7
-4 5 4 -4 14 -43 23 -53 13z"/>
<path d="M3095 129 c-4 -6 -5 -12 -2 -15 2 -3 7 2 10 11 7 17 1 20 -8 4z"/>
<path d="M2785 110 c3 -5 11 -10 16 -10 6 0 7 5 4 10 -3 6 -11 10 -16 10 -6 0
-7 -4 -4 -10z"/>
<path d="M2867 103 c3 -7 9 -13 15 -13 5 0 7 4 4 9 -4 5 0 11 6 14 7 3 3 4 -8
4 -14 -1 -20 -6 -17 -14z"/>
<path d="M2990 90 c0 -6 7 -10 15 -10 8 0 15 2 15 4 0 2 -7 6 -15 10 -8 3 -15
1 -15 -4z"/>
<path d="M2970 81 c0 -6 4 -13 10 -16 6 -3 7 1 4 9 -7 18 -14 21 -14 7z"/>
<path d="M2850 70 c0 -5 5 -10 10 -10 6 0 10 5 10 10 0 6 -4 10 -10 10 -5 0
-10 -4 -10 -10z"/>
<path d="M2890 70 c0 -5 5 -10 10 -10 6 0 10 5 10 10 0 6 -4 10 -10 10 -5 0
-10 -4 -10 -10z"/>
</g>
</svg>
