<?xml version="1.0" encoding="utf-8"?>
<!-- Generator: Adobe Illustrator 21.1.0, SVG Export Plug-In . SVG Version: 6.00 Build 0)  -->
<svg version="1.1" id="Layer_1" xmlns="http://www.w3.org/2000/svg" xmlns:xlink="http://www.w3.org/1999/xlink" x="0px" y="0px"
	 viewBox="0 0 65 47" style="enable-background:new 0 0 65 47;" xml:space="preserve">
<style type="text/css">
	.st0{opacity:0.9;fill:url(#SVGID_1_);enable-background:new    ;}
	.st1{opacity:0.9;fill:url(#SVGID_2_);enable-background:new    ;}
	.st2{opacity:0.5;fill:url(#SVGID_3_);enable-background:new    ;}
	.st3{opacity:0.5;fill:url(#SVGID_4_);enable-background:new    ;}
	.st4{opacity:0.5;fill:url(#SVGID_5_);enable-background:new    ;}
	.st5{opacity:0.5;fill:url(#SVGID_6_);enable-background:new    ;}
	.st6{opacity:0.5;fill:url(#SVGID_7_);enable-background:new    ;}
	.st7{opacity:0.5;fill:url(#SVGID_8_);enable-background:new    ;}
</style>
<title>karma points color</title>
<linearGradient id="SVGID_1_" gradientUnits="userSpaceOnUse" x1="1369.8137" y1="979.808" x2="1399.8137" y2="1031.208" gradientTransform="matrix(-0.34 0.94 -0.94 -0.34 1441.3207 -926.692)">
	<stop  offset="0" style="stop-color:#BF1E58"/>
	<stop  offset="0.59" style="stop-color:#806BAD"/>
	<stop  offset="1" style="stop-color:#24ADE0"/>
</linearGradient>
<path class="st0" d="M0.1,22.7l3.2,1.2c11.4,4.1,30.1-1.1,30.6-1.4s2.1,0.4,2.8,0.6c6.4,2.1,9.8,9,7.6,15.4s-9,9.8-15.4,7.6
	c-0.2-0.1-0.4-0.1-0.5-0.2C22,43.6,0.1,22.7,0.1,22.7z"/>
<linearGradient id="SVGID_2_" gradientUnits="userSpaceOnUse" x1="761.313" y1="-616.3013" x2="810.483" y2="-582.7713" gradientTransform="matrix(0.342 0.9397 0.9397 -0.342 334.8793 -913.4017)">
	<stop  offset="0" style="stop-color:#BF1E58"/>
	<stop  offset="0.59" style="stop-color:#806BAD"/>
	<stop  offset="1" style="stop-color:#24ADE0"/>
</linearGradient>
<path class="st1" d="M64.9,22.7l-3.2,1.2c-11.4,4.1-30.1-1.1-30.6-1.4S29,22.8,28.4,23c-6.4,2.1-9.8,9-7.6,15.4s9,9.8,15.4,7.6
	c0.2-0.1,0.4-0.1,0.5-0.2C43,43.6,64.9,22.7,64.9,22.7z"/>
<linearGradient id="SVGID_3_" gradientUnits="userSpaceOnUse" x1="103.5476" y1="717.5841" x2="133.5476" y2="768.9841" gradientTransform="matrix(0.7071 -0.7071 -0.7071 -0.7071 469.4634 635.9361)">
	<stop  offset="0" style="stop-color:#BF1E58"/>
	<stop  offset="0.59" style="stop-color:#806BAD"/>
	<stop  offset="1" style="stop-color:#24ADE0"/>
</linearGradient>
<path class="st2" d="M8.1,10.1l2.4,2.4c8.6,8.5,11.7,27.8,11.7,28.3c0,0.5,1.2,1.7,1.7,2.2c4.7,4.7,12.4,4.7,17.2,0s4.7-12.4,0-17.2
	C36.3,21.2,8.1,10.1,8.1,10.1z"/>
<linearGradient id="SVGID_4_" gradientUnits="userSpaceOnUse" x1="1639.9213" y1="732.2261" x2="1669.9113" y2="783.626" gradientTransform="matrix(-0.71 0.71 -0.71 -0.71 1731.8307 -608.5759)">
	<stop  offset="0" style="stop-color:#BF1E58"/>
	<stop  offset="0.59" style="stop-color:#806BAD"/>
	<stop  offset="1" style="stop-color:#24ADE0"/>
</linearGradient>
<path class="st3" d="M8.1,10.1l2.4,2.4c8.6,8.5,27.8,11.7,28.3,11.7s1.7,1.2,2.2,1.7c4.9,4.6,5.2,12.2,0.7,17.2s-12.2,5.2-17.2,0.7
	c-0.2-0.2-0.5-0.4-0.7-0.7C19.2,38.3,8.1,10.1,8.1,10.1z"/>
<linearGradient id="SVGID_5_" gradientUnits="userSpaceOnUse" x1="435.5002" y1="-532.7348" x2="465.4902" y2="-481.3348" gradientTransform="matrix(0.7071 0.7071 0.7071 -0.7071 80.4672 -647.2632)">
	<stop  offset="0" style="stop-color:#BF1E58"/>
	<stop  offset="0.59" style="stop-color:#806BAD"/>
	<stop  offset="1" style="stop-color:#24ADE0"/>
</linearGradient>
<path class="st4" d="M56.8,10.1l-2.4,2.4C45.9,21,26.7,24.2,26.2,24.2s-1.7,1.2-2.2,1.7c-4.9,4.6-5.2,12.2-0.7,17.2
	s12.2,5.2,17.2,0.7c0.2-0.2,0.5-0.4,0.7-0.7C45.8,38.3,56.8,10.1,56.8,10.1z"/>
<linearGradient id="SVGID_6_" gradientUnits="userSpaceOnUse" x1="1306.7261" y1="-517.3222" x2="1336.7261" y2="-465.9222" gradientTransform="matrix(-0.71 -0.71 0.71 -0.71 1324.9792 615.104)">
	<stop  offset="0" style="stop-color:#BF1E58"/>
	<stop  offset="0.59" style="stop-color:#806BAD"/>
	<stop  offset="1" style="stop-color:#24ADE0"/>
</linearGradient>
<path class="st5" d="M56.8,10.1l-2.4,2.4C45.9,21,42.8,40.3,42.8,40.8c0,0.5-1.2,1.7-1.7,2.2c-4.7,4.7-12.4,4.7-17.2,0
	s-4.7-12.4,0-17.2l0,0C28.7,21.2,56.8,10.1,56.8,10.1z"/>
<linearGradient id="SVGID_7_" gradientUnits="userSpaceOnUse" x1="10.6109" y1="23.682" x2="40.6009" y2="75.082" gradientTransform="matrix(1 0 0 -1 9.21 74.8966)">
	<stop  offset="0" style="stop-color:#BF1E58"/>
	<stop  offset="0.59" style="stop-color:#806BAD"/>
	<stop  offset="1" style="stop-color:#24ADE0"/>
</linearGradient>
<path class="st6" d="M32.5,0v3.4c0,12.1-11.4,27.9-11.8,28.2c-0.4,0.4-0.4,2.1-0.4,2.8c-0.2,6.7,5.1,12.3,11.8,12.5
	c6.7,0.2,12.3-5.1,12.5-11.8c0-0.2,0-0.5,0-0.7C44.6,27.8,32.5,0,32.5,0z"/>
<linearGradient id="SVGID_8_" gradientUnits="userSpaceOnUse" x1="1736.7821" y1="35.9412" x2="1766.7821" y2="87.3512" gradientTransform="matrix(-1 0 0 -1 1781.97 87.1666)">
	<stop  offset="0" style="stop-color:#BF1E58"/>
	<stop  offset="0.59" style="stop-color:#806BAD"/>
	<stop  offset="1" style="stop-color:#24ADE0"/>
</linearGradient>
<path class="st7" d="M32.5,0v3.4c0,12.1,11.4,27.9,11.8,28.2c0.4,0.4,0.4,2.1,0.4,2.8c0.2,6.7-5.1,12.3-11.8,12.5
	s-12.3-5.1-12.5-11.8c0-0.2,0-0.5,0-0.7C20.4,27.8,32.5,0,32.5,0z"/>
</svg>
