<?xml version="1.0" encoding="utf-8"?>
<!-- Generator: Adobe Illustrator 21.1.0, SVG Export Plug-In . SVG Version: 6.00 Build 0)  -->
<svg version="1.1" id="Layer_1" xmlns="http://www.w3.org/2000/svg" xmlns:xlink="http://www.w3.org/1999/xlink" x="0px" y="0px"
	 viewBox="0 0 65 47" style="enable-background:new 0 0 65 47;" xml:space="preserve">
<style type="text/css">
	.st0{opacity:0.9;fill:url(#SVGID_1_);enable-background:new    ;}
	.st1{opacity:0.9;fill:url(#SVGID_2_);enable-background:new    ;}
	.st2{opacity:0.9;fill:url(#SVGID_3_);enable-background:new    ;}
	.st3{opacity:0.9;fill:url(#SVGID_4_);enable-background:new    ;}
	.st4{opacity:0.9;fill:url(#SVGID_5_);enable-background:new    ;}
	.st5{opacity:0.9;fill:url(#SVGID_6_);enable-background:new    ;}
	.st6{opacity:0.9;fill:url(#SVGID_7_);enable-background:new    ;}
	.st7{opacity:0.9;fill:url(#SVGID_8_);enable-background:new    ;}
</style>
<title>karma points white</title>
<linearGradient id="SVGID_1_" gradientUnits="userSpaceOnUse" x1="1361.4641" y1="962.4291" x2="1391.1641" y2="1013.3292" gradientTransform="matrix(-0.34 0.94 -0.94 -0.34 1440.3401 -928.09)">
	<stop  offset="0" style="stop-color:#FDFDFE;stop-opacity:0"/>
	<stop  offset="0.16" style="stop-color:#FDFDFE;stop-opacity:1.000000e-02"/>
	<stop  offset="0.29" style="stop-color:#FDFDFE;stop-opacity:5.000000e-02"/>
	<stop  offset="0.41" style="stop-color:#FDFDFE;stop-opacity:0.12"/>
	<stop  offset="0.53" style="stop-color:#FDFDFE;stop-opacity:0.21"/>
	<stop  offset="0.63" style="stop-color:#FDFDFE;stop-opacity:0.33"/>
	<stop  offset="0.74" style="stop-color:#FDFDFE;stop-opacity:0.48"/>
	<stop  offset="0.84" style="stop-color:#FDFDFE;stop-opacity:0.66"/>
	<stop  offset="0.94" style="stop-color:#FDFDFE;stop-opacity:0.86"/>
	<stop  offset="1" style="stop-color:#FDFDFE"/>
</linearGradient>
<path class="st0" d="M0.5,22.8L3.6,24c11.2,4.1,29.8-1.1,30.2-1.4s2.1,0.3,2.7,0.6c6.2,2.3,9.5,9.2,7.2,15.4
	c-2.3,6.2-9.2,9.5-15.4,7.2C22.1,43.5,0.5,22.8,0.5,22.8z"/>
<linearGradient id="SVGID_2_" gradientUnits="userSpaceOnUse" x1="789.0743" y1="-642.9771" x2="787.6843" y2="-584.0671" gradientTransform="matrix(0.342 0.9397 0.9397 -0.342 335.8597 -914.8018)">
	<stop  offset="0" style="stop-color:#FDFDFE;stop-opacity:0"/>
	<stop  offset="0.16" style="stop-color:#FDFDFE;stop-opacity:1.000000e-02"/>
	<stop  offset="0.23" style="stop-color:#FDFDFE;stop-opacity:3.000000e-02"/>
	<stop  offset="0.31" style="stop-color:#FDFDFE;stop-opacity:5.000000e-02"/>
	<stop  offset="0.41" style="stop-color:#FDFDFE;stop-opacity:0.1"/>
	<stop  offset="0.51" style="stop-color:#FDFDFE;stop-opacity:0.18"/>
	<stop  offset="0.62" style="stop-color:#FDFDFE;stop-opacity:0.3"/>
	<stop  offset="0.73" style="stop-color:#FDFDFE;stop-opacity:0.46"/>
	<stop  offset="0.84" style="stop-color:#FDFDFE;stop-opacity:0.65"/>
	<stop  offset="0.94" style="stop-color:#FDFDFE;stop-opacity:0.87"/>
	<stop  offset="1" style="stop-color:#FDFDFE"/>
</linearGradient>
<path class="st1" d="M64.5,22.8L61.4,24c-11.2,4.1-29.8-1.1-30.2-1.4s-2.1,0.3-2.7,0.6c-6.2,2.3-9.5,9.2-7.2,15.4s9.2,9.5,15.4,7.2
	C42.8,43.5,64.5,22.8,64.5,22.8z"/>
<linearGradient id="SVGID_3_" gradientUnits="userSpaceOnUse" x1="102.9097" y1="715.9363" x2="132.6097" y2="766.8264" gradientTransform="matrix(0.7071 -0.7071 -0.7071 -0.7071 468.7257 634.1551)">
	<stop  offset="0" style="stop-color:#FDFDFE;stop-opacity:0"/>
	<stop  offset="0.16" style="stop-color:#FDFDFE;stop-opacity:1.000000e-02"/>
	<stop  offset="0.29" style="stop-color:#FDFDFE;stop-opacity:5.000000e-02"/>
	<stop  offset="0.41" style="stop-color:#FDFDFE;stop-opacity:0.12"/>
	<stop  offset="0.53" style="stop-color:#FDFDFE;stop-opacity:0.21"/>
	<stop  offset="0.63" style="stop-color:#FDFDFE;stop-opacity:0.33"/>
	<stop  offset="0.74" style="stop-color:#FDFDFE;stop-opacity:0.48"/>
	<stop  offset="0.84" style="stop-color:#FDFDFE;stop-opacity:0.66"/>
	<stop  offset="0.94" style="stop-color:#FDFDFE;stop-opacity:0.86"/>
	<stop  offset="1" style="stop-color:#FDFDFE"/>
</linearGradient>
<path class="st2" d="M8.4,10.4l2.4,2.4c8.5,8.5,11.6,27.5,11.5,28s1.2,1.7,1.7,2.2c4.7,4.7,12.3,4.7,17,0s4.7-12.3,0-17
	C36.3,21.3,8.4,10.4,8.4,10.4z"/>
<linearGradient id="SVGID_4_" gradientUnits="userSpaceOnUse" x1="1640.7137" y1="730.6381" x2="1670.4137" y2="781.5381" gradientTransform="matrix(-0.71 0.71 -0.71 -0.71 1731.09 -610.36)">
	<stop  offset="0" style="stop-color:#FDFDFE;stop-opacity:0"/>
	<stop  offset="0.16" style="stop-color:#FDFDFE;stop-opacity:1.000000e-02"/>
	<stop  offset="0.29" style="stop-color:#FDFDFE;stop-opacity:5.000000e-02"/>
	<stop  offset="0.41" style="stop-color:#FDFDFE;stop-opacity:0.12"/>
	<stop  offset="0.53" style="stop-color:#FDFDFE;stop-opacity:0.21"/>
	<stop  offset="0.63" style="stop-color:#FDFDFE;stop-opacity:0.33"/>
	<stop  offset="0.74" style="stop-color:#FDFDFE;stop-opacity:0.48"/>
	<stop  offset="0.84" style="stop-color:#FDFDFE;stop-opacity:0.66"/>
	<stop  offset="0.94" style="stop-color:#FDFDFE;stop-opacity:0.86"/>
	<stop  offset="1" style="stop-color:#FDFDFE"/>
</linearGradient>
<path class="st3" d="M8.4,10.4l2.4,2.4c8.5,8.5,27.5,11.6,28,11.5s1.7,1.2,2.2,1.7c4.7,4.7,4.7,12.3,0,17s-12.3,4.7-17,0
	C19.3,38.3,8.4,10.4,8.4,10.4z"/>
<linearGradient id="SVGID_5_" gradientUnits="userSpaceOnUse" x1="436.2937" y1="-534.3226" x2="465.9937" y2="-483.4326" gradientTransform="matrix(0.7071 0.7071 0.7071 -0.7071 81.2049 -649.0443)">
	<stop  offset="0" style="stop-color:#FDFDFE;stop-opacity:0"/>
	<stop  offset="0.16" style="stop-color:#FDFDFE;stop-opacity:1.000000e-02"/>
	<stop  offset="0.29" style="stop-color:#FDFDFE;stop-opacity:5.000000e-02"/>
	<stop  offset="0.41" style="stop-color:#FDFDFE;stop-opacity:0.12"/>
	<stop  offset="0.53" style="stop-color:#FDFDFE;stop-opacity:0.21"/>
	<stop  offset="0.63" style="stop-color:#FDFDFE;stop-opacity:0.33"/>
	<stop  offset="0.74" style="stop-color:#FDFDFE;stop-opacity:0.48"/>
	<stop  offset="0.84" style="stop-color:#FDFDFE;stop-opacity:0.66"/>
	<stop  offset="0.94" style="stop-color:#FDFDFE;stop-opacity:0.86"/>
	<stop  offset="1" style="stop-color:#FDFDFE"/>
</linearGradient>
<path class="st4" d="M56.6,10.4l-2.4,2.4c-8.5,8.5-27.5,11.6-28,11.5S24.5,25.5,24,26c-4.7,4.7-4.7,12.3,0,17s12.3,4.7,17,0
	C45.7,38.3,56.6,10.4,56.6,10.4z"/>
<linearGradient id="SVGID_6_" gradientUnits="userSpaceOnUse" x1="1306.0897" y1="-518.9752" x2="1335.7897" y2="-468.0752" gradientTransform="matrix(-0.71 -0.71 0.71 -0.71 1325.72 613.3199)">
	<stop  offset="0" style="stop-color:#FDFDFE;stop-opacity:0"/>
	<stop  offset="0.16" style="stop-color:#FDFDFE;stop-opacity:1.000000e-02"/>
	<stop  offset="0.29" style="stop-color:#FDFDFE;stop-opacity:5.000000e-02"/>
	<stop  offset="0.41" style="stop-color:#FDFDFE;stop-opacity:0.12"/>
	<stop  offset="0.53" style="stop-color:#FDFDFE;stop-opacity:0.21"/>
	<stop  offset="0.63" style="stop-color:#FDFDFE;stop-opacity:0.33"/>
	<stop  offset="0.74" style="stop-color:#FDFDFE;stop-opacity:0.48"/>
	<stop  offset="0.84" style="stop-color:#FDFDFE;stop-opacity:0.66"/>
	<stop  offset="0.94" style="stop-color:#FDFDFE;stop-opacity:0.86"/>
	<stop  offset="1" style="stop-color:#FDFDFE"/>
</linearGradient>
<path class="st5" d="M56.6,10.4l-2.4,2.4c-8.5,8.5-11.6,27.5-11.5,28S41.5,42.5,41,43c-4.7,4.7-12.3,4.7-17,0s-4.7-12.3,0-17
	C28.7,21.3,56.6,10.4,56.6,10.4z"/>
<linearGradient id="SVGID_7_" gradientUnits="userSpaceOnUse" x1="10.6515" y1="21.76" x2="40.3515" y2="72.66" gradientTransform="matrix(1 0 0 -1 9.21 72.81)">
	<stop  offset="0" style="stop-color:#FDFDFE;stop-opacity:0"/>
	<stop  offset="0.16" style="stop-color:#FDFDFE;stop-opacity:1.000000e-02"/>
	<stop  offset="0.29" style="stop-color:#FDFDFE;stop-opacity:5.000000e-02"/>
	<stop  offset="0.41" style="stop-color:#FDFDFE;stop-opacity:0.12"/>
	<stop  offset="0.53" style="stop-color:#FDFDFE;stop-opacity:0.21"/>
	<stop  offset="0.63" style="stop-color:#FDFDFE;stop-opacity:0.33"/>
	<stop  offset="0.74" style="stop-color:#FDFDFE;stop-opacity:0.48"/>
	<stop  offset="0.84" style="stop-color:#FDFDFE;stop-opacity:0.66"/>
	<stop  offset="0.94" style="stop-color:#FDFDFE;stop-opacity:0.86"/>
	<stop  offset="1" style="stop-color:#FDFDFE"/>
</linearGradient>
<path class="st6" d="M32.5,0.4v3.4c0,12-11.3,27.6-11.6,28c-0.4,0.4-0.4,2.1-0.4,2.8c0,6.6,5.4,12,12,12s12-5.4,12-12
	C44.5,27.9,32.5,0.4,32.5,0.4z"/>
<linearGradient id="SVGID_8_" gradientUnits="userSpaceOnUse" x1="1736.8289" y1="34.0315" x2="1766.5289" y2="84.9215" gradientTransform="matrix(-1 0 0 -1 1781.97 85.08)">
	<stop  offset="0" style="stop-color:#FDFDFE;stop-opacity:0"/>
	<stop  offset="0.16" style="stop-color:#FDFDFE;stop-opacity:1.000000e-02"/>
	<stop  offset="0.29" style="stop-color:#FDFDFE;stop-opacity:5.000000e-02"/>
	<stop  offset="0.41" style="stop-color:#FDFDFE;stop-opacity:0.12"/>
	<stop  offset="0.53" style="stop-color:#FDFDFE;stop-opacity:0.21"/>
	<stop  offset="0.63" style="stop-color:#FDFDFE;stop-opacity:0.33"/>
	<stop  offset="0.74" style="stop-color:#FDFDFE;stop-opacity:0.48"/>
	<stop  offset="0.84" style="stop-color:#FDFDFE;stop-opacity:0.66"/>
	<stop  offset="0.94" style="stop-color:#FDFDFE;stop-opacity:0.86"/>
	<stop  offset="1" style="stop-color:#FDFDFE"/>
</linearGradient>
<path class="st7" d="M32.5,0.4v3.4c0,12,11.3,27.6,11.6,28c0.4,0.4,0.4,2.1,0.4,2.8c0,6.6-5.4,12-12,12s-12-5.4-12-12
	C20.5,27.9,32.5,0.4,32.5,0.4z"/>
</svg>
