<svg id="Layer_1" data-name="Layer 1" xmlns="http://www.w3.org/2000/svg" xmlns:xlink="http://www.w3.org/1999/xlink" viewBox="0 0 65 65"><defs><style>.cls-1,.cls-2,.cls-3,.cls-4,.cls-5,.cls-6,.cls-7,.cls-8{opacity:0.9;}.cls-1{fill:url(#Fade_to_White_1);}.cls-2{fill:url(#linear-gradient);}.cls-3{fill:url(#Fade_to_White_1-2);}.cls-4{fill:url(#Fade_to_White_1-3);}.cls-5{fill:url(#Fade_to_White_1-4);}.cls-6{fill:url(#Fade_to_White_1-5);}.cls-7{fill:url(#Fade_to_White_1-6);}.cls-8{fill:url(#Fade_to_White_1-7);}</style><linearGradient id="Fade_to_White_1" x1="1376.99" y1="-912.47" x2="1406.69" y2="-963.37" gradientTransform="matrix(-0.34, 0.94, 0.94, 0.34, 1399.16, -947.15)" gradientUnits="userSpaceOnUse"><stop offset="0" stop-color="#fdfdfe" stop-opacity="0"/><stop offset="0.16" stop-color="#fdfdfe" stop-opacity="0.01"/><stop offset="0.29" stop-color="#fdfdfe" stop-opacity="0.05"/><stop offset="0.41" stop-color="#fdfdfe" stop-opacity="0.12"/><stop offset="0.53" stop-color="#fdfdfe" stop-opacity="0.21"/><stop offset="0.63" stop-color="#fdfdfe" stop-opacity="0.33"/><stop offset="0.74" stop-color="#fdfdfe" stop-opacity="0.48"/><stop offset="0.84" stop-color="#fdfdfe" stop-opacity="0.66"/><stop offset="0.94" stop-color="#fdfdfe" stop-opacity="0.86"/><stop offset="1" stop-color="#fdfdfe"/></linearGradient><linearGradient id="linear-gradient" x1="781.07" y1="749.77" x2="779.68" y2="690.86" gradientTransform="translate(438.95 -934.03) rotate(70)" gradientUnits="userSpaceOnUse"><stop offset="0" stop-color="#fdfdfe" stop-opacity="0"/><stop offset="0.16" stop-color="#fdfdfe" stop-opacity="0.01"/><stop offset="0.23" stop-color="#fdfdfe" stop-opacity="0.03"/><stop offset="0.31" stop-color="#fdfdfe" stop-opacity="0.05"/><stop offset="0.41" stop-color="#fdfdfe" stop-opacity="0.1"/><stop offset="0.51" stop-color="#fdfdfe" stop-opacity="0.18"/><stop offset="0.62" stop-color="#fdfdfe" stop-opacity="0.3"/><stop offset="0.73" stop-color="#fdfdfe" stop-opacity="0.46"/><stop offset="0.84" stop-color="#fdfdfe" stop-opacity="0.65"/><stop offset="0.94" stop-color="#fdfdfe" stop-opacity="0.87"/><stop offset="1" stop-color="#fdfdfe"/></linearGradient><linearGradient id="Fade_to_White_1-2" x1="133.36" y1="-671.23" x2="163.06" y2="-722.12" gradientTransform="translate(415.58 633.85) rotate(-45)" xlink:href="#Fade_to_White_1"/><linearGradient id="Fade_to_White_1-3" x1="1676.14" y1="-683.49" x2="1705.84" y2="-734.39" gradientTransform="matrix(-0.71, 0.71, 0.71, 0.71, 1721.62, -654.85)" xlink:href="#Fade_to_White_1"/><linearGradient id="Fade_to_White_1-4" x1="424" y1="622.87" x2="453.7" y2="571.98" gradientTransform="translate(152.51 -693.19) rotate(45)" xlink:href="#Fade_to_White_1"/><linearGradient id="Fade_to_White_1-5" x1="1385.5" y1="610.61" x2="1415.2" y2="559.71" gradientTransform="matrix(-0.71, -0.71, -0.71, 0.71, 1441.21, 612.85)" xlink:href="#Fade_to_White_1"/><linearGradient id="Fade_to_White_1-6" x1="10.66" y1="36.02" x2="40.36" y2="-14.88" gradientTransform="translate(9.21 24.81)" xlink:href="#Fade_to_White_1"/><linearGradient id="Fade_to_White_1-7" x1="1798.84" y1="23.75" x2="1828.54" y2="-27.14" gradientTransform="matrix(-1, 0, 0, 1, 1843.97, 37.08)" xlink:href="#Fade_to_White_1"/></defs><title>karma points white</title><path class="cls-1" d="M.46,32.6l3.16,1.15c11.23,4.09,29.79-1.14,30.25-1.37s2.07.35,2.73.59a12,12,0,1,1-8.22,22.59C22.15,53.29.46,32.6.46,32.6Z"/><path class="cls-2" d="M64.54,32.6l-3.16,1.15c-11.23,4.09-29.79-1.14-30.25-1.37s-2.07.35-2.73.59a12,12,0,1,0,8.22,22.59C42.85,53.29,64.54,32.6,64.54,32.6Z"/><path class="cls-3" d="M8.39,20.2l2.38,2.38c8.45,8.45,11.56,27.48,11.54,28S23.5,52.3,24,52.8a12,12,0,1,0,17-17C36.3,31.11,8.39,20.2,8.39,20.2Z"/><path class="cls-4" d="M8.39,20.2l2.38,2.38c8.45,8.45,27.48,11.56,28,11.54S40.5,35.31,41,35.81a12,12,0,1,1-17,17C19.31,48.11,8.39,20.2,8.39,20.2Z"/><path class="cls-5" d="M56.61,20.2l-2.38,2.38c-8.45,8.45-27.48,11.56-28,11.54S24.5,35.31,24,35.81a12,12,0,1,0,17,17C45.69,48.11,56.61,20.2,56.61,20.2Z"/><path class="cls-6" d="M56.61,20.2l-2.38,2.38c-8.45,8.45-11.56,27.48-11.54,28S41.5,52.3,41,52.8a12,12,0,1,1-17-17C28.7,31.11,56.61,20.2,56.61,20.2Z"/><path class="cls-7" d="M32.5,10.21v3.37c0,12-11.26,27.6-11.64,28s-.38,2.06-.38,2.76a12,12,0,1,0,24,0C44.52,37.67,32.5,10.21,32.5,10.21Z"/><path class="cls-8" d="M32.5,10.21v3.37c0,12,11.26,27.6,11.64,28s.38,2.06.38,2.76a12,12,0,1,1-24,0C20.48,37.67,32.5,10.21,32.5,10.21Z"/></svg>