<svg id="Layer_1" data-name="Layer 1" xmlns="http://www.w3.org/2000/svg" xmlns:xlink="http://www.w3.org/1999/xlink" viewBox="0 0 65 65"><defs><style>.cls-1,.cls-2{opacity:0.9;}.cls-1{fill:url(#linear-gradient);}.cls-2{fill:url(#linear-gradient-2);}.cls-3,.cls-4,.cls-5,.cls-6,.cls-7,.cls-8{opacity:0.5;}.cls-3{fill:url(#linear-gradient-3);}.cls-4{fill:url(#linear-gradient-4);}.cls-5{fill:url(#linear-gradient-5);}.cls-6{fill:url(#linear-gradient-6);}.cls-7{fill:url(#linear-gradient-7);}.cls-8{fill:url(#linear-gradient-8);}</style><linearGradient id="linear-gradient" x1="1384.54" y1="-929.11" x2="1414.54" y2="-980.51" gradientTransform="matrix(-0.34, 0.94, 0.94, 0.34, 1399.16, -947.15)" gradientUnits="userSpaceOnUse"><stop offset="0" stop-color="#bf1e58"/><stop offset="0.59" stop-color="#806bad"/><stop offset="1" stop-color="#24ade0"/></linearGradient><linearGradient id="linear-gradient-2" x1="752.51" y1="723.77" x2="801.68" y2="690.24" gradientTransform="translate(438.95 -934.03) rotate(70)" xlink:href="#linear-gradient"/><linearGradient id="linear-gradient-3" x1="134.55" y1="-672.38" x2="164.55" y2="-723.78" gradientTransform="translate(415.58 633.85) rotate(-45)" xlink:href="#linear-gradient"/><linearGradient id="linear-gradient-4" x1="1674.7" y1="-684.64" x2="1704.69" y2="-736.04" gradientTransform="matrix(-0.71, 0.71, 0.71, 0.71, 1721.62, -654.85)" xlink:href="#linear-gradient"/><linearGradient id="linear-gradient-5" x1="422.56" y1="621.72" x2="452.55" y2="570.32" gradientTransform="translate(152.51 -693.19) rotate(45)" xlink:href="#linear-gradient"/><linearGradient id="linear-gradient-6" x1="1386.69" y1="609.46" x2="1416.69" y2="558.06" gradientTransform="matrix(-0.71, -0.71, -0.71, 0.71, 1441.21, 612.85)" xlink:href="#linear-gradient"/><linearGradient id="linear-gradient-7" x1="10.54" y1="34.32" x2="40.53" y2="-17.08" gradientTransform="translate(9.21 24.81)" xlink:href="#linear-gradient"/><linearGradient id="linear-gradient-8" x1="1798.71" y1="22.06" x2="1828.71" y2="-29.35" gradientTransform="matrix(-1, 0, 0, 1, 1843.97, 37.08)" xlink:href="#linear-gradient"/></defs><title>karma points color</title><path class="cls-1" d="M.14,30.63l3.2,1.16c11.35,4.13,30.09-1.15,30.56-1.39s2.09.35,2.75.6a12.14,12.14,0,1,1-8.3,22.81C22,51.52.14,30.63.14,30.63Z"/><path class="cls-2" d="M64.86,30.63l-3.2,1.16c-11.35,4.13-30.09-1.15-30.56-1.39s-2.09.35-2.75.6a12.14,12.14,0,1,0,8.3,22.81C43,51.52,64.86,30.63,64.86,30.63Z"/><path class="cls-3" d="M8.15,18.1l2.4,2.4C19.1,29,22.23,48.26,22.21,48.78s1.2,1.74,1.7,2.25A12.14,12.14,0,1,0,41.08,33.86C36.34,29.12,8.15,18.1,8.15,18.1Z"/><path class="cls-4" d="M8.15,18.1l2.4,2.4C19.1,29,38.31,32.18,38.84,32.16s1.74,1.2,2.25,1.7A12.14,12.14,0,1,1,23.92,51C19.18,46.29,8.15,18.1,8.15,18.1Z"/><path class="cls-5" d="M56.85,18.1l-2.4,2.4C45.9,29,26.69,32.18,26.16,32.16s-1.74,1.2-2.25,1.7A12.14,12.14,0,1,0,41.08,51C45.82,46.29,56.85,18.1,56.85,18.1Z"/><path class="cls-6" d="M56.85,18.1l-2.4,2.4C45.9,29,42.77,48.26,42.79,48.78s-1.2,1.74-1.7,2.25A12.14,12.14,0,1,1,23.92,33.86C28.66,29.12,56.85,18.1,56.85,18.1Z"/><path class="cls-7" d="M32.5,8v3.4c0,12.07-11.37,27.88-11.75,28.24s-.38,2.08-.38,2.79a12.14,12.14,0,1,0,24.27,0C44.64,35.74,32.5,8,32.5,8Z"/><path class="cls-8" d="M32.5,8v3.4c0,12.07,11.37,27.88,11.75,28.24s.38,2.08.38,2.79a12.14,12.14,0,1,1-24.27,0C20.36,35.74,32.5,8,32.5,8Z"/></svg>