<svg id="Layer_1" data-name="Layer 1" xmlns="http://www.w3.org/2000/svg" xmlns:xlink="http://www.w3.org/1999/xlink" viewBox="0 0 80 80"><defs><style>.cls-1{fill:url(#linear-gradient);}.cls-2{fill:url(#linear-gradient-2);}.cls-3{opacity:0.1;fill:url(#Brick_6);}.cls-4,.cls-5{opacity:0.39;}.cls-4{fill:url(#linear-gradient-3);}.cls-5{fill:url(#Heatherstone);}</style><linearGradient id="linear-gradient" x1="610.81" y1="800.61" x2="568.58" y2="857.79" gradientTransform="translate(853 -563.55) rotate(89.53)" gradientUnits="userSpaceOnUse"><stop offset="0" stop-color="#bf1e58"/><stop offset="0.59" stop-color="#806bad"/><stop offset="1" stop-color="#24ade0"/></linearGradient><linearGradient id="linear-gradient-2" x1="592.58" y1="824.27" x2="629.51" y2="774.26" xlink:href="#linear-gradient"/><linearGradient id="Brick_6" x1="592.58" y1="824.27" x2="629.51" y2="774.26" gradientTransform="translate(853 -563.55) rotate(89.53)" gradientUnits="userSpaceOnUse"><stop offset="0" stop-color="#efebe7"/><stop offset="0.49" stop-color="#e9e4db"/><stop offset="1" stop-color="#c9cacc"/></linearGradient><linearGradient id="linear-gradient-3" x1="633.61" y1="790.65" x2="661.35" y2="790.65" gradientTransform="translate(-736.96 -728.43) scale(1.24 1)" gradientUnits="userSpaceOnUse"><stop offset="0" stop-color="#d2d5e0"/><stop offset="0.02" stop-color="#cfd2dd"/><stop offset="0.16" stop-color="#bbc0cc"/><stop offset="0.31" stop-color="#b0b5c2"/><stop offset="0.47" stop-color="#acb1bf"/><stop offset="0.64" stop-color="#a8adbb"/><stop offset="0.81" stop-color="#9ea2af"/><stop offset="0.98" stop-color="#8c909c"/><stop offset="0.99" stop-color="#8a8e9a"/></linearGradient><linearGradient id="Heatherstone" x1="557.18" y1="847.49" x2="584.92" y2="847.49" gradientTransform="translate(-560.86 -833.11)" gradientUnits="userSpaceOnUse"><stop offset="0.01" stop-color="#8a8e9a"/><stop offset="0.02" stop-color="#8c909c"/><stop offset="0.19" stop-color="#9ea2af"/><stop offset="0.36" stop-color="#a8adbb"/><stop offset="0.53" stop-color="#acb1bf"/><stop offset="0.69" stop-color="#b0b5c2"/><stop offset="0.84" stop-color="#bbc0cc"/><stop offset="0.98" stop-color="#cfd2dd"/><stop offset="1" stop-color="#d2d5e0"/></linearGradient></defs><title>logo color</title><path class="cls-1" d="M47.2,56.59c0-.05,0-.1,0-.15s0-.08,0-.13l-.13-16.18V37.91l-.13-15.43a5.74,5.74,0,0,1,11.47-.09v.4l0,2.73v.08l0,3.76a8.67,8.67,0,0,0,8.71,8.57h0a8.67,8.67,0,0,0,8.57-8.71l0-3.76v-.08l0-2.73h0a23,23,0,0,0-45.86-2.27,8.58,8.58,0,0,0-.19,1.83L29.76,38l0,2.22L29.91,56a5.74,5.74,0,0,1-11.47.09l-.08-10.38,0-2.27A8.64,8.64,0,1,0,1,43.57l.11,13.76c0,.12,0,.24,0,.37a23,23,0,0,0,46-1.12Z"/><path class="cls-2" d="M47.05,56.59h.15l-.13-16.46,0-2.22v-.34l-.12-14.81v-.29a5.73,5.73,0,0,1,10.75-2.82,14.28,14.28,0,0,0-28,3.24h0v.35c0,.16,0,.32,0,.48s0,.32,0,.48L29.79,38l0,2.22v.61h0L29.89,56A5.73,5.73,0,0,1,19.14,58.8a14.28,14.28,0,0,0,27.91-2.21Z"/><path class="cls-3" d="M47.05,56.59h.15l-.13-16.46,0-2.22v-.34l-.12-14.81v-.29a5.73,5.73,0,0,1,10.75-2.82,14.28,14.28,0,0,0-28,3.24h0v.35c0,.16,0,.32,0,.48s0,.32,0,.48L29.79,38l0,2.22v.61h0L29.89,56A5.73,5.73,0,0,1,19.14,58.8a14.28,14.28,0,0,0,27.91-2.21Z"/><rect class="cls-4" x="50.19" y="53.63" width="34.46" height="17.18" rx="8.59" ry="8.59" transform="translate(129.08 -5.7) rotate(89.53)"/><rect class="cls-5" x="-3.68" y="5.78" width="27.74" height="17.18" rx="8.59" ry="8.59" transform="translate(24.48 4.07) rotate(89.53)"/></svg>