<svg id="Layer_1" data-name="Layer 1" xmlns="http://www.w3.org/2000/svg" xmlns:xlink="http://www.w3.org/1999/xlink" viewBox="0 0 80 80"><defs><style>.cls-1{fill:url(#linear-gradient);}.cls-2{fill:url(#linear-gradient-2);}.cls-3{fill:#fff;opacity:0.4;}</style><linearGradient id="linear-gradient" x1="610.81" y1="800.66" x2="568.58" y2="857.84" gradientTransform="translate(853 -563.55) rotate(89.53)" gradientUnits="userSpaceOnUse"><stop offset="0" stop-color="#fff"/><stop offset="0.59" stop-color="#fff" stop-opacity="0.5"/><stop offset="1" stop-color="#fff"/></linearGradient><linearGradient id="linear-gradient-2" x1="592.58" y1="824.32" x2="629.51" y2="774.31" gradientTransform="translate(853 -563.55) rotate(89.53)" gradientUnits="userSpaceOnUse"><stop offset="0" stop-color="#fff" stop-opacity="0.7"/><stop offset="0.59" stop-color="#fff" stop-opacity="0.2"/><stop offset="1" stop-color="#fff" stop-opacity="0.8"/></linearGradient></defs><title>logo white</title><path class="cls-1" d="M47.15,56.59c0-.05,0-.1,0-.15s0-.08,0-.13L47,40.13V37.91l-.13-15.43a5.74,5.74,0,0,1,11.47-.09v.4l0,2.73v.08l0,3.76a8.67,8.67,0,0,0,8.71,8.57h0a8.67,8.67,0,0,0,8.57-8.71l0-3.76v-.08l0-2.73h0a23,23,0,0,0-45.86-2.27,8.58,8.58,0,0,0-.19,1.83L29.71,38l0,2.22L29.86,56a5.74,5.74,0,0,1-11.47.09L18.3,45.71l0-2.27A8.64,8.64,0,1,0,1,43.57l.11,13.76c0,.12,0,.24,0,.37a23,23,0,0,0,46-1.12Z"/><path class="cls-2" d="M47,56.59h.15L47,40.13l0-2.22v-.34l-.12-14.81v-.29a5.73,5.73,0,0,1,10.75-2.82,14.28,14.28,0,0,0-28,3.24h0v.35c0,.16,0,.32,0,.48s0,.32,0,.48L29.74,38l0,2.22v.61h0L29.85,56A5.73,5.73,0,0,1,19.09,58.8,14.28,14.28,0,0,0,47,56.59Z"/><rect class="cls-3" x="50.14" y="53.63" width="34.46" height="17.18" rx="7.06" ry="7.06" transform="translate(129.03 -5.65) rotate(89.53)"/><rect class="cls-3" x="-3.73" y="5.78" width="27.74" height="17.18" rx="7.06" ry="7.06" transform="matrix(0.01, 1, -1, 0.01, 24.43, 4.12)"/></svg>