<svg id="Layer_1" data-name="Layer 1" xmlns="http://www.w3.org/2000/svg" viewBox="0 0 64 64"><defs><style>.cls-1{fill:#93989c;}</style></defs><title>opp1</title><path class="cls-1" d="M37.69,30H39a3,3,0,0,0,3-3V26h2V24H41.65l12-23H36.39L32,9.42,27.61,1H10.35l12,23H20v2h2v1a3,3,0,0,0,3,3h1.31a17,17,0,1,0,11.38,0ZM35.63,16.37,42.61,3h2.74L37,19ZM39.5,23.8l-1.37-2.63L47.61,3h2.74ZM37.61,3h2.74L34.5,14.21l-1.37-2.63Zm-.26,21H34.61l-11-21h2.74ZM13.65,3h2.74l3.37,6.46,1.77-.93L18.65,3h2.74l11,21H29.61l-7-13.46-1.77.93L27.35,24H24.61ZM24,27V26H40v1a1,1,0,0,1-1,1H25A1,1,0,0,1,24,27Zm8,34A15,15,0,1,1,47,46,15,15,0,0,1,32,61Z"/><path class="cls-1" d="M32,33A13,13,0,1,0,45,46,13,13,0,0,0,32,33Zm0,24A11,11,0,1,1,43,46,11,11,0,0,1,32,57Z"/></svg>