<svg id="Layer_1" data-name="Layer 1" xmlns="http://www.w3.org/2000/svg" xmlns:xlink="http://www.w3.org/1999/xlink" viewBox="0 0 64 64"><defs><style>.cls-1{fill:url(#linear-gradient);}.cls-2{fill:url(#linear-gradient-2);}</style><linearGradient id="linear-gradient" x1="7.77" y1="48.92" x2="58.31" y2="-1.62" gradientUnits="userSpaceOnUse"><stop offset="0" stop-color="#bf1e58"/><stop offset="0.49" stop-color="#806bad"/><stop offset="1" stop-color="#21addf"/></linearGradient><linearGradient id="linear-gradient-2" x1="18.36" y1="59.64" x2="71.05" y2="6.95" xlink:href="#linear-gradient"/></defs><title>opp1</title><path class="cls-1" d="M37.69,30H39a3,3,0,0,0,3-3V26h2V24H41.65l12-23H36.39L32,9.42,27.61,1H10.35l12,23H20v2h2v1a3,3,0,0,0,3,3h1.31a17,17,0,1,0,11.38,0ZM50.35,3,39.5,23.8l-1.37-2.63L47.61,3Zm-5,0L37,19l-1.37-2.63L42.61,3ZM37.61,3h2.74L34.5,14.21l-1.37-2.63ZM26.39,3l11,21H34.61l-11-21ZM13.65,3h2.74l3.37,6.46,1.77-.92L18.65,3h2.74l11,21H29.61l-7-13.46-1.77.92L27.35,24H24.61ZM25,28a1,1,0,0,1-1-1V26H40v1a1,1,0,0,1-1,1Zm7,33A15,15,0,1,1,47,46,15,15,0,0,1,32,61Z"/><path class="cls-2" d="M32,33A13,13,0,1,0,45,46,13,13,0,0,0,32,33Zm0,24A11,11,0,1,1,43,46,11,11,0,0,1,32,57Z"/></svg>