<svg id="Layer_2" data-name="Layer 2" xmlns="http://www.w3.org/2000/svg" xmlns:xlink="http://www.w3.org/1999/xlink" viewBox="0 0 64 64"><defs><style>.cls-1{fill:url(#linear-gradient);}.cls-2{fill:url(#linear-gradient-2);}.cls-3{fill:url(#linear-gradient-3);}.cls-4{fill:url(#linear-gradient-4);}.cls-5{fill:url(#linear-gradient-5);}</style><linearGradient id="linear-gradient" x1="14.14" y1="39.86" x2="46.27" y2="7.73" gradientUnits="userSpaceOnUse"><stop offset="0" stop-color="#bf1e58"/><stop offset="0.49" stop-color="#806bad"/><stop offset="1" stop-color="#21addf"/></linearGradient><linearGradient id="linear-gradient-2" x1="10.58" y1="36.13" x2="42.59" y2="4.13" xlink:href="#linear-gradient"/><linearGradient id="linear-gradient-3" x1="17.85" y1="43.45" x2="49.89" y2="11.4" xlink:href="#linear-gradient"/><linearGradient id="linear-gradient-4" x1="16.05" y1="63.95" x2="67.26" y2="12.74" xlink:href="#linear-gradient"/><linearGradient id="linear-gradient-5" x1="5.26" y1="52.91" x2="54.83" y2="3.35" xlink:href="#linear-gradient"/></defs><title>opp2</title><polygon class="cls-1" points="35.63 16.38 37 19 37 19 35.63 16.37 35.63 16.38"/><polygon class="cls-2" points="34.51 14.2 33.13 11.58 34.5 14.21 34.51 14.2"/><polygon class="cls-3" points="38.13 21.17 39.5 23.8 38.13 21.16 38.13 21.17"/><path class="cls-4" d="M36.17,45.25l1.49-1.49-1.41-1.41-1.49,1.49A5,5,0,0,0,33,43.1V41H31v2.1a5,5,0,0,0-1.75.73l-1.49-1.49-1.41,1.41,1.49,1.49A5,5,0,0,0,27.1,47H25v2h2.1a5,5,0,0,0,.73,1.75l-1.49,1.49,1.41,1.41,1.49-1.49A5,5,0,0,0,31,52.9V55h2V52.9a5,5,0,0,0,1.75-.73l1.49,1.49,1.41-1.41-1.49-1.49A5,5,0,0,0,36.9,49H39V47H36.9A5,5,0,0,0,36.17,45.25ZM32,51a3,3,0,1,1,3-3A3,3,0,0,1,32,51Z"/><path class="cls-5" d="M44.71,40.24l-6.4-.93L35.18,33A3.53,3.53,0,0,0,33,31.14V30h6a3,3,0,0,0,3-3V26h2V24H41.65l12-23H36.39L32,9.42,27.61,1H10.35l12,23H20v2h2v1a3,3,0,0,0,3,3h6v1.14A3.53,3.53,0,0,0,28.82,33l-3.13,6.34-6.4.93a3.85,3.85,0,0,0-2.13,6.56l4.63,4.51-1.43,8.34A2.85,2.85,0,0,0,21,62a2.92,2.92,0,0,0,3.52.69L32,58.73l7.49,3.94a2.86,2.86,0,0,0,4.15-3l-1.43-8.34,4.63-4.51a3.84,3.84,0,0,0-2.13-6.56ZM37.61,3H50.35L39.5,23.8l-1.37-2.63h0L37,19h0l-1.37-2.63h0l-.88-1.69-.25-.47h0l-1.37-2.63ZM26.39,3l11,21H34.61l-11-21ZM13.65,3h2.74l3.37,6.46,1.77-.92L18.65,3h2.74l11,21H29.61l-7-13.46-1.77.92L27.35,24H24.61ZM25,28a1,1,0,0,1-1-1V26H40v1a1,1,0,0,1-1,1ZM45.44,45.37l-5.38,5.25L41.67,60a.86.86,0,0,1-1.25.91L32,56.47,23.58,60.9a.87.87,0,0,1-.4.1.86.86,0,0,1-.85-1l1.61-9.37-5.38-5.25a1.84,1.84,0,0,1,1-3.15L27,41.14l3.59-7.28a1.55,1.55,0,0,1,2.78,0L37,41.14l7.44,1.08a1.84,1.84,0,0,1,1,3.15Z"/></svg>