<svg id="Layer_1" data-name="Layer 1" xmlns="http://www.w3.org/2000/svg" viewBox="0 0 64 64"><defs><style>.cls-1{fill:none;}.cls-2{fill:#93989c;}</style></defs><title>opp3</title><polygon class="cls-1" points="35.63 16.38 37 19 37 19 35.63 16.37 35.63 16.38"/><polygon class="cls-1" points="34.51 14.2 33.13 11.58 34.5 14.21 34.51 14.2"/><polygon class="cls-1" points="37.35 24 26.39 3 23.65 3 34.61 24 37.35 24"/><polygon class="cls-1" points="27.35 24 20.81 11.46 22.58 10.54 29.61 24 32.35 24 21.39 3 18.65 3 21.54 8.54 19.77 9.46 16.39 3 13.65 3 24.61 24 27.35 24"/><polygon class="cls-1" points="38.13 21.17 39.5 23.8 38.13 21.16 38.13 21.17"/><path class="cls-1" d="M40,27V26H24v1a1,1,0,0,0,1,1H39A1,1,0,0,0,40,27Z"/><path class="cls-2" d="M41.57,43.12l3.74-1.55-.77-1.85-3.74,1.55a10,10,0,0,0-1.07-1.59l5-5-1.41-1.41-5,5a10.06,10.06,0,0,0-1.59-1.07l1.55-3.74-1.85-.77-1.55,3.74A9.94,9.94,0,0,0,33,36.05V30h6a3,3,0,0,0,3-3V26h2V24H41.65l12-23H36.39L32,9.42,27.61,1H10.35l12,23H20v2h2v1a3,3,0,0,0,3,3h6v6.05a9.94,9.94,0,0,0-1.88.38l-1.55-3.74-1.85.77,1.55,3.74a10,10,0,0,0-1.59,1.07l-5-5-1.41,1.41,5,5a10,10,0,0,0-1.07,1.59l-3.74-1.55-.77,1.85,3.75,1.55A9.94,9.94,0,0,0,22.05,45H15v2h7.05a9.94,9.94,0,0,0,.38,1.88l-3.74,1.55.77,1.85,3.75-1.55a10,10,0,0,0,1.07,1.59l-5,5,1.41,1.41,5-5a10.06,10.06,0,0,0,1.59,1.07l-1.55,3.74,1.85.77,1.55-3.74a9.94,9.94,0,0,0,1.88.38V63h2V55.95a9.94,9.94,0,0,0,1.88-.38l1.55,3.74,1.85-.77-1.55-3.74a10,10,0,0,0,1.59-1.07l5,5,1.41-1.41-5-5a10,10,0,0,0,1.07-1.59l3.74,1.55.77-1.85-3.74-1.55A9.94,9.94,0,0,0,42,47h7V45H41.95A9.86,9.86,0,0,0,41.57,43.12ZM35.63,16.37,42.61,3h2.74L37,19ZM39.5,23.8l-1.37-2.63L47.61,3h2.74ZM37.61,3h2.74L34.5,14.21l-1.37-2.63Zm-24,0H26.39l11,21H24.61ZM24,27V26H40v1a1,1,0,0,1-1,1H25A1,1,0,0,1,24,27Zm8,27a8,8,0,1,1,8-8A8,8,0,0,1,32,54Z"/><path class="cls-2" d="M32,40a6,6,0,1,0,6,6A6,6,0,0,0,32,40Zm0,10a4,4,0,1,1,4-4A4,4,0,0,1,32,50Z"/></svg>