<svg id="Layer_4" data-name="Layer 4" xmlns="http://www.w3.org/2000/svg" xmlns:xlink="http://www.w3.org/1999/xlink" viewBox="0 0 64 64"><defs><style>.cls-1{fill:url(#linear-gradient);}.cls-2{fill:url(#linear-gradient-2);}.cls-3{fill:url(#linear-gradient-3);}</style><linearGradient id="linear-gradient" x1="14.87" y1="31.84" x2="41.51" y2="5.2" gradientUnits="userSpaceOnUse"><stop offset="0" stop-color="#bf1e58"/><stop offset="0.49" stop-color="#806bad"/><stop offset="1" stop-color="#21addf"/></linearGradient><linearGradient id="linear-gradient-2" x1="8.21" y1="48.48" x2="54.29" y2="2.4" xlink:href="#linear-gradient"/><linearGradient id="linear-gradient-3" x1="18.82" y1="59.18" x2="66.82" y2="11.18" xlink:href="#linear-gradient"/></defs><title>opp4</title><polygon class="cls-1" points="34.51 14.2 33.13 11.58 34.5 14.21 34.51 14.2"/><path class="cls-2" d="M37.69,30H39a3,3,0,0,0,3-3V26h2V24H41.65l12-23H36.39L32,9.42,27.61,1H10.35l12,23H20v2h2v1a3,3,0,0,0,3,3h1.31a17,17,0,1,0,11.38,0ZM35.63,16.37,42.61,3h2.74L37,19ZM39.5,23.8l-1.37-2.63L47.61,3h2.74ZM37.61,3h2.74L34.5,14.21l-1.37-2.63Zm-.26,21H34.61l-11-21h2.74ZM13.65,3h2.74l3.37,6.46,1.77-.93L18.65,3h2.74l11,21H29.61l-7-13.46-1.77.93L27.35,24H24.61ZM24,27V26H40v1a1,1,0,0,1-1,1H25A1,1,0,0,1,24,27Zm8,34A15,15,0,1,1,47,46,15,15,0,0,1,32,61Z"/><path class="cls-3" d="M32,34.16A11.84,11.84,0,1,0,43.84,46,11.85,11.85,0,0,0,32,34.16Zm9.61,8.61-6.48-.93-2.56-6A10.15,10.15,0,0,1,41.61,42.77Zm-5,9.36-4.62-2-4.62,2,1.34-4.69-3.38-3.38,4.71-.67L32,38.85l1.95,4.54,4.71.67-3.38,3.38ZM31.43,35.88l-2.56,6-6.48.93A10.15,10.15,0,0,1,31.43,35.88ZM21.86,46a10.08,10.08,0,0,1,.37-2.66l4.6,4.6-1.6,5.59A10.11,10.11,0,0,1,21.86,46Zm4.49,8.42L32,52l5.66,2.42a10.12,10.12,0,0,1-11.31,0Zm12.43-.89-1.6-5.59,4.6-4.6a10,10,0,0,1-3,10.19Z"/></svg>