<svg id="Layer_1" data-name="Layer 1" xmlns="http://www.w3.org/2000/svg" xmlns:xlink="http://www.w3.org/1999/xlink" viewBox="0 0 24 24"><defs><style>.cls-1{fill:#fff;}.cls-2{fill:url(#Heatherstone);}.cls-3{fill:url(#radial-gradient);}.cls-4{opacity:0.1;fill:url(#Bluestone);}</style><linearGradient id="Heatherstone" x1="-1.94" y1="18.94" x2="20.73" y2="7.66" gradientUnits="userSpaceOnUse"><stop offset="0.01" stop-color="#8a8e9a"/><stop offset="0.02" stop-color="#8c909c"/><stop offset="0.19" stop-color="#9ea2af"/><stop offset="0.36" stop-color="#a8adbb"/><stop offset="0.53" stop-color="#acb1bf"/><stop offset="0.69" stop-color="#b0b5c2"/><stop offset="0.84" stop-color="#bbc0cc"/><stop offset="0.98" stop-color="#cfd2dd"/><stop offset="1" stop-color="#d2d5e0"/></linearGradient><radialGradient id="radial-gradient" cx="20.4" cy="-1.65" r="10.01" gradientUnits="userSpaceOnUse"><stop offset="0" stop-color="#fff"/><stop offset="0.16" stop-color="#fff" stop-opacity="0.99"/><stop offset="0.29" stop-color="#fff" stop-opacity="0.95"/><stop offset="0.41" stop-color="#fff" stop-opacity="0.88"/><stop offset="0.52" stop-color="#fff" stop-opacity="0.79"/><stop offset="0.63" stop-color="#fff" stop-opacity="0.67"/><stop offset="0.74" stop-color="#fff" stop-opacity="0.52"/><stop offset="0.84" stop-color="#fff" stop-opacity="0.34"/><stop offset="0.94" stop-color="#fff" stop-opacity="0.14"/><stop offset="1" stop-color="#fff" stop-opacity="0"/></radialGradient><linearGradient id="Bluestone" x1="-0.74" y1="19.1" x2="17.84" y2="9.85" gradientUnits="userSpaceOnUse"><stop offset="0.01" stop-color="#375270"/><stop offset="0.09" stop-color="#445e7b"/><stop offset="0.24" stop-color="#556c88"/><stop offset="0.41" stop-color="#5f7490"/><stop offset="0.62" stop-color="#627793"/><stop offset="0.73" stop-color="#637996"/><stop offset="0.81" stop-color="#6780a0"/><stop offset="0.89" stop-color="#6e8cb1"/><stop offset="0.96" stop-color="#779cc9"/><stop offset="1" stop-color="#7da7d9"/></linearGradient></defs><title>slider button</title><rect class="cls-1" x="1.99" y="1.99" width="20.01" height="20.01" rx="10.01" ry="10.01"/><rect class="cls-2" x="1.99" y="1.99" width="20.01" height="20.01" rx="10.01" ry="10.01"/><rect class="cls-3" x="1.99" y="1.99" width="20.01" height="20.01" rx="10.01" ry="10.01"/><path class="cls-4" d="M14.53,18.28A10.92,10.92,0,0,1,3.61,7.37c0-.29,0-.58,0-.87A9.93,9.93,0,0,0,2,12a10,10,0,0,0,19.15,4A10.85,10.85,0,0,1,14.53,18.28Z"/></svg>